<?xml version="1.0" encoding="UTF-8"?>
<svg xmlns="http://www.w3.org/2000/svg" width="490" height="26" viewBox="0 0 490 26" fill="none">
  <g clip-path="url(#clip0_428_1140)">
    <path d="M435.71 4.78125H430.937C430.61 4.78125 430.333 5.02207 430.282 5.3493L428.351 17.7707C428.313 18.0157 428.5 18.2367 428.745 18.2367H431.024C431.35 18.2367 431.628 17.9959 431.679 17.668L432.2 14.3177C432.25 13.9898 432.528 13.749 432.854 13.749H434.365C437.509 13.749 439.324 12.2049 439.798 9.14505C440.011 7.80638 439.807 6.75456 439.189 6.01793C438.511 5.20906 437.308 4.78125 435.71 4.78125ZM436.261 9.31788C436 11.056 434.691 11.056 433.426 11.056H432.706L433.211 7.80992C433.241 7.61372 433.408 7.46923 433.604 7.46923H433.934C434.796 7.46923 435.609 7.46923 436.029 7.96787C436.28 8.26535 436.356 8.70733 436.261 9.31788Z" fill="#253B80"></path>
    <path d="M449.976 9.26063H447.691C447.496 9.26063 447.328 9.40513 447.298 9.60132L447.197 10.2501L447.037 10.015C446.542 9.28613 445.438 9.04248 444.337 9.04248C441.811 9.04248 439.654 10.9839 439.234 13.7073C439.015 15.0658 439.326 16.3648 440.085 17.2707C440.782 18.1037 441.779 18.4508 442.964 18.4508C444.999 18.4508 446.128 17.1227 446.128 17.1227L446.026 17.7673C445.988 18.0137 446.175 18.2347 446.418 18.2347H448.477C448.805 18.2347 449.081 17.9939 449.133 17.666L450.368 9.72669C450.407 9.48233 450.221 9.26063 449.976 9.26063ZM446.79 13.7753C446.57 15.1005 445.533 15.9901 444.211 15.9901C443.548 15.9901 443.017 15.7741 442.677 15.3647C442.339 14.9582 442.211 14.3795 442.318 13.7349C442.524 12.421 443.578 11.5024 444.879 11.5024C445.528 11.5024 446.056 11.7213 446.404 12.1342C446.752 12.5514 446.89 13.1336 446.79 13.7753Z" fill="#253B80"></path>
    <path d="M462.151 9.26123H459.854C459.635 9.26123 459.429 9.37172 459.305 9.55659L456.137 14.2922L454.794 9.74145C454.71 9.45672 454.451 9.26123 454.157 9.26123H451.9C451.626 9.26123 451.436 9.53322 451.523 9.79529L454.053 17.3301L451.674 20.7377C451.487 21.0062 451.676 21.3752 451.999 21.3752H454.293C454.511 21.3752 454.714 21.2675 454.838 21.0862L462.477 9.89515C462.66 9.62742 462.473 9.26123 462.151 9.26123Z" fill="#253B80"></path>
    <path d="M469.755 4.78125H464.981C464.655 4.78125 464.377 5.02207 464.326 5.3493L462.396 17.7707C462.357 18.0157 462.544 18.2367 462.788 18.2367H465.238C465.465 18.2367 465.66 18.0681 465.695 17.8387L466.243 14.3177C466.294 13.9898 466.572 13.749 466.898 13.749H468.408C471.553 13.749 473.367 12.2049 473.842 9.14505C474.056 7.80638 473.85 6.75456 473.232 6.01793C472.555 5.20906 471.352 4.78125 469.755 4.78125ZM470.305 9.31788C470.045 11.056 468.736 11.056 467.47 11.056H466.751L467.257 7.80992C467.287 7.61372 467.453 7.46923 467.649 7.46923H467.979C468.84 7.46923 469.654 7.46923 470.074 7.96787C470.325 8.26535 470.401 8.70733 470.305 9.31788Z" fill="#179BD7"></path>
    <path d="M484.022 9.26161H481.737C481.541 9.26161 481.374 9.4061 481.345 9.6023L481.244 10.2511L481.083 10.0159C480.589 9.28711 479.486 9.04346 478.385 9.04346C475.859 9.04346 473.702 10.9849 473.282 13.7083C473.064 15.0668 473.373 16.3658 474.133 17.2717C474.831 18.1047 475.826 18.4517 477.012 18.4517C479.047 18.4517 480.175 17.1237 480.175 17.1237L480.074 17.7682C480.035 18.0147 480.222 18.2357 480.467 18.2357H482.525C482.851 18.2357 483.129 17.9949 483.18 17.6669L484.416 9.72767C484.454 9.48331 484.267 9.26161 484.022 9.26161ZM480.836 13.7763C480.617 15.1015 479.579 15.9911 478.257 15.9911C477.595 15.9911 477.063 15.7751 476.722 15.3657C476.384 14.9591 476.257 14.3805 476.363 13.7359C476.571 12.422 477.623 11.5034 478.925 11.5034C479.574 11.5034 480.101 11.7222 480.449 12.1352C480.799 12.5523 480.937 13.1346 480.836 13.7763Z" fill="#179BD7"></path>
    <path d="M486.716 5.12069L484.756 17.7694C484.718 18.0145 484.905 18.2355 485.149 18.2355H487.118C487.446 18.2355 487.723 17.9947 487.774 17.6667L489.705 5.24606C489.744 5.00099 489.557 4.7793 489.313 4.7793H487.108C486.913 4.78001 486.746 4.9245 486.716 5.12069Z" fill="#179BD7"></path>
    <path d="M408.529 20.6494L408.894 18.2965L408.081 18.2773H404.198L406.896 0.914921C406.905 0.862507 406.932 0.813634 406.972 0.778928C407.012 0.744222 407.063 0.725098 407.116 0.725098H413.662C415.835 0.725098 417.335 1.18407 418.118 2.08998C418.485 2.51496 418.719 2.95906 418.832 3.44778C418.951 3.96059 418.953 4.57326 418.837 5.32051L418.829 5.37505V5.85386L419.196 6.06493C419.505 6.23138 419.751 6.42191 419.939 6.64007C420.253 7.00342 420.456 7.46523 420.542 8.01274C420.631 8.57584 420.602 9.24588 420.456 10.0045C420.289 10.8771 420.018 11.6371 419.652 12.259C419.316 12.832 418.887 13.3072 418.379 13.6756C417.893 14.0255 417.316 14.2911 416.663 14.4611C416.031 14.6282 415.31 14.7125 414.519 14.7125H414.01C413.645 14.7125 413.291 14.8457 413.014 15.0844C412.735 15.328 412.551 15.6609 412.494 16.025L412.456 16.2368L411.811 20.3838L411.782 20.5361C411.774 20.5843 411.761 20.6083 411.741 20.6246C411.724 20.6395 411.699 20.6494 411.674 20.6494H408.529Z" fill="#253B80"></path>
    <path d="M419.544 5.43018C419.525 5.55696 419.502 5.68658 419.477 5.81974C418.614 10.3181 415.66 11.8721 411.888 11.8721H409.967C409.506 11.8721 409.117 12.2121 409.045 12.6739L408.062 19.0032L407.783 20.7973C407.737 21.1005 407.967 21.3739 408.268 21.3739H411.675C412.078 21.3739 412.421 21.0764 412.485 20.6727L412.518 20.497L413.159 16.3662L413.201 16.1396C413.263 15.7344 413.607 15.437 414.01 15.437H414.52C417.82 15.437 420.404 14.077 421.159 10.1418C421.475 8.4978 421.311 7.12512 420.477 6.15972C420.224 5.86861 419.91 5.62708 419.544 5.43018Z" fill="#179BD7"></path>
    <path d="M418.64 5.06546C418.508 5.0265 418.372 4.99109 418.233 4.95922C418.092 4.92805 417.949 4.90043 417.801 4.87634C417.283 4.79135 416.715 4.75098 416.107 4.75098H410.976C410.85 4.75098 410.73 4.78002 410.622 4.83243C410.386 4.94788 410.21 5.17525 410.167 5.45361L409.076 12.47L409.044 12.6747C409.116 12.2129 409.505 11.8729 409.966 11.8729H411.887C415.659 11.8729 418.613 10.3182 419.476 5.8205C419.502 5.68734 419.524 5.55772 419.543 5.43094C419.325 5.31336 419.088 5.21278 418.833 5.12708C418.771 5.10583 418.706 5.08529 418.64 5.06546Z" fill="#222D65"></path>
    <path d="M410.167 5.45316C410.21 5.1748 410.386 4.94744 410.622 4.83269C410.731 4.78028 410.85 4.75124 410.976 4.75124H416.107C416.715 4.75124 417.283 4.79161 417.801 4.87661C417.948 4.90069 418.092 4.92831 418.233 4.95948C418.372 4.99135 418.508 5.02677 418.64 5.06572C418.706 5.08556 418.771 5.1061 418.834 5.12664C419.089 5.21234 419.325 5.31363 419.544 5.4305C419.801 3.76813 419.542 2.63627 418.656 1.61137C417.68 0.483057 415.918 0 413.663 0H407.116C406.655 0 406.262 0.339981 406.191 0.802498L403.464 18.3434C403.411 18.6905 403.675 19.0035 404.019 19.0035H408.061L409.076 12.4695L410.167 5.45316Z" fill="#253B80"></path>
  </g>
  <path d="M369.395 23.7499C375.725 23.7499 381.516 18.4534 381.516 11.9811C381.516 4.89686 375.734 0.00195312 369.395 0.00195312H363.936C357.526 0.00195312 352.264 4.89686 352.264 11.9811C352.264 18.4534 357.544 23.7786 363.936 23.7499H369.395Z" fill="#0079BE"></path>
  <path d="M363.963 0.986886C362.594 0.960289 361.232 1.22143 359.957 1.75539C358.683 2.28935 357.519 3.08565 356.533 4.09875C355.548 5.11185 354.759 6.32189 354.213 7.65968C353.667 8.99746 353.374 10.4368 353.351 11.8953C353.463 14.8119 354.631 17.5691 356.609 19.5903C358.587 21.6116 361.222 22.7402 363.963 22.7402C366.705 22.7402 369.34 21.6116 371.318 19.5903C373.296 17.5691 374.463 14.8119 374.576 11.8953C374.554 10.4364 374.261 8.9965 373.716 7.65814C373.17 6.31978 372.381 5.10924 371.396 4.09589C370.41 3.08254 369.246 2.2863 367.97 1.7528C366.695 1.2193 365.333 0.959022 363.963 0.986886ZM357.238 11.8953C357.255 10.4828 357.678 9.10984 358.451 7.9612C359.223 6.81256 360.307 5.94338 361.557 5.47069V18.2816C360.313 17.8112 359.232 16.9478 358.461 15.8067C357.689 14.6657 357.263 13.3011 357.238 11.8953ZM366.369 18.3294V5.43245C367.626 5.9062 368.715 6.78089 369.488 7.93738C370.26 9.09387 370.68 10.4759 370.688 11.8953C370.666 13.3028 370.24 14.6694 369.468 15.8124C368.696 16.9553 367.615 17.8201 366.369 18.2911V18.3294Z" fill="#FDFDFD"></path>
  <path d="M369.395 23.7499C375.725 23.7499 381.516 18.4534 381.516 11.9811C381.516 4.89686 375.734 0.00195312 369.395 0.00195312H363.936C357.526 0.00195312 352.264 4.89686 352.264 11.9811C352.264 18.4534 357.544 23.7786 363.936 23.7499H369.395Z" fill="#0079BE"></path>
  <path d="M363.963 0.986886C362.594 0.960289 361.232 1.22143 359.957 1.75539C358.683 2.28935 357.519 3.08565 356.533 4.09875C355.548 5.11185 354.759 6.32189 354.213 7.65968C353.667 8.99746 353.374 10.4368 353.351 11.8953C353.463 14.8119 354.631 17.5691 356.609 19.5903C358.587 21.6116 361.222 22.7402 363.963 22.7402C366.705 22.7402 369.34 21.6116 371.318 19.5903C373.296 17.5691 374.463 14.8119 374.576 11.8953C374.554 10.4364 374.261 8.9965 373.716 7.65814C373.17 6.31978 372.381 5.10924 371.396 4.09589C370.41 3.08254 369.246 2.2863 367.97 1.7528C366.695 1.2193 365.333 0.959022 363.963 0.986886ZM357.238 11.8953C357.255 10.4828 357.678 9.10984 358.451 7.9612C359.223 6.81256 360.307 5.94338 361.557 5.47069V18.2816C360.313 17.8112 359.232 16.9478 358.461 15.8067C357.689 14.6657 357.263 13.3011 357.238 11.8953ZM366.369 18.3294V5.43245C367.626 5.9062 368.715 6.78089 369.488 7.93738C370.26 9.09387 370.68 10.4759 370.688 11.8953C370.666 13.3028 370.24 14.6694 369.468 15.8124C368.696 16.9553 367.615 17.8201 366.369 18.2911V18.3294Z" fill="#FDFDFD"></path>
  <path d="M234.903 4.1792H230.374V20.8084H234.882C236.919 20.9301 238.926 20.2516 240.525 18.9016C241.414 18.1315 242.133 17.1618 242.629 16.0618C243.126 14.9618 243.389 13.7586 243.398 12.5381C243.398 7.58264 239.91 4.1792 234.903 4.1792ZM238.515 16.6289C237.317 17.6298 235.804 18.1021 234.288 17.9482H233.466V6.98399H234.288C235.808 6.82206 237.327 7.30397 238.515 8.32541C239.05 8.85013 239.475 9.48817 239.763 10.1985C240.052 10.9087 240.198 11.6755 240.192 12.4495C240.198 13.2316 240.053 14.0067 239.764 14.726C239.476 15.4453 239.051 16.0932 238.515 16.6289Z" fill="#231F20"></path>
  <path d="M247.895 4.1792H244.771V20.8084H247.895V4.1792Z" fill="#231F20"></path>
  <path d="M255.444 10.5431C253.591 9.82253 253.05 9.34583 253.05 8.44785C253.05 7.54987 254.018 6.57429 255.351 6.57429C255.846 6.58157 256.332 6.7104 256.773 6.95076C257.214 7.19112 257.596 7.53651 257.891 7.96006L259.505 5.74283C258.196 4.5228 256.507 3.86658 254.768 3.90253C254.148 3.85748 253.527 3.94603 252.94 4.16288C252.354 4.37972 251.814 4.72039 251.355 5.16448C250.895 5.60857 250.524 6.14694 250.264 6.74732C250.004 7.3477 249.861 7.99774 249.843 8.65849C249.843 10.9422 250.832 12.1063 253.726 13.2038C254.464 13.4464 255.178 13.7619 255.861 14.1461C256.141 14.32 256.375 14.5691 256.537 14.8685C256.7 15.168 256.786 15.5075 256.787 15.8534C256.782 16.1772 256.716 16.4964 256.591 16.7918C256.466 17.0872 256.286 17.3524 256.062 17.5713C255.838 17.7902 255.575 17.9581 255.288 18.065C255.001 18.1718 254.696 18.2152 254.393 18.1926C253.691 18.207 253.001 18.0054 252.404 17.6121C251.808 17.2188 251.33 16.6504 251.03 15.9753L249.031 17.9819C249.599 18.9782 250.405 19.7958 251.367 20.351C252.33 20.9061 253.413 21.179 254.507 21.1415C257.714 21.1415 259.963 18.9243 259.963 15.6982C259.973 13.0819 258.932 11.8846 255.444 10.5431Z" fill="#231F20"></path>
  <path d="M261.014 12.4826C261.015 13.6366 261.233 14.7787 261.655 15.8419C262.076 16.905 262.693 17.8677 263.469 18.6734C264.245 19.479 265.164 20.1113 266.173 20.5331C267.182 20.955 268.26 21.1578 269.343 21.1297C270.687 21.1305 272.013 20.8004 273.216 20.1653V16.3516C272.752 16.9192 272.179 17.3749 271.537 17.6884C270.894 18.0019 270.196 18.166 269.489 18.1697C268.776 18.203 268.065 18.0776 267.4 17.8016C266.735 17.5255 266.132 17.105 265.628 16.5667C265.125 16.0284 264.732 15.3842 264.475 14.6753C264.219 13.9663 264.104 13.2082 264.138 12.4493C264.124 11.3271 264.43 10.2269 265.016 9.29413C265.602 8.36138 266.441 7.64004 267.42 7.22552C268.4 6.81099 269.474 6.7228 270.502 6.97262C271.529 7.22243 272.461 7.79848 273.175 8.62458V4.82203C271.998 4.1454 270.681 3.79467 269.343 3.80211C267.159 3.78139 265.056 4.68329 263.495 6.31028C261.934 7.93726 261.042 10.1567 261.014 12.4826Z" fill="#231F20"></path>
  <path d="M297.642 15.3097L293.426 4.22354H290.052L296.768 21.2297H298.433L305.263 4.1792H301.921L297.642 15.3097Z" fill="#231F20"></path>
  <path d="M306.659 20.753H315.404V17.9482H309.74V13.5137H315.154V10.6646H309.74V6.98399H315.404V4.1792H306.659V20.753Z" fill="#231F20"></path>
  <path d="M327.648 9.06819C327.648 5.96407 325.566 4.1792 322.057 4.1792H317.476V20.8084H320.6V14.1567H321.006L325.274 20.8084H329.074L324.087 13.8241C325.138 13.6641 326.092 13.0826 326.754 12.1986C327.416 11.3146 327.736 10.1948 327.648 9.06819ZM321.401 11.8065H320.495V6.78444H321.453C323.369 6.78444 324.41 7.62699 324.41 9.24556C324.41 10.8641 323.4 11.8065 321.401 11.8065Z" fill="#231F20"></path>
  <path d="M282.607 21.3404C284.251 21.3229 285.853 20.7879 287.212 19.8028C288.571 18.8177 289.625 17.4265 290.243 15.8045C290.86 14.1824 291.014 12.4021 290.683 10.6875C290.352 8.97302 289.552 7.40104 288.384 6.16955C287.216 4.93807 285.732 4.10215 284.119 3.76707C282.505 3.43199 280.835 3.61273 279.318 4.28652C277.801 4.96031 276.505 6.09704 275.593 7.55354C274.681 9.01004 274.195 10.7212 274.195 12.4715C274.195 13.6437 274.413 14.8042 274.837 15.8861C275.26 16.9679 275.881 17.9496 276.664 18.7743C277.446 19.5991 278.374 20.2505 279.394 20.6909C280.414 21.1314 281.506 21.3521 282.607 21.3404Z" fill="url(#paint0_linear_428_1140)"></path>
  <path opacity="0.65" d="M282.607 21.3404C284.251 21.3229 285.853 20.7879 287.212 19.8028C288.571 18.8177 289.625 17.4265 290.243 15.8045C290.86 14.1824 291.014 12.4021 290.683 10.6875C290.352 8.97302 289.552 7.40104 288.384 6.16955C287.216 4.93807 285.732 4.10215 284.119 3.76707C282.505 3.43199 280.835 3.61273 279.318 4.28652C277.801 4.96031 276.505 6.09704 275.593 7.55354C274.681 9.01004 274.195 10.7212 274.195 12.4715C274.195 13.6437 274.413 14.8042 274.837 15.8861C275.26 16.9679 275.881 17.9496 276.664 18.7743C277.446 19.5991 278.374 20.2505 279.394 20.6909C280.414 21.1314 281.506 21.3521 282.607 21.3404Z" fill="url(#paint1_linear_428_1140)"></path>
  <path d="M329.593 4.80121C329.593 4.51297 329.396 4.34668 329.062 4.34668H328.615V5.81005H328.948V5.24466L329.333 5.81005H329.729L329.271 5.2114C329.362 5.19548 329.444 5.14533 329.504 5.07006C329.563 4.9948 329.595 4.8994 329.593 4.80121ZM329 5.00076H328.948V4.62383H329.01C329.167 4.62383 329.26 4.62383 329.26 4.80121C329.26 4.97859 329.167 5.00076 329 5.00076Z" fill="#231F20"></path>
  <path d="M329.127 3.80176C328.89 3.80176 328.659 3.87653 328.462 4.01662C328.265 4.15671 328.111 4.35582 328.021 4.58878C327.93 4.82174 327.906 5.07808 327.953 5.32539C327.999 5.57269 328.113 5.79986 328.28 5.97816C328.448 6.15646 328.661 6.27788 328.893 6.32707C329.126 6.37626 329.366 6.35102 329.585 6.25452C329.804 6.15803 329.991 5.99462 330.123 5.78496C330.254 5.57531 330.324 5.32882 330.324 5.07666C330.324 4.90924 330.293 4.74346 330.233 4.58878C330.173 4.4341 330.085 4.29356 329.974 4.17517C329.863 4.05678 329.73 3.96287 329.585 3.8988C329.44 3.83473 329.284 3.80176 329.127 3.80176ZM329.127 6.11876C328.933 6.12317 328.741 6.06581 328.578 5.95402C328.414 5.84222 328.285 5.68105 328.208 5.49106C328.131 5.30107 328.108 5.09088 328.144 4.88729C328.179 4.68371 328.271 4.49596 328.407 4.34799C328.543 4.20003 328.717 4.09855 328.907 4.05651C329.098 4.01447 329.296 4.03377 329.476 4.11195C329.656 4.19013 329.81 4.32365 329.918 4.49547C330.027 4.66729 330.085 4.86962 330.085 5.07666C330.085 5.34925 329.985 5.611 329.806 5.80581C329.627 6.00061 329.383 6.11296 329.127 6.11876Z" fill="#231F20"></path>
  <path d="M147.898 3.91662L140.175 20.7969H149.402L150.547 18.1047H153.167L154.311 20.7969H164.462V18.7433L165.385 20.7969H170.644L171.567 18.704V20.7969H192.726L195.3 18.1735L197.699 20.7969H208.57L200.828 12.3862L208.579 3.89697H197.875L195.374 6.47126L193.04 3.89697H170.035L168.061 8.2595L166.04 3.89697H156.812V5.86208L155.779 3.89697L147.898 3.91662ZM149.688 6.31405H154.191L159.313 17.7608V6.31405H164.25L168.208 14.5184L171.844 6.31405H176.725V18.3994H173.772V8.91781L169.389 18.3994H166.713L162.339 8.91781V18.3994H156.194L155.022 15.6778H148.729L147.566 18.3994H144.272L149.688 6.31405ZM179.493 6.31405H191.637L195.328 10.2443L199.167 6.31405H202.858L197.21 12.4059L202.913 18.3994H199.028L195.337 14.3906L191.489 18.3994H179.493V6.31405ZM151.875 8.36759L149.808 13.2017H153.952L151.875 8.36759ZM182.492 8.81956V11.0303H189.118V13.4867H182.492V15.9038H189.93L193.381 12.3469L190.068 8.80973L182.492 8.81956Z" fill="#0571C1"></path>
  <path d="M104.192 22.4287H93.9961V3.34912H104.192V22.4287Z" fill="#FF5F00"></path>
  <path d="M94.6437 12.8844C94.6333 11.0648 95.0271 9.26559 95.7967 7.61657C96.5664 5.96755 97.6927 4.50986 99.0943 3.34868C97.0679 1.67416 94.5218 0.756299 91.8925 0.752441C85.4188 0.752441 80.248 6.18756 80.248 12.8844C80.248 19.5812 85.4593 25.0164 91.8925 25.0164C94.5218 25.0125 97.0679 24.0947 99.0943 22.4201C97.6927 21.2589 96.5664 19.8013 95.7967 18.1522C95.0271 16.5032 94.6333 14.704 94.6437 12.8844Z" fill="#EB001B"></path>
  <path d="M117.94 12.8844C117.94 19.5813 112.721 25.0164 106.288 25.0164C103.658 25.0125 101.112 24.0947 99.0859 22.4201C100.488 21.259 101.614 19.8013 102.384 18.1523C103.153 16.5032 103.547 14.704 103.537 12.8844C103.547 11.0648 103.153 9.26561 102.384 7.61659C101.614 5.96757 100.488 4.50988 99.0859 3.34871C101.123 1.66533 103.685 0.746913 106.328 0.752466C112.721 0.752466 117.94 6.18758 117.94 12.8844Z" fill="#F79E1B"></path>
  <path d="M89.0116 12.9654C88.9946 12.8407 89.0045 12.7138 89.0406 12.5933C89.0768 12.4727 89.1383 12.3613 89.2211 12.2665C89.3039 12.1717 89.406 12.0957 89.5206 12.0437C89.6352 11.9916 89.7597 11.9647 89.8856 11.9647C90.0115 11.9647 90.1359 11.9916 90.2505 12.0437C90.3652 12.0957 90.4673 12.1717 90.5501 12.2665C90.6329 12.3613 90.6944 12.4727 90.7305 12.5933C90.7666 12.7138 90.7765 12.8407 90.7595 12.9654C90.7765 13.0901 90.7666 13.217 90.7305 13.3375C90.6944 13.458 90.6329 13.5695 90.5501 13.6643C90.4673 13.7591 90.3652 13.8351 90.2505 13.8871C90.1359 13.9392 90.0115 13.9661 89.8856 13.9661C89.7597 13.9661 89.6352 13.9392 89.5206 13.8871C89.406 13.8351 89.3039 13.7591 89.2211 13.6643C89.1383 13.5695 89.0768 13.458 89.0406 13.3375C89.0045 13.217 88.9946 13.0901 89.0116 12.9654ZM91.3583 12.9654V11.4529H90.7272V11.8169C90.6214 11.6757 90.4829 11.5622 90.3237 11.4861C90.1644 11.4101 89.9891 11.3737 89.8128 11.3802C89.6093 11.3849 89.4089 11.4313 89.2241 11.5165C89.0392 11.6017 88.8738 11.7239 88.7381 11.8755C88.6023 12.0271 88.4991 12.2049 88.4348 12.3979C88.3705 12.5909 88.3465 12.7951 88.3643 12.9977C88.3465 13.2004 88.3705 13.4046 88.4348 13.5976C88.4991 13.7906 88.6023 13.9684 88.7381 14.12C88.8738 14.2716 89.0392 14.3938 89.2241 14.479C89.4089 14.5642 89.6093 14.6106 89.8128 14.6153C89.9891 14.6218 90.1644 14.5854 90.3237 14.5094C90.4829 14.4333 90.6214 14.3198 90.7272 14.1786V14.5021H91.3583V12.9654ZM112.632 12.9654C112.62 12.8431 112.634 12.7196 112.673 12.603C112.712 12.4864 112.775 12.3792 112.857 12.2882C112.94 12.1973 113.041 12.1246 113.153 12.0749C113.266 12.0252 113.387 11.9995 113.51 11.9995C113.633 11.9995 113.755 12.0252 113.867 12.0749C113.98 12.1246 114.08 12.1973 114.163 12.2882C114.246 12.3792 114.308 12.4864 114.347 12.603C114.386 12.7196 114.4 12.8431 114.388 12.9654C114.4 13.0877 114.386 13.2111 114.347 13.3278C114.308 13.4444 114.246 13.5516 114.163 13.6425C114.08 13.7335 113.98 13.8062 113.867 13.8559C113.755 13.9056 113.633 13.9313 113.51 13.9313C113.387 13.9313 113.266 13.9056 113.153 13.8559C113.041 13.8062 112.94 13.7335 112.857 13.6425C112.775 13.5516 112.712 13.4444 112.673 13.3278C112.634 13.2111 112.62 13.0877 112.632 12.9654ZM114.979 12.9654V10.2397H114.348V11.8169C114.242 11.6757 114.103 11.5622 113.944 11.4861C113.785 11.4101 113.61 11.3737 113.433 11.3802C113.23 11.3849 113.029 11.4313 112.845 11.5165C112.66 11.6017 112.494 11.7239 112.359 11.8755C112.223 12.0271 112.12 12.2049 112.055 12.3979C111.991 12.5909 111.967 12.7951 111.985 12.9977C111.967 13.2004 111.991 13.4046 112.055 13.5976C112.12 13.7906 112.223 13.9684 112.359 14.12C112.494 14.2716 112.66 14.3938 112.845 14.479C113.029 14.5642 113.23 14.6106 113.433 14.6153C113.61 14.6218 113.785 14.5854 113.944 14.5094C114.103 14.4333 114.242 14.3198 114.348 14.1786V14.5021H114.979V12.9654ZM99.1752 11.9625C99.5798 11.9625 99.8387 12.2294 99.9035 12.6985H98.4065C98.4086 12.5997 98.4301 12.5023 98.4699 12.4118C98.5097 12.3214 98.5669 12.2397 98.6383 12.1713C98.7097 12.103 98.7938 12.0493 98.886 12.0135C98.9781 11.9777 99.0764 11.9603 99.1752 11.9625ZM99.1752 11.3802C98.9705 11.3799 98.768 11.423 98.5812 11.5066C98.3944 11.5903 98.2274 11.7125 98.0913 11.8654C97.9552 12.0182 97.853 12.1982 97.7916 12.3934C97.7302 12.5886 97.7108 12.7945 97.7348 12.9977C97.7117 13.2041 97.733 13.4131 97.7973 13.6105C97.8616 13.808 97.9675 13.9894 98.1077 14.1427C98.248 14.2959 98.4194 14.4173 98.6105 14.4988C98.8016 14.5804 99.0079 14.6201 99.2157 14.6153C99.6511 14.6305 100.076 14.4802 100.405 14.1948L100.098 13.7095C99.8703 13.9013 99.5857 14.0122 99.2885 14.0249C99.0764 14.0406 98.8666 13.9722 98.7045 13.8344C98.5425 13.6967 98.4412 13.5007 98.4226 13.2889H100.575C100.575 13.208 100.575 13.1191 100.575 13.0382C100.609 12.8353 100.599 12.6275 100.544 12.429C100.49 12.2306 100.394 12.0462 100.261 11.8886C100.129 11.731 99.9643 11.604 99.7782 11.5162C99.592 11.4284 99.3891 11.382 99.1833 11.3802H99.1752ZM106.782 12.9977C106.765 12.8731 106.775 12.7462 106.811 12.6256C106.847 12.5051 106.908 12.3937 106.991 12.2989C107.074 12.2041 107.176 12.1281 107.291 12.076C107.405 12.024 107.53 11.997 107.656 11.997C107.782 11.997 107.906 12.024 108.021 12.076C108.135 12.1281 108.237 12.2041 108.32 12.2989C108.403 12.3937 108.464 12.5051 108.501 12.6256C108.537 12.7462 108.547 12.8731 108.53 12.9977C108.547 13.1224 108.537 13.2493 108.501 13.3699C108.464 13.4904 108.403 13.6018 108.32 13.6966C108.237 13.7914 108.135 13.8674 108.021 13.9195C107.906 13.9715 107.782 13.9985 107.656 13.9985C107.53 13.9985 107.405 13.9715 107.291 13.9195C107.176 13.8674 107.074 13.7914 106.991 13.6966C106.908 13.6018 106.847 13.4904 106.811 13.3699C106.775 13.2493 106.765 13.1224 106.782 12.9977ZM109.12 12.9977V11.4529H108.497V11.8169C108.391 11.6757 108.253 11.5622 108.094 11.4861C107.934 11.4101 107.759 11.3737 107.583 11.3802C107.379 11.3837 107.178 11.4293 106.993 11.5141C106.807 11.5989 106.641 11.7211 106.505 11.8729C106.369 12.0248 106.266 12.2031 106.202 12.3966C106.139 12.5902 106.115 12.7948 106.134 12.9977C106.115 13.2007 106.139 13.4053 106.202 13.5989C106.266 13.7924 106.369 13.9707 106.505 14.1226C106.641 14.2744 106.807 14.3966 106.993 14.4814C107.178 14.5662 107.379 14.6118 107.583 14.6153C107.759 14.6218 107.934 14.5854 108.094 14.5094C108.253 14.4333 108.391 14.3198 108.497 14.1786V14.5021H109.12V12.9977ZM103.221 12.9977C103.234 13.292 103.327 13.577 103.491 13.8222C103.654 14.0674 103.881 14.2634 104.147 14.3891C104.414 14.5147 104.71 14.5653 105.003 14.5353C105.296 14.5054 105.575 14.396 105.811 14.219L105.519 13.6933C105.303 13.8664 105.036 13.9631 104.759 13.9683C104.634 13.9648 104.512 13.9353 104.4 13.8817C104.288 13.8281 104.188 13.7516 104.107 13.6571C104.026 13.5626 103.966 13.4522 103.931 13.3331C103.895 13.2139 103.885 13.0887 103.901 12.9654C103.89 12.8433 103.904 12.7202 103.943 12.6039C103.981 12.4875 104.044 12.3804 104.126 12.2893C104.208 12.1981 104.308 12.1249 104.42 12.0743C104.531 12.0236 104.652 11.9966 104.775 11.9948C105.052 12 105.319 12.0967 105.536 12.2698L105.835 11.736C105.599 11.5587 105.319 11.4493 105.025 11.4197C104.731 11.3901 104.435 11.4414 104.168 11.568C103.902 11.6946 103.675 11.8918 103.512 12.1381C103.349 12.3844 103.257 12.6705 103.245 12.9654L103.221 12.9977ZM111.313 11.3802C111.151 11.3687 110.988 11.4036 110.845 11.481C110.702 11.5583 110.583 11.6748 110.504 11.8169V11.4529H109.881V14.5021H110.512V12.7794C110.512 12.2779 110.714 11.9706 111.127 11.9706C111.263 11.968 111.398 11.9928 111.524 12.0434L111.718 11.4287C111.599 11.3953 111.477 11.3789 111.354 11.3802H111.313ZM94.4333 11.6956C94.0798 11.4749 93.6683 11.3651 93.2519 11.3802C92.5155 11.3802 92.0461 11.7441 92.0461 12.3426C92.0461 12.9411 92.3941 13.1514 93.0415 13.2323L93.3409 13.2808C93.6888 13.3294 93.8507 13.4183 93.8507 13.5963C93.8507 13.7742 93.616 13.9602 93.1871 13.9602C92.8392 13.9702 92.4987 13.8586 92.2242 13.6448L91.9248 14.1543C92.2883 14.419 92.7295 14.5555 93.179 14.5425C93.9882 14.5425 94.5061 14.1382 94.5061 13.5639C94.5061 12.9897 94.1177 12.7551 93.4946 12.6581L93.1952 12.6176C92.9201 12.5772 92.7016 12.5206 92.7016 12.3184C92.7016 12.1162 92.912 11.9625 93.2519 11.9625C93.5714 11.9681 93.8839 12.0574 94.1582 12.2213L94.4333 11.6956ZM102.525 11.3802C102.363 11.3687 102.2 11.4036 102.057 11.481C101.914 11.5583 101.796 11.6748 101.716 11.8169V11.4529H101.093V14.5021H101.724V12.7794C101.724 12.2779 101.935 11.9706 102.339 11.9706C102.475 11.9671 102.61 11.9919 102.736 12.0434L102.93 11.4287C102.822 11.3982 102.71 11.3819 102.598 11.3802H102.525ZM97.1522 11.4529H96.1164V10.539H95.4852V11.4529H94.9997V12.0757H95.5904V13.4507C95.5904 14.1543 95.8494 14.5668 96.5939 14.5668C96.8813 14.5735 97.1638 14.4916 97.4031 14.3323L97.225 13.7742C97.0569 13.8786 96.8644 13.9371 96.6667 13.944C96.3511 13.944 96.2459 13.7418 96.2459 13.4426V12.0757H97.2817L97.1522 11.4529ZM87.8059 14.5021V12.5772C87.8097 12.3236 87.731 12.0756 87.5818 11.8704C87.4326 11.6653 87.2209 11.514 86.9784 11.4393C86.7359 11.3646 86.4757 11.3704 86.2368 11.456C85.9979 11.5416 85.7932 11.7023 85.6535 11.914C85.5566 11.746 85.4158 11.6075 85.2461 11.5135C85.0765 11.4194 84.8844 11.3733 84.6905 11.3802C84.5221 11.372 84.3545 11.4089 84.2052 11.4871C84.0558 11.5653 83.93 11.6819 83.8409 11.825V11.4529H83.2178V14.5021H83.8489V12.7955C83.8489 12.2779 84.1322 11.9867 84.561 11.9867C84.9899 11.9867 85.1922 12.2698 85.1922 12.7955V14.5021H85.8234V12.7955C85.808 12.694 85.8151 12.5904 85.844 12.4919C85.8729 12.3934 85.9231 12.3024 85.991 12.2254C86.0588 12.1483 86.1427 12.087 86.2368 12.0458C86.3309 12.0046 86.4328 11.9844 86.5355 11.9867C86.9644 11.9867 87.1667 12.2698 87.1667 12.7955V14.5021H87.8059Z" fill="#FDFDFD"></path>
  <path d="M25.3579 21.4025H20.6118L23.577 2.80518H28.3231L25.3579 21.4025Z" fill="#00579F"></path>
  <path d="M42.5334 3.25777C41.1725 2.72756 39.7336 2.46026 38.2845 2.46844C33.6017 2.46844 30.3111 5.00007 30.284 8.61942C30.284 11.2858 32.6434 12.7682 34.4424 13.6634C36.2414 14.5586 36.9014 15.1651 36.9014 15.9833C36.9014 17.225 35.4188 17.8026 34.0537 17.8026C32.5209 17.8557 30.9977 17.526 29.606 16.84L28.9822 16.5319L28.3223 20.7096C30.015 21.3596 31.8023 21.6855 33.6017 21.6722C38.5738 21.6722 41.8192 19.1791 41.8553 15.3191C41.8553 13.2014 40.6078 11.5746 37.8777 10.2462C36.2143 9.39912 35.1656 8.82157 35.1656 7.95523C35.1656 7.0889 36.0697 6.35733 37.8777 6.35733C39.091 6.31258 40.2984 6.5559 41.4124 7.06964L41.8373 7.26216L42.5334 3.25777Z" fill="#00579F"></path>
  <path d="M48.8164 14.8095L50.7058 9.61149C50.7058 9.61149 51.1036 8.52376 51.3296 7.83069L51.664 9.4286C51.664 9.4286 52.5681 13.8854 52.7579 14.8095H48.8164ZM54.6835 2.80595H51.0222C50.5074 2.73387 49.9847 2.84605 49.5363 3.12486C49.0879 3.40366 48.7392 3.83327 48.5452 4.3461L41.5029 21.4033H46.475L47.4694 18.6117H53.5534C53.689 19.2663 54.123 21.4033 54.123 21.4033H58.5074L54.6835 2.80595Z" fill="#00579F"></path>
  <path d="M16.653 2.80518L12.0154 15.4825L11.5092 12.9124C10.3169 9.53224 7.97849 6.75039 4.95508 5.1154L9.20394 21.3447H14.2212L21.6974 2.80518H16.653Z" fill="#00579F"></path>
  <path d="M7.70219 2.80518H0.0813612L0 3.18059C5.94841 4.72074 9.88991 8.43635 11.5081 12.9124L9.84471 4.36458C9.5735 3.18059 8.74181 2.84368 7.70219 2.80518Z" fill="#FAA61A"></path>
  <defs>
    <linearGradient id="paint0_linear_428_1140" x1="286.814" y1="19.6553" x2="280.592" y2="10.3626" gradientUnits="userSpaceOnUse">
      <stop stop-color="#F89F21"></stop>
      <stop offset="0.25" stop-color="#F79A23"></stop>
      <stop offset="0.53" stop-color="#F78E22"></stop>
      <stop offset="0.62" stop-color="#F68721"></stop>
      <stop offset="0.72" stop-color="#F48220"></stop>
      <stop offset="1" stop-color="#F27623"></stop>
    </linearGradient>
    <linearGradient id="paint1_linear_428_1140" x1="285.908" y1="19.5112" x2="276.736" y2="2.41384" gradientUnits="userSpaceOnUse">
      <stop stop-color="#F68721" stop-opacity="0"></stop>
      <stop offset="0.36" stop-color="#E27027" stop-opacity="0.27"></stop>
      <stop offset="0.7" stop-color="#D4612C" stop-opacity="0.53"></stop>
      <stop offset="0.98" stop-color="#D15D2D" stop-opacity="0.74"></stop>
    </linearGradient>
    <clipPath id="clip0_428_1140">
      <rect width="86.5424" height="23.3737" fill="white" transform="translate(403.458)"></rect>
    </clipPath>
  </defs>
</svg>
