<svg xmlns="http://www.w3.org/2000/svg" xmlns:xlink="http://www.w3.org/1999/xlink" width="1080" zoomAndPan="magnify" viewBox="0 0 810 809.999993" height="1080" preserveAspectRatio="xMidYMid meet" version="1.0"><defs><clipPath id="08d237be8c"><path d="M 405.398438 170 L 786 170 L 786 639 L 405.398438 639 Z M 405.398438 170 " clip-rule="nonzero"/></clipPath></defs><path fill="#ffffff" d="M 403.328125 402.699219 C 402.589844 387.609375 392.542969 374.574219 380.152344 366.699219 C 282.5625 304.292969 184.984375 241.832031 87.359375 179.46875 C 76.082031 172.042969 61.746094 167.527344 48.433594 171.707031 C 32.148438 176.351562 23.671875 194.03125 24.3125 210.027344 C 24.160156 339.707031 24.199219 469.371094 24.085938 599.058594 C 23.898438 613.183594 29.828125 628.824219 43.179688 635.324219 C 57.023438 642.480469 73.738281 638.210938 86.222656 630.1875 C 183.890625 567.988281 281.542969 505.71875 379.1875 443.5 C 393.167969 435.015625 404.554688 419.683594 403.328125 402.699219 Z M 403.328125 402.699219 " fill-opacity="1" fill-rule="nonzero"/><g clip-path="url(#08d237be8c)"><path fill="#ffffff" d="M 785.082031 402.699219 C 784.347656 387.609375 774.296875 374.574219 761.90625 366.699219 C 664.316406 304.292969 566.742188 241.832031 469.113281 179.46875 C 457.835938 172.042969 443.5 167.527344 430.1875 171.707031 C 413.90625 176.351562 405.425781 194.03125 406.066406 210.027344 C 405.914062 339.707031 405.957031 469.371094 405.839844 599.058594 C 405.652344 613.183594 411.582031 628.824219 424.933594 635.324219 C 438.777344 642.480469 455.492188 638.210938 467.976562 630.1875 C 565.644531 567.988281 663.296875 505.71875 760.941406 443.5 C 774.921875 435.015625 786.3125 419.683594 785.082031 402.699219 Z M 785.082031 402.699219 " fill-opacity="1" fill-rule="nonzero"/></g></svg>