<svg xmlns="http://www.w3.org/2000/svg" fill="none" viewBox="0 0 50 50" height="50" width="50">
<path fill="#215732" d="M41.72 27.519C41.484 27.3718 41.1896 27.3606 40.9416 27.4838L29.3 33.3054V28.1998C29.3 27.9222 29.156 27.6654 28.92 27.519C28.684 27.3718 28.3896 27.3606 28.1416 27.4838L16.5 33.3054V18.5998C16.5 18.1582 16.1416 17.7998 15.7 17.7998H9.3C8.8584 17.7998 8.5 18.1582 8.5 18.5998V44.1998C8.5 44.6422 8.8584 44.9998 9.3 44.9998H41.3C41.7424 44.9998 42.1 44.6422 42.1 44.1998V28.1998C42.1 27.9222 41.956 27.6654 41.72 27.519ZM14.9 19.3998V22.5998H10.1V19.3998H14.9ZM40.5 43.3998H10.1V24.1998H14.9V34.5998C14.9 34.8774 15.044 35.1342 15.2792 35.2806C15.5152 35.427 15.8104 35.4398 16.0576 35.3158L27.7 29.4942V34.5998C27.7 34.8774 27.844 35.1342 28.08 35.2806C28.316 35.427 28.6096 35.4382 28.8584 35.3158L40.5 29.4942V43.3998Z"></path>
<path fill="#215732" d="M18.8996 37C18.458 37 18.0996 37.3576 18.0996 37.8V39.4C18.0996 39.8424 18.458 40.2 18.8996 40.2C19.3412 40.2 19.6996 39.8424 19.6996 39.4V37.8C19.6996 37.3576 19.3412 37 18.8996 37Z"></path>
<path fill="#215732" d="M23.7004 37C23.2588 37 22.9004 37.3576 22.9004 37.8V39.4C22.9004 39.8424 23.2588 40.2 23.7004 40.2C24.142 40.2 24.5004 39.8424 24.5004 39.4V37.8C24.5004 37.3576 24.142 37 23.7004 37Z"></path>
<path fill="#215732" d="M31.7004 40.2C32.1428 40.2 32.5004 39.8424 32.5004 39.4V37.8C32.5004 37.3576 32.1428 37 31.7004 37C31.258 37 30.9004 37.3576 30.9004 37.8V39.4C30.9004 39.8424 31.258 40.2 31.7004 40.2Z"></path>
<path fill="#215732" d="M36.5002 40.2C36.9426 40.2 37.3002 39.8424 37.3002 39.4V37.8C37.3002 37.3576 36.9426 37 36.5002 37C36.0578 37 35.7002 37.3576 35.7002 37.8V39.4C35.7002 39.8424 36.0578 40.2 36.5002 40.2Z"></path>
<path fill="#215732" d="M12.5002 13C12.9418 13 13.3002 12.6416 13.3002 12.2C13.3002 9.112 15.8122 6.6 18.9002 6.6C21.9882 6.6 24.5002 9.1128 24.5002 12.2008C24.5002 14.4064 26.2946 16.2008 28.5002 16.2008C30.7058 16.2008 32.5002 14.4064 32.5002 12.2008C32.5002 11.7592 32.1426 11.4008 31.7002 11.4008C31.2578 11.4008 30.9002 11.7592 30.9002 12.2008C30.9002 13.524 29.8234 14.6008 28.5002 14.6008C27.177 14.6008 26.1002 13.524 26.1002 12.2C26.1002 8.2304 22.8698 5 18.9002 5C14.9306 5 11.7002 8.2304 11.7002 12.2C11.7002 12.6416 12.0586 13 12.5002 13Z"></path>
</svg>
