<svg xmlns="http://www.w3.org/2000/svg" fill="none" viewBox="0 0 50 50" height="50" width="50">
<path fill="#215732" d="M40.8761 37.6992L33.781 26.5938C32.2386 24.126 31.3131 21.2468 31.3131 18.2648V11.581H31.9301C33.781 11.581 35.2206 10.1414 35.2206 8.29049C35.2206 6.43959 33.781 5 31.9301 5H18.0483C16.1974 5 14.7578 6.43959 14.7578 8.29049C14.7578 10.1414 16.1974 11.581 18.0483 11.581H18.6653V18.2648C18.6653 21.2468 17.8427 24.126 16.1974 26.5938L9.10232 37.6992C8.17687 39.1388 8.07404 40.9897 8.89666 42.5321C9.71928 44.0746 11.2617 45 13.0098 45H36.8658C38.6139 45 40.1563 44.0746 40.9789 42.5321C41.9044 40.9897 41.9044 39.1388 40.8761 37.6992ZM20.8247 18.2648V11.581H24.0123C24.6293 11.581 25.0406 11.1697 25.0406 10.5527C25.0406 9.93573 24.6293 9.52442 24.0123 9.52442H18.1512C17.4314 9.52442 16.9172 9.01028 16.9172 8.29049C16.9172 7.57069 17.4314 7.05656 18.1512 7.05656H32.0329C32.7527 7.05656 33.2668 7.57069 33.2668 8.29049C33.2668 9.01028 32.6499 9.52442 32.0329 9.52442H28.3311C27.7141 9.52442 27.3028 9.93573 27.3028 10.5527C27.3028 11.1697 27.7141 11.581 28.3311 11.581H29.2566V18.2648C29.2566 21.5553 30.182 24.8458 32.0329 27.6221L32.6499 28.5476C31.3131 29.1645 28.5368 30.09 25.3491 29.1645C22.1614 28.1362 19.2823 28.3419 17.4314 28.6504L18.0483 27.6221C19.7964 24.8458 20.8247 21.6581 20.8247 18.2648ZM39.2309 41.5039C38.7167 42.3265 37.8941 42.8406 36.8658 42.8406H13.1126C12.0843 42.8406 11.2617 42.3265 10.7476 41.5039C10.2334 40.6812 10.3363 39.653 10.8504 38.8303L15.7861 31.2211C16.8144 30.9126 20.4134 29.8843 24.7321 31.2211C25.9661 31.6324 27.0972 31.7352 28.1255 31.7352C30.5933 31.7352 32.6499 30.9126 33.6782 30.3985L39.128 38.8303C39.745 39.653 39.745 40.6812 39.2309 41.5039Z"></path>
</svg>
