<svg xmlns="http://www.w3.org/2000/svg" fill="none" viewBox="0 0 50 50" height="50" width="50">
<path fill="#215732" d="M30.7538 41.0677C24.3622 41.0677 18.5814 35.4848 15.8975 29.3685C14.4695 26.134 13.9275 22.0135 13.4028 18.0306C12.7748 13.2649 12.1812 8.75727 10.2027 6.41742C10.0902 6.2841 10.0209 6.11973 10.004 5.94612C9.98715 5.77252 10.0234 5.59787 10.1081 5.44536C10.1911 5.29455 10.3175 5.17212 10.4708 5.09391C10.6242 5.01569 10.7975 4.98529 10.9683 5.00664C11.8285 5.13567 32.4742 8.28414 38.9432 21.7124C42.2982 28.6459 40.3282 36.216 36.5862 39.2526C36.4071 39.3952 36.1787 39.4608 35.9512 39.435C35.7237 39.4092 35.5158 39.2941 35.3732 39.115C35.2307 38.9359 35.165 38.7075 35.1909 38.48C35.2167 38.2526 35.3318 38.0447 35.5109 37.9021C38.7626 35.2697 40.2938 28.4395 37.4034 22.4178C32.414 12.095 17.9276 8.1637 12.663 7.0368C14.0652 9.81536 14.5727 13.695 15.1146 17.7639C15.6222 21.6264 16.1469 25.6179 17.4717 28.6287C20.1642 34.8396 26.2289 40.4312 32.5431 39.1752C32.7712 39.1307 33.0077 39.1787 33.2005 39.3086C33.3933 39.4384 33.5266 39.6396 33.571 39.8677C33.6155 40.0959 33.5676 40.3323 33.4377 40.5251C33.3078 40.7179 33.1067 40.8512 32.8786 40.8957C32.1774 41.0206 31.4659 41.0782 30.7538 41.0677Z"></path>
<path fill="#215732" d="M37.893 44.999C37.7033 45.0077 37.516 44.9533 37.3604 44.8444C37.2047 44.7355 37.0896 44.5781 37.0328 44.3969C32.4993 30.1685 27.5702 20.9124 21.5485 15.2607C21.466 15.1821 21.3998 15.0882 21.3537 14.9841C21.3075 14.88 21.2824 14.7678 21.2796 14.654C21.2768 14.5401 21.2964 14.4269 21.3374 14.3206C21.3784 14.2144 21.4399 14.1173 21.5184 14.0348C21.5969 13.9524 21.6909 13.8862 21.795 13.84C21.8991 13.7939 22.0112 13.7687 22.1251 13.7659C22.2389 13.7631 22.3522 13.7827 22.4584 13.8237C22.5646 13.8647 22.6618 13.9262 22.7442 14.0047C29.11 19.9489 34.0391 29.1535 38.736 43.8721C38.7708 43.98 38.7839 44.0937 38.7746 44.2066C38.7653 44.3196 38.7337 44.4296 38.6818 44.5303C38.6298 44.631 38.5584 44.7205 38.4718 44.7935C38.3852 44.8666 38.2849 44.9218 38.1769 44.956C38.0851 44.9852 37.9893 44.9998 37.893 44.999Z"></path>
<path fill="#215732" d="M20.0175 13.6782C19.8274 13.6776 19.6429 13.614 19.4927 13.4975C19.2174 13.2824 18.9422 13.0674 18.6325 12.8695C18.4488 12.7338 18.3266 12.5306 18.2927 12.3048C18.2589 12.0789 18.3161 11.8489 18.4518 11.6652C18.5876 11.4815 18.7907 11.3593 19.0166 11.3254C19.2424 11.2916 19.4725 11.3488 19.6562 11.4845L20.5164 12.1383C20.6585 12.2486 20.7624 12.4006 20.8136 12.573C20.8649 12.7454 20.8607 12.9295 20.8019 13.0995C20.743 13.2694 20.6324 13.4166 20.4855 13.5204C20.3386 13.6242 20.1629 13.6794 19.9831 13.6782H20.0175Z"></path>
</svg>
