<svg xmlns="http://www.w3.org/2000/svg" fill="none" viewBox="0 0 193 30" height="30" width="193">
<g clip-path="url(#clip0_2147_599)">
<path fill="#1A5632" d="M47.2387 25.4165C44.7453 25.4165 42.6842 24.0012 41.9143 20.4599C48.3996 20.1165 52.5039 18.3636 52.5039 13.7979C52.5039 9.9546 49.6078 7.69838 44.4433 7.69838C38.4792 7.69838 34.1853 12.951 34.1853 19.2045C34.1853 25.458 37.6856 29.9171 43.8569 29.9171C49.1517 29.9171 51.6511 26.3758 53.1969 23.7051L53.031 23.5807C51.7814 24.5815 49.4479 25.4165 47.2387 25.4165ZM41.6063 18.0379V17.0786C41.6063 13.413 41.8136 9.0308 44.23 9.0308C45.7522 9.0308 46.2497 10.4402 46.3681 12.6253C46.1786 15.9297 44.9704 18.6715 41.7662 19.6664C41.6892 19.1571 41.63 18.6182 41.6063 18.032V18.0379Z"></path>
<path fill="#1A5632" d="M75.9989 23.788V14.5736C75.9989 9.40387 73.2034 7.69838 70.1592 7.69838C67.115 7.69838 64.5446 8.94197 63.1528 11.8792V8.34979H53.3153V8.5156C55.3586 9.6822 55.6074 11.0146 55.6074 14.017V23.788C55.6074 26.7904 55.3586 28.1228 53.3153 29.2894V29.4552H65.4448V29.2894C63.4015 28.1228 63.1528 26.7904 63.1528 23.788V16.3739C63.1528 13.4011 64.4084 12.0509 65.7232 12.0509C67.4763 12.0509 68.4476 13.0932 68.4476 15.5507V29.4552H78.285V29.2894C76.2417 28.1228 75.993 26.7904 75.993 23.788H75.9989Z"></path>
<path fill="#1A5632" d="M89.9229 7.69838C83.7516 7.69838 78.6641 11.9917 78.6641 18.8314C78.6641 25.2921 83.5028 29.9585 89.9229 29.9585C96.343 29.9585 101.182 25.2921 101.182 18.8314C101.182 11.9976 96.0943 7.69838 89.9229 7.69838ZM89.9229 28.6676C87.0031 28.6676 86.5885 24.0012 86.5885 18.8314C86.5885 13.0399 87.3821 8.99526 89.9229 8.99526C92.4637 8.99526 93.2574 13.0399 93.2574 18.8314C93.2574 24.0012 92.8428 28.6676 89.9229 28.6676Z"></path>
<path fill="#1A5632" d="M123.344 18.8906C120.792 23.5274 116.053 27.9155 112.05 27.9155V5.66719C112.05 2.66482 112.34 1.41532 115.011 0.165811V0H101.17V0.165811C103.841 1.41532 104.131 2.66482 104.131 5.66719V23.788C104.131 26.7904 103.841 28.0399 101.17 29.2894V29.4552H124.766C123.119 27.9274 122.864 22.8642 123.344 18.8906Z"></path>
<path fill="#1A5632" d="M176.464 11.5357C176.464 10.2033 177.755 9.20253 179.508 9.20253C181.552 9.20253 184.11 11.6364 186.467 14.5381V8.74655C185.052 8.24911 181.966 7.7043 179.923 7.7043C175.463 7.7043 171.377 10.831 171.377 14.8342C171.377 22.2957 182.049 20.7975 182.049 25.4639C182.049 27.4655 180.509 28.4248 178.715 28.4248C176.547 28.4248 174.048 25.9258 171.584 21.9226H171.377L170.269 28.6676C173.088 29.5263 175.546 29.923 178.507 29.923C183.133 29.923 187.723 27.1694 187.723 22.7102C187.723 15.0829 176.464 15.8291 176.464 11.5357Z"></path>
<path fill="#1A5632" d="M32.0709 24.9368V4.48283C32.0709 2.01935 32.444 1.23174 34.0905 0.0710634V-0.00592041H23.6608L17.4658 17.5227L10.9864 1.42213e-06H0.746249V0.0769852C2.39273 1.23766 2.76586 2.01935 2.76586 4.48875V23.7406C2.76586 26.5417 1.97815 28.2235 0 29.3841V29.4611H7.80007V29.3841C5.48433 28.336 4.62556 26.5417 4.62556 23.4445V5.34742L13.7523 29.396H14.996L24.182 3.73668V24.9368C24.182 27.4003 23.6964 28.2235 22.0499 29.3841V29.4611H34.1557V29.3841C32.5092 28.2235 32.065 27.4062 32.065 24.9368H32.0709Z"></path>
<path fill="#1A5632" d="M144.245 23.788V14.9526C144.245 9.82432 141.159 7.69838 135.237 7.69838C129.901 7.69838 125.731 9.90723 125.731 13.3241C125.731 15.2428 127.271 16.6167 129.148 16.6167C131.026 16.6167 132.607 15.077 132.607 13.1583C132.607 11.7844 131.565 10.1974 129.314 9.78287C130.274 9.48086 131.215 9.34465 132.086 9.37426C134.704 9.46309 136.694 11.0561 136.694 14.2479V17.0016C127.899 18.0853 125.062 21.2949 125.062 24.9664C125.062 28.0932 127.561 29.9704 130.813 29.9704C133.205 29.9704 135.432 28.8275 136.694 26.3403V29.473H146.531V29.3071C144.488 28.1405 144.239 26.8081 144.239 23.8058L144.245 23.788ZM136.7 23.5985C136.7 25.4165 135.308 25.7896 134.532 25.7896C133.241 25.7896 132.572 24.1552 132.572 22.7517C132.572 19.9625 134.615 18.4939 136.7 17.8129V23.5985Z"></path>
<path fill="#1A5632" d="M161.912 7.69838C158.702 7.69838 156.416 9.32096 155.534 11.0324V0H145.53V0.165811C147.574 1.33241 147.822 2.66482 147.822 5.66719V29.4552H155.534V26.6601C156.416 28.3715 158.702 29.9941 161.912 29.9941C167.041 29.9941 169.789 24.6822 169.789 18.5116C169.789 12.3411 167.035 7.69246 161.912 7.69246V7.69838ZM158.282 26.7075C156.718 26.7075 155.534 25.452 155.534 22.5266V15.1777C155.534 12.2523 156.718 10.9968 158.282 10.9968C160.751 10.9968 162.12 13.8749 162.12 18.7485C162.12 23.6222 160.751 26.7134 158.282 26.7134V26.7075Z"></path>
<path fill="#1A5632" d="M192.366 29.2479C191.946 29.6743 191.431 29.8875 190.832 29.8875C190.234 29.8875 189.725 29.6743 189.304 29.2479C188.884 28.8275 188.677 28.3123 188.677 27.7142C188.677 27.1161 188.89 26.6068 189.31 26.1863C189.731 25.7659 190.24 25.5527 190.832 25.5527C191.431 25.5527 191.946 25.7659 192.366 26.1863C192.787 26.6068 193 27.1161 193 27.7142C193 28.3123 192.787 28.8275 192.366 29.2479ZM189.518 26.3995C189.156 26.7608 188.973 27.2049 188.973 27.7201C188.973 28.2353 189.15 28.6794 189.512 29.0466C189.873 29.4137 190.311 29.5973 190.832 29.5973C191.354 29.5973 191.786 29.4137 192.153 29.0466C192.514 28.6794 192.698 28.2412 192.698 27.7201C192.698 27.199 192.514 26.7667 192.153 26.3995C191.792 26.0324 191.348 25.8488 190.832 25.8488C190.317 25.8488 189.879 26.0324 189.518 26.3995ZM190.791 26.518C191.087 26.518 191.3 26.5476 191.442 26.6009C191.685 26.7015 191.81 26.9029 191.81 27.2049C191.81 27.4181 191.733 27.572 191.579 27.6727C191.496 27.726 191.383 27.7615 191.235 27.7852C191.419 27.8148 191.555 27.8918 191.644 28.0162C191.727 28.1405 191.774 28.2649 191.774 28.3833V28.5551C191.774 28.6084 191.774 28.6676 191.774 28.7327C191.774 28.7979 191.786 28.8393 191.798 28.8571L191.81 28.8867H191.419C191.419 28.8867 191.419 28.8689 191.419 28.863C191.419 28.8571 191.419 28.8452 191.419 28.8393L191.407 28.7623V28.5728C191.407 28.3004 191.33 28.1169 191.182 28.028C191.093 27.9747 190.939 27.951 190.714 27.951H190.382V28.8867H189.962V26.512H190.791V26.518ZM191.247 26.897C191.14 26.8377 190.974 26.8081 190.738 26.8081H190.382V27.6668H190.761C190.939 27.6668 191.069 27.649 191.158 27.6135C191.324 27.5484 191.401 27.424 191.401 27.2404C191.401 27.0687 191.348 26.9503 191.241 26.891L191.247 26.897Z"></path>
</g>
<defs>
<clipPath id="clip0_2147_599">
<rect fill="white" height="30" width="193"></rect>
</clipPath>
</defs>
</svg>
