<svg xmlns="http://www.w3.org/2000/svg" fill="none" viewBox="0 0 64 64" height="64" width="64">
<path stroke-linejoin="round" stroke-linecap="round" stroke-miterlimit="10" stroke-width="2.5" stroke="#215732" d="M32.0001 43.7261V62.75"></path>
<path stroke-linejoin="round" stroke-linecap="round" stroke-miterlimit="10" stroke-width="2.5" stroke="#215732" d="M48.7364 21.647L46.9637 22.541C42.2262 24.7727 37.1132 25.8886 32 25.8886C26.8869 25.8886 21.7738 24.7727 17.0364 22.541L15.2637 21.647"></path>
<path stroke-linejoin="round" stroke-linecap="round" stroke-miterlimit="10" stroke-width="2.5" stroke="#215732" d="M10.7554 36.1599C20.9441 36.1599 26.5577 39.7038 29.4666 42.4332C30.9103 43.7878 33.1508 43.809 34.6103 42.4713C37.5934 39.7369 43.2759 36.16 53.2447 36.16"></path>
<path stroke-linejoin="round" stroke-linecap="round" stroke-miterlimit="10" stroke-width="2.5" stroke="#215732" d="M48.6202 1.25L48.4847 1.66237C46.3246 8.23362 44.6351 15.4543 48.5433 21.1895C48.6392 21.3303 48.7366 21.47 48.8356 21.609C53.8712 28.679 54.7823 37.8285 51.2371 45.727L42.8246 62.75"></path>
<path stroke-linejoin="round" stroke-linecap="round" stroke-miterlimit="10" stroke-width="2.5" stroke="#215732" d="M21.1755 62.75L12.763 45.7269C9.2179 37.8284 10.1289 28.6789 15.1645 21.6089C15.2635 21.4699 15.3609 21.3301 15.4568 21.1894C19.365 15.4541 17.6755 8.2335 15.5154 1.66225L15.3799 1.25"></path>
<path stroke-linejoin="round" stroke-linecap="round" stroke-miterlimit="10" stroke-width="2.5" stroke="#215732" d="M25.0281 9.90409C26.0828 7.08584 28.8004 5.07959 31.9866 5.07959C35.3079 5.07959 38.1199 7.25947 39.0701 10.2666"></path>
<path stroke-linejoin="round" stroke-linecap="round" stroke-miterlimit="10" stroke-width="2.5" stroke="#215732" d="M39.7838 8.85571L39.1419 10.4372L37.5604 9.79534"></path>
<path stroke-linejoin="round" stroke-linecap="round" stroke-miterlimit="10" stroke-width="2.5" stroke="#215732" d="M38.9718 15.5725C37.9172 18.3907 35.1996 20.397 32.0133 20.397C28.6921 20.397 25.8801 18.2171 24.9298 15.21"></path>
<path stroke-linejoin="round" stroke-linecap="round" stroke-miterlimit="10" stroke-width="2.5" stroke="#215732" d="M24.2164 16.6212L24.8581 15.0396L26.4396 15.6814"></path>
</svg>
