<svg height="1080" width="1080" xmlns="http://www.w3.org/2000/svg" version="1.1">
<path transform="translate(732,160)" fill="#C74827" d="M0 0 C1.04188477 0.50644043 2.08376953 1.01288086 3.15722656 1.53466797 C17.77719326 8.72514205 31.58620808 16.7603343 45 26 C45.64469238 26.43908691 46.28938477 26.87817383 46.95361328 27.33056641 C61.16871157 37.04352213 74.24960506 48.02728698 86.6953125 59.90625 C88.80767777 61.91604635 90.95970416 63.824842 93.21875 65.66796875 C95.54613 67.61943765 97.44593144 69.48684628 99.375 71.8125 C101.76428041 74.62095241 104.22616624 77.2477562 106.875 79.8125 C111.17112676 84.05934042 114.92179158 88.65756878 118.68701172 93.375 C120.10635011 95.1316226 121.55264658 96.86341956 123.00390625 98.59375 C176.18347048 162.3394887 208.58692731 244.28306858 223 325.5 C223.1249585 326.18126953 223.24991699 326.86253906 223.37866211 327.56445312 C224.17930354 332.50121451 224.37139673 337.39962081 221.984375 341.92578125 C218.25898456 346.11095089 215.5526773 347.6741263 210.0625 348.375 C206.07844491 347.88715652 204.08475814 346.5363567 201 344 C198.20981942 340.11082728 197.30632266 336.59137323 196.45703125 331.91015625 C196.19014616 330.48765788 195.92296188 329.06521561 195.65551758 327.64282227 C195.45051132 326.52437424 195.45051132 326.52437424 195.24136353 325.3833313 C181.20676953 249.43393697 150.52333261 172.18447534 100 113 C99.08943556 111.91570724 98.17930251 110.83105211 97.26953125 109.74609375 C83.5417981 93.34946904 83.5417981 93.34946904 68.01953125 78.7109375 C65.44138267 76.52674199 63.01893631 74.1951523 60.5625 71.875 C9.38450601 24.46637367 -59.71321684 -0.16894688 -128 -8 C-128.99515625 -8.11859375 -129.9903125 -8.2371875 -131.015625 -8.359375 C-231.8347155 -19.92877883 -342.38757769 2.77844571 -423 66 C-429.7924327 71.47704738 -436.39576085 77.15542506 -442.44921875 83.44921875 C-444.11790059 85.11790059 -445.87814932 86.61045188 -447.6875 88.125 C-453.62439879 93.25961517 -458.79077273 99.14488926 -464 105 C-464.45777832 105.51304687 -464.91555664 106.02609375 -465.38720703 106.5546875 C-528.71878848 178.06032681 -557.60781463 276.04289917 -567.25 369.3125 C-567.33024414 370.08811279 -567.41048828 370.86372559 -567.49316406 371.6628418 C-567.95111001 376.46222178 -568.06537079 381.17890439 -568 386 C-567.46632813 385.46109131 -566.93265625 384.92218262 -566.3828125 384.36694336 C-563.92460574 381.88773764 -561.46233634 379.41260401 -559 376.9375 C-558.16082031 376.08994141 -557.32164062 375.24238281 -556.45703125 374.36914062 C-552.08810344 369.98327899 -547.65754185 365.77161269 -542.9609375 361.74047852 C-539.30753955 358.49781492 -535.92144419 354.98376558 -532.5 351.5 C-527.8066805 346.72119198 -523.06008022 342.12844906 -517.98242188 337.75976562 C-514.49728173 334.66605994 -511.26192574 331.32563522 -508 328 C-502.85618137 322.75571616 -497.59568982 317.76228921 -492 313 C-488.00578799 315.90488146 -484.96541962 319.23210729 -481.78125 322.9609375 C-479.31630247 325.78265375 -476.68115555 328.38423849 -474 331 C-475.30642953 333.91912106 -476.64936549 335.85784245 -479.01953125 337.99609375 C-479.62337646 338.54837646 -480.22722168 339.10065918 -480.84936523 339.66967773 C-481.49719971 340.25305908 -482.14503418 340.83644043 -482.8125 341.4375 C-488.50315695 346.644839 -494.0483254 351.95066799 -499.43481445 357.47241211 C-502.15286738 360.23658738 -504.94122347 362.84790245 -507.87890625 365.37890625 C-512.12895108 369.05479827 -516.06700857 372.99019233 -520 377 C-524.52978713 381.61825953 -529.12959484 386.0319728 -534.03125 390.25390625 C-537.33738101 393.18612958 -540.40917665 396.34410669 -543.5 399.5 C-547.21461787 403.29282035 -550.94037034 406.9989289 -554.96484375 410.46484375 C-559.21210989 414.12699052 -563.13706419 418.06091607 -567.0625 422.0625 C-571.86567022 426.9583061 -576.72958655 431.60684652 -582 436 C-585.13993718 434.63880947 -586.93421203 433.20621833 -589.06640625 430.54296875 C-589.6286792 429.84921143 -590.19095215 429.1554541 -590.77026367 428.44067383 C-591.36170166 427.69712646 -591.95313965 426.9535791 -592.5625 426.1875 C-593.8195006 424.63215599 -595.07732139 423.0774745 -596.3359375 421.5234375 C-596.95694336 420.75354492 -597.57794922 419.98365234 -598.21777344 419.19042969 C-600.6596414 416.18927361 -603.16868475 413.24904754 -605.6875 410.3125 C-609.36785307 406.00302675 -612.90392378 401.60439173 -616.375 397.125 C-620.7803688 391.44175004 -625.41913426 386.00768365 -630.16357422 380.60595703 C-634.22926402 375.95274676 -638.06083128 371.15950802 -641.8359375 366.26953125 C-645.24767522 361.88160268 -648.83257709 357.67565063 -652.5 353.5 C-657.21005047 348.13415489 -661.72891365 342.66498026 -666.09082031 337.01245117 C-668.2467565 334.2198976 -670.42670659 331.46773875 -672.71875 328.78515625 C-673.5540625 327.80417969 -674.389375 326.82320313 -675.25 325.8125 C-676.37148438 324.52279297 -676.37148438 324.52279297 -677.515625 323.20703125 C-678.00546875 322.47871094 -678.4953125 321.75039063 -679 321 C-677.7780524 317.3341572 -676.41129653 316.51288118 -673.375 314.1875 C-669.14289822 310.89789215 -665.0444191 307.51688617 -661 304 C-656.64281476 305.58349012 -654.17697105 308.97935383 -651.3125 312.4375 C-650.77995605 313.07002686 -650.24741211 313.70255371 -649.69873047 314.35424805 C-648.12424381 316.229482 -646.56001922 318.11272204 -645 320 C-644.24332031 320.91523438 -643.48664063 321.83046875 -642.70703125 322.7734375 C-641.29054597 324.50085857 -639.87792615 326.23145497 -638.46875 327.96484375 C-635.36670641 331.77859038 -632.24801942 335.57842103 -629.125 339.375 C-628.52276611 340.10734863 -627.92053223 340.83969727 -627.30004883 341.59423828 C-623.6759616 345.99236921 -620.01309877 350.35368318 -616.3125 354.6875 C-611.52062092 360.30556513 -606.94325163 366.07822921 -602.41015625 371.90625 C-600.29456948 374.62188164 -598.15714188 377.31733632 -596 380 C-594.87976621 376.63929863 -594.58508543 373.62668693 -594.23828125 370.09765625 C-594.09147785 368.65381465 -593.94389901 367.21005175 -593.7956543 365.76635742 C-593.67859634 364.61881485 -593.67859634 364.61881485 -593.55917358 363.4480896 C-585.40717082 284.60976127 -563.60721353 206.94122834 -522 139 C-521.5776709 138.30632324 -521.1553418 137.61264648 -520.72021484 136.89794922 C-511.92153718 122.53589804 -501.88882781 108.83934827 -491 96 C-490.22785156 95.04351562 -489.45570313 94.08703125 -488.66015625 93.1015625 C-481.75086017 84.649732 -474.13211765 76.91633229 -466.4375 69.1875 C-465.90697021 68.65179382 -465.37644043 68.11608765 -464.82983398 67.56414795 C-457.89015665 60.57118323 -450.75200583 54.10200748 -443 48 C-441.56356331 46.83883698 -440.12734936 45.67739835 -438.69140625 44.515625 C-378.2030906 -3.61735323 -303.29660065 -27.83301849 -227 -35 C-225.38544922 -35.15662109 -225.38544922 -35.15662109 -223.73828125 -35.31640625 C-147.9484072 -42.40208678 -68.97320119 -33.55667582 0 0 Z"></path>
<path transform="translate(942,577)" fill="#C74827" d="M0 0 C5.19929588 4.62048751 8.66502319 10.26335417 12.4375 16.0625 C17.64357853 23.97466101 22.91170458 31.82548063 28.375 39.5625 C32.65953908 45.63968359 36.87691302 51.74752464 40.9777832 57.94995117 C44.95607967 63.95900986 49.00708594 69.91778377 53.0625 75.875 C53.78260254 76.93291748 54.50270508 77.99083496 55.24462891 79.08081055 C56.73417427 81.26852903 58.22387753 83.45613889 59.71386719 85.64355469 C62.7974343 90.17050772 65.87962333 94.69839787 68.96069336 99.22705078 C70.40379074 101.34810806 71.84728782 103.46889348 73.29125977 105.58935547 C74.59188303 107.50087033 75.88873334 109.41495977 77.18115234 111.33203125 C78.38298955 113.09494091 79.60707853 114.84290703 80.85400391 116.57421875 C81.69390869 117.75951172 81.69390869 117.75951172 82.55078125 118.96875 C83.29775269 119.99645508 83.29775269 119.99645508 84.05981445 121.04492188 C85 123 85 123 84.85327148 125.09521484 C83.82717343 127.38580627 82.88856795 128.14507739 80.796875 129.5078125 C80.14589844 129.93707031 79.49492188 130.36632812 78.82421875 130.80859375 C78.13972656 131.24300781 77.45523438 131.67742187 76.75 132.125 C76.08097656 132.56714844 75.41195312 133.00929688 74.72265625 133.46484375 C71.25340711 135.72087806 67.93649258 137.64206264 64 139 C58.90450023 132.86386999 54.48790293 126.33255999 50.09741211 119.68823242 C45.01923993 112.00586938 39.84782523 104.38910378 34.65991211 96.78051758 C31.24743005 91.77531495 27.83893932 86.76795996 24.4566803 81.74229431 C22.90862494 79.44238053 21.35739134 77.14461857 19.80599976 74.84695435 C18.71177081 73.22350922 17.6220679 71.59701639 16.5324707 69.97045898 C15.86562256 68.98376221 15.19877441 67.99706543 14.51171875 66.98046875 C13.63713013 65.67952271 13.63713013 65.67952271 12.74487305 64.35229492 C11.0000735 62.00009909 9.12225041 60.01283506 7 58 C6.95681641 58.58483154 6.91363281 59.16966309 6.86914062 59.7722168 C6.28518554 66.600875 5.05373137 73.14247227 3.5 79.8125 C3.11013916 81.48844238 3.11013916 81.48844238 2.71240234 83.19824219 C-9.84224294 135.54915474 -31.74064096 185.46448335 -63.52490234 228.97802734 C-65.00337301 231.00462352 -66.46447699 233.04303609 -67.92578125 235.08203125 C-74.51320696 244.16870093 -81.75139788 252.35122725 -89.52294922 260.4375 C-91.37806793 262.39993963 -93.1331879 264.43680572 -94.875 266.5 C-97.67782461 269.76057235 -100.7655699 272.51689286 -104.04296875 275.29296875 C-105.89980925 276.91260807 -107.60397492 278.60123291 -109.3125 280.375 C-113.86947166 284.99355235 -118.93269051 288.9603719 -124 293 C-125.06288769 293.86540948 -126.12537823 294.73130693 -127.1875 295.59765625 C-140.8888525 306.67697123 -155.70322276 316.27592439 -171 325 C-171.84739746 325.48581543 -172.69479492 325.97163086 -173.56787109 326.47216797 C-188.9148125 335.2061341 -204.58386885 342.51136905 -221 349 C-221.89267578 349.35900391 -222.78535156 349.71800781 -223.70507812 350.08789062 C-257.30265104 363.49104138 -292.9849479 370.77455158 -328.6875 375.75 C-329.40122772 375.85132233 -330.11495544 375.95264465 -330.85031128 376.05703735 C-355.03105124 379.44569079 -379.35625793 380.41116269 -403.75 380.375 C-405.02016968 380.37512085 -406.29033936 380.3752417 -407.59899902 380.37536621 C-429.94643838 380.345319 -451.87153251 379.08410697 -474 376 C-475.11439453 375.85046875 -476.22878906 375.7009375 -477.37695312 375.546875 C-515.07635307 370.32360984 -552.70238516 358.31520515 -587 342 C-587.93312012 341.56220215 -588.86624023 341.1244043 -589.82763672 340.67333984 C-630.04726618 321.69889833 -665.58825932 294.60178308 -696.94116211 263.24414062 C-698.55890192 261.6285932 -700.18450636 260.02124966 -701.81054688 258.4140625 C-707.59116497 252.66413893 -712.99246061 246.79444583 -718.08032227 240.40771484 C-720.09819231 237.87684439 -722.20208427 235.44684981 -724.34545898 233.02294922 C-737.44122997 218.16185783 -748.48770981 201.75023328 -759 185 C-759.40524902 184.35675781 -759.81049805 183.71351563 -760.22802734 183.05078125 C-809.72348188 103.99524364 -809.72348188 103.99524364 -806 77 C-804.18831113 73.30694192 -802.60513341 71.42634399 -799.25 69.0625 C-794.13802859 67.39127858 -790.22502544 68.19089984 -785.25 70 C-779.61519146 75.0087187 -777.7429858 84.35923519 -775.3125 91.3125 C-771.72899846 101.35292157 -767.59600764 111.03682813 -763.07617188 120.6875 C-762.06696326 122.85610799 -761.08406443 125.03445657 -760.109375 127.21875 C-742.18985984 166.96052584 -716.24312261 202.60394081 -687.046875 234.73046875 C-685.66667842 236.26080122 -684.30230985 237.8055392 -682.953125 239.36328125 C-679.20245896 243.68817717 -675.36093867 247.56830909 -670.98828125 251.26171875 C-668.94701628 253.04632172 -667.07337125 254.9276747 -665.1875 256.875 C-660.45188488 261.66568042 -655.25912398 265.80198553 -650 270 C-648.85194811 270.93768112 -647.70485124 271.87653244 -646.55859375 272.81640625 C-632.78766903 284.05491733 -618.43073642 294.17360331 -603 303 C-602.32952637 303.38865234 -601.65905273 303.77730469 -600.96826172 304.17773438 C-541.20899412 338.73932243 -474.93709283 353.21640927 -406.375 353.25 C-404.5153511 353.25101212 -404.5153511 353.25101212 -402.61813354 353.25204468 C-381.61012746 353.23395517 -360.85997901 352.52474659 -340 350 C-339.31321167 349.9175 -338.62642334 349.835 -337.91882324 349.75 C-289.93277267 343.90318463 -240.92453786 332.07047469 -198.09375 309.11914062 C-195.67600941 307.8268222 -193.24374797 306.56359043 -190.8125 305.296875 C-159.44099146 288.76238703 -127.75243502 265.50294343 -105 238 C-104.13503906 237.02289062 -103.27007813 236.04578125 -102.37890625 235.0390625 C-81.71834666 211.66470307 -65.48507672 184.8872449 -51.91601562 156.88525391 C-51.04318147 155.08887188 -50.15479472 153.30007136 -49.265625 151.51171875 C-34.32453847 120.70429492 -24.18562402 86.41845144 -18.5078125 52.7109375 C-18 50 -18 50 -17 48 C-17.84820313 48.66644531 -18.69640625 49.33289063 -19.5703125 50.01953125 C-34.5546875 61.79296875 -34.5546875 61.79296875 -36.28027344 63.14868164 C-37.43730973 64.05785198 -38.59420836 64.96719756 -39.75097656 65.87670898 C-42.64072733 68.14843218 -45.5326535 70.41725764 -48.4296875 72.6796875 C-54.6938746 77.57733698 -60.90374573 82.53274043 -67.0625 87.5625 C-73.41154556 92.74432426 -79.84402718 97.79239544 -86.36621094 102.75439453 C-89.35636669 105.03409786 -92.33341776 107.33085798 -95.3125 109.625 C-96.41270839 110.4714218 -97.51296372 111.31778259 -98.61328125 112.1640625 C-99.40089844 112.76992188 -100.18851563 113.37578125 -101 114 C-104.6150872 110.46943822 -107.99806281 106.80769471 -111.25 102.9375 C-111.91902344 102.1630957 -111.91902344 102.1630957 -112.6015625 101.37304688 C-114.86221928 98.6842354 -116.55801997 96.54433984 -117 93 C-111.62405314 88.02690187 -106.05085424 83.42254059 -100.21972656 78.99243164 C-95.94946952 75.74436278 -91.74417678 72.42373147 -87.5625 69.0625 C-82.70673893 65.16256307 -77.83749525 61.28175213 -72.9375 57.4375 C-72.07499634 56.76062134 -72.07499634 56.76062134 -71.19506836 56.07006836 C-68.3238633 53.81835634 -65.44992789 51.57017465 -62.57421875 49.32421875 C-56.30926286 44.42461079 -50.09759661 39.4684906 -43.9375 34.4375 C-38.10855557 29.67900734 -32.20839139 25.03695497 -26.2265625 20.47265625 C-22.7082654 17.78570046 -19.22775137 15.05162632 -15.75 12.3125 C-10.51450025 8.18950785 -5.26705753 4.08266629 0 0 Z"></path>
<path transform="translate(493,284)" fill="#C74827" d="M0 0 C0.93972656 0.74765625 1.87945312 1.4953125 2.84765625 2.265625 C29.20493964 24.65634113 36.86411135 58.47300982 39.59765625 91.4921875 C40.20843312 100.96576837 40.19859784 110.44802199 40.1875 119.9375 C40.18689575 120.89120483 40.1862915 121.84490967 40.18566895 122.82751465 C40.16135462 136.96362694 39.9672985 150.97765226 38 165 C37.87109375 165.93038086 37.7421875 166.86076172 37.609375 167.81933594 C33.76281806 194.46920846 26.77420905 221.07899519 9 242 C8.50242187 242.64582031 8.00484375 243.29164063 7.4921875 243.95703125 C-5.613561 260.54516435 -27.94156275 271.18776052 -48.56835938 273.77294922 C-73.30032957 276.08225969 -97.65595634 272.64777206 -117.62109375 256.9375 C-132.50352752 244.25232053 -140.64182936 227.00182268 -144 208 C-144.02439397 206.00014877 -144.02829988 203.99979977 -144 202 C-139.83423084 201.49233064 -135.66726208 200.99525277 -131.5 200.5 C-130.32695312 200.35691406 -129.15390625 200.21382812 -127.9453125 200.06640625 C-121.91808019 199.35532828 -116.06907438 198.81973046 -110 199 C-109.608125 200.216875 -109.21625 201.43375 -108.8125 202.6875 C-103.96929527 217.05869159 -99.29513326 230.87651483 -85.21875 238.5078125 C-71.8167852 244.81250024 -56.19725291 244.961595 -42.15625 240.3359375 C-36.99488013 238.15129827 -32.50615836 235.30956505 -28 232 C-26.948125 231.2575 -25.89625 230.515 -24.8125 229.75 C-5.68051383 211.04316908 2.25169723 178.63912585 3.07568359 152.60913086 C3.0973479 150.21763208 3.08808738 147.82893581 3.0625 145.4375 C3.05573242 144.21063477 3.05573242 144.21063477 3.04882812 142.95898438 C3.03721198 140.97262353 3.01928448 138.9863012 3 137 C2.36384766 137.85271484 2.36384766 137.85271484 1.71484375 138.72265625 C-12.15408531 156.98087275 -30.18259446 167.55014232 -52.75 171.6875 C-74.39373539 173.79361918 -97.19359863 169.60554326 -114.56005859 155.75585938 C-135.54617323 137.99987759 -147.15887721 115.92901604 -149.75 88.5625 C-149.85365458 86.70935829 -149.93825578 84.85501108 -150 83 C-150.03996094 82.16082031 -150.07992188 81.32164062 -150.12109375 80.45703125 C-150.8432809 52.37669574 -142.22256542 25.76530743 -123 5 C-89.73371618 -26.7237977 -35.7151138 -28.88223585 0 0 Z M-97.2890625 30.671875 C-110.43193537 48.097257 -115.01733787 68.62021792 -112.10375977 90.12719727 C-109.54691492 106.03449482 -102.21310595 118.59993262 -90 129 C-77.19884622 137.97845089 -62.65233759 142.10451054 -47.0234375 139.6953125 C-38.16782244 138.04540703 -30.29092451 135.45177238 -23 130 C-22.29488281 129.47535156 -21.58976562 128.95070313 -20.86328125 128.41015625 C-8.1346403 118.10601834 -2.30458517 103.02465398 -0.22705078 87.15917969 C1.89117038 67.01557971 -1.34699214 46.34064919 -14 30 C-16.33333333 27.33333333 -16.33333333 27.33333333 -19 25 C-19.55042969 24.45730469 -20.10085938 23.91460937 -20.66796875 23.35546875 C-30.88385554 13.68723775 -43.22567491 9.42091979 -57.15234375 9.75390625 C-72.74550991 11.10146382 -87.13362741 18.8180907 -97.2890625 30.671875 Z"></path>
<path transform="translate(714.03125,281.47265625)" fill="#C74827" d="M0 0 C26.71323421 23.00001879 36.82260567 59.81558276 39.59765625 93.7890625 C42.76704746 136.59187785 44.99607069 188.51844242 23.96875 227.52734375 C23.07349609 229.21730469 23.07349609 229.21730469 22.16015625 230.94140625 C13.89813888 246.16252925 3.22618606 259.01305426 -12.03125 267.52734375 C-12.86011719 267.99011719 -13.68898438 268.45289063 -14.54296875 268.9296875 C-34.126586 278.79647169 -60.21805566 279.85960045 -81.03125 273.52734375 C-85.15825667 272.08561633 -89.09433881 270.42437498 -93.03125 268.52734375 C-93.78535156 268.181875 -94.53945313 267.83640625 -95.31640625 267.48046875 C-113.6039512 258.3201014 -125.03827863 241.72401467 -133.03125 223.52734375 C-133.30952637 222.90021484 -133.58780273 222.27308594 -133.87451172 221.62695312 C-156.58658379 169.26719736 -154.13684408 93.05632452 -134.74609375 40.01171875 C-125.90504015 17.83801518 -111.45587679 -0.39548681 -89.8359375 -11.046875 C-60.9848329 -23.08624571 -24.43098035 -19.92887959 0 0 Z M-91.03125 30.52734375 C-99.1299084 42.36159953 -103.29934905 55.26689906 -106.21875 69.21484375 C-106.37375977 69.94268066 -106.52876953 70.67051758 -106.68847656 71.42041016 C-110.16797576 89.3220166 -110.37714035 107.44143307 -110.34692383 125.61499023 C-110.34377434 129.55936638 -110.36727693 133.50298203 -110.39257812 137.44726562 C-110.47179044 169.07506614 -110.43802727 208.14528409 -87.03125 232.52734375 C-75.82916402 243.113315 -64.41264871 247.10041423 -49.171875 246.796875 C-36.10522022 246.18905398 -26.14967636 239.02586867 -17.28125 229.90234375 C4.15087561 204.8662471 3.33626734 165.45425425 3.28442383 134.41918945 C3.28127394 130.4946687 3.30478458 126.57091218 3.33007812 122.64648438 C3.66977776 73.59921401 3.66977776 73.59921401 -17.03125 30.52734375 C-17.6396875 29.71652344 -18.248125 28.90570313 -18.875 28.0703125 C-27.09064864 18.38120514 -38.75703456 13.63978121 -51.125 12.15625 C-66.73429604 11.47847794 -81.27936262 18.55833099 -91.03125 30.52734375 Z"></path>
<path transform="translate(306,644)" fill="#C74827" d="M0 0 C80.28497409 0 80.28497409 0 99 18 C109.80879588 30.64818746 116.31131514 46.29939212 117 63 C117.0515625 63.93585937 117.103125 64.87171875 117.15625 65.8359375 C117.75538651 86.05679462 112.08087681 104.96726232 98.87109375 120.50390625 C88.11670064 131.87393546 75.26453064 137.45591156 60 140 C40.2 140 20.4 140 0 140 C0 93.8 0 47.6 0 0 Z M20 16 C20 51.64 20 87.28 20 124 C54.00096586 125.95837603 54.00096586 125.95837603 81.7421875 111.421875 C92.67017465 99.69981266 96.40327481 85.36949643 96.3125 69.6875 C96.30686035 68.67002686 96.3012207 67.65255371 96.29541016 66.60424805 C96.17852455 59.37643564 95.66071695 52.7883691 93 46 C92.60941406 45.00097656 92.21882813 44.00195312 91.81640625 42.97265625 C86.83675957 31.78608454 79.1810546 24.49756077 68.25 19.15625 C52.3428781 13.49698548 37.37409469 16 20 16 Z"></path>
<path transform="translate(724.375,641.5625)" fill="#C74827" d="M0 0 C1.09908691 0.00829834 2.19817383 0.01659668 3.33056641 0.02514648 C16.77077027 0.30502623 29.06095427 3.60582509 38.72265625 13.609375 C45.03509566 21.38265495 47.98701415 28.60958489 49.625 38.4375 C43.025 38.4375 36.425 38.4375 29.625 38.4375 C28.67625 36.25125 27.7275 34.065 26.75 31.8125 C23.48245598 24.95325398 19.89575534 21.18593312 12.625 18.4375 C3.60207331 15.34685466 -6.7629471 15.54489432 -15.5 19.4375 C-16.79320301 20.10118155 -18.08509976 20.76742195 -19.375 21.4375 C-20.365 21.7675 -21.355 22.0975 -22.375 22.4375 C-25.42379894 27.99707454 -27.09722183 35.51023572 -25.75 41.75 C-23.51227486 47.75117196 -20.87846137 50.71256371 -15 53.4140625 C-7.30476131 56.41428949 0.7024822 58.6284393 8.65234375 60.84375 C23.75965748 65.10386927 40.8557663 70.65010753 49.125 85.25 C53.53142573 95.79618481 53.85094859 107.97873272 49.9375 118.6875 C44.67903284 130.44837279 36.5449384 136.53243601 24.84765625 141.359375 C17.55478075 143.79917335 10.68090921 144.80283644 3 144.75 C2.13117187 144.74436035 1.26234375 144.7387207 0.3671875 144.73291016 C-13.48964696 144.47564172 -27.55225025 141.76483468 -38.375 132.4375 C-38.375 131.7775 -38.375 131.1175 -38.375 130.4375 C-39.365 130.1075 -40.355 129.7775 -41.375 129.4375 C-48.18342509 121.90242166 -52.375 112.6074175 -52.375 102.4375 C-46.105 102.4375 -39.835 102.4375 -33.375 102.4375 C-30.1875 109.125 -30.1875 109.125 -29.21801758 111.2019043 C-26.62845825 116.50002138 -23.2330747 120.70213633 -18 123.625 C-17.47664062 123.92792969 -16.95328125 124.23085938 -16.4140625 124.54296875 C-6.22700583 129.01200319 7.45809293 129.29748099 18 125.75 C24.49439523 122.88482563 27.85658052 118.91776683 30.625 112.4375 C31.09559665 108.98692587 31.09559665 108.98692587 31 105.4375 C31.00773438 104.261875 31.01546875 103.08625 31.0234375 101.875 C30.3132719 95.74808107 27.64334195 91.68345725 22.921875 87.9375 C14.60603614 82.50674809 5.25053528 79.9661796 -4.25 77.5 C-18.90238556 73.66464398 -34.32682113 69.28841724 -43.0546875 55.8515625 C-47.91064241 46.71578293 -48.70473686 36.77822374 -46.1875 26.76171875 C-42.84472934 17.19946615 -36.40954265 10.00000173 -27.5625 5.1875 C-18.54762343 1.19979459 -9.80474644 -0.09565239 0 0 Z"></path>
<path transform="translate(484,644)" fill="#C74827" d="M0 0 C7.92 0 15.84 0 24 0 C26.64530248 5.95193058 29.14968812 11.82911707 31.4140625 17.91796875 C31.7374762 18.7809256 32.06088989 19.64388245 32.394104 20.5329895 C33.47388838 23.41678066 34.54951812 26.30210176 35.625 29.1875 C36.39584423 31.24964987 37.16684499 33.31174124 37.93798828 35.3737793 C40.63107877 42.5803779 43.31638398 49.78986937 46 57 C46.395858 58.06351433 46.395858 58.06351433 46.79971313 59.14851379 C51.16183266 70.86847099 55.51986415 82.58994597 59.875 94.3125 C60.16262459 95.08668148 60.45024918 95.86086296 60.74658966 96.65850449 C62.42249228 101.16975626 64.09779663 105.6812296 65.77233124 110.19298935 C66.28479553 111.57364946 66.79736974 112.95426878 67.31006622 114.33484268 C68.46115064 117.43472079 69.61043056 120.53523526 70.7567749 123.63687134 C71.57641201 125.85412472 72.39945534 128.07012234 73.22613525 130.28475952 C73.59382019 131.27771027 73.96150513 132.27066101 74.34033203 133.29370117 C74.66244659 134.15879807 74.98456116 135.02389496 75.31643677 135.91520691 C76 138 76 138 76 140 C69.07 140 62.14 140 55 140 C50.05 126.47 45.1 112.94 40 99 C21.85 98.67 3.7 98.34 -15 98 C-15.99 101.3 -16.98 104.6 -18 108 C-18.86859557 110.58083802 -19.75570686 113.15554246 -20.6640625 115.72265625 C-20.90160248 116.39421249 -21.13914246 117.06576874 -21.38388062 117.75767517 C-21.87841266 119.1535751 -22.37415295 120.54904757 -22.87109375 121.9440918 C-23.63417997 124.08829489 -24.39149395 126.23448114 -25.1484375 128.38085938 C-25.632471 129.7449129 -26.11683352 131.10884972 -26.6015625 132.47265625 C-27.03807129 133.70250244 -27.47458008 134.93234863 -27.92431641 136.19946289 C-29 139 -29 139 -30 140 C-31.41570123 140.08651611 -32.835595 140.10704904 -34.25390625 140.09765625 C-35.10791016 140.09443359 -35.96191406 140.09121094 -36.84179688 140.08789062 C-37.73962891 140.07951172 -38.63746094 140.07113281 -39.5625 140.0625 C-40.46419922 140.05798828 -41.36589844 140.05347656 -42.29492188 140.04882812 C-44.53001314 140.03700225 -46.76497437 140.0205222 -49 140 C-48.3805272 136.58806406 -47.53443994 133.41034513 -46.38037109 130.1418457 C-46.04788864 129.19504944 -45.71540619 128.24825317 -45.37284851 127.27276611 C-45.01004288 126.25076111 -44.64723724 125.2287561 -44.2734375 124.17578125 C-43.89391434 123.09842712 -43.51439117 122.021073 -43.12336731 120.91107178 C-41.87731435 117.37700301 -40.62628096 113.84472078 -39.375 110.3125 C-38.50671789 107.85415571 -37.63863702 105.39574034 -36.77075195 102.93725586 C-29.23492936 81.60539193 -21.63899306 60.29511123 -14 39 C-13.33300421 37.14013801 -12.66601211 35.2802747 -11.99902344 33.42041016 C-8.00300775 22.27895785 -4.0028809 11.13898752 0 0 Z M11 18 C8.26018372 26.19632337 5.52196822 34.39317921 2.78582001 42.59072781 C1.51539653 46.39676987 0.24441317 50.20262309 -1.02783203 54.00805664 C-2.25458606 57.67748828 -3.4798925 61.34740032 -4.70417786 65.01765633 C-5.17255145 66.42092316 -5.64145484 67.82401327 -6.11088562 69.2269268 C-6.76606396 71.18524932 -7.41939034 73.14418018 -8.07226562 75.10327148 C-8.44532837 76.22023911 -8.81839111 77.33720673 -9.20275879 78.48802185 C-10.05041767 80.71961526 -10.05041767 80.71961526 -10 82 C4.85 82 19.7 82 35 82 C32.99923141 75.33077136 30.93043071 68.79225173 28.56640625 62.2578125 C28.24719711 61.36818817 27.92798798 60.47856384 27.59910583 59.5619812 C26.58935224 56.74876696 25.57619018 53.9367979 24.5625 51.125 C23.2287263 47.41989515 21.89661492 43.71419878 20.56640625 40.0078125 C20.25063629 39.12812805 19.93486633 38.2484436 19.60952759 37.34210205 C17.31314835 30.92422512 15.09877955 24.48560734 13 18 C12.34 18 11.68 18 11 18 Z"></path>
<path transform="translate(545,644)" fill="#C74827" d="M0 0 C7.59 0 15.18 0 23 0 C23.78761719 1.46566406 24.57523438 2.93132813 25.38671875 4.44140625 C31.03862098 14.9320378 36.74014226 25.38795814 42.625 35.75 C46.88391625 43.25448186 51.1285953 50.76586914 55.3125 58.3125 C55.78703613 59.16102539 56.26157227 60.00955078 56.75048828 60.88378906 C57.17958496 61.66077148 57.60868164 62.43775391 58.05078125 63.23828125 C58.42887939 63.91930908 58.80697754 64.60033691 59.1965332 65.30200195 C60 67 60 67 60 69 C60.66 69 61.32 69 62 69 C62.21269531 68.22140625 62.42539062 67.4428125 62.64453125 66.640625 C64.48476573 61.69797793 67.05842593 57.31190805 69.6875 52.75 C70.25621826 51.75363525 70.82493652 50.75727051 71.41088867 49.73071289 C73.26736407 46.48332876 75.13259569 43.24111063 77 40 C77.64356445 38.88157715 78.28712891 37.7631543 78.95019531 36.61083984 C82.15657223 31.04073652 85.36865769 25.47396865 88.5859375 19.91015625 C92.41484389 13.28709751 96.2127751 6.64696614 100 0 C106.93 0 113.86 0 121 0 C119.40619806 3.98450484 117.77223399 7.28649165 115.61328125 10.953125 C115.11297897 11.80564346 115.11297897 11.80564346 114.60256958 12.67538452 C113.50941201 14.53569451 112.41110142 16.3929005 111.3125 18.25 C110.54221674 19.55767255 109.77211832 20.865454 109.00219727 22.17333984 C104.78349692 29.33121901 100.54074358 36.47467397 96.25317383 43.59155273 C95.03029925 45.63460996 93.82203527 47.68647532 92.62768555 49.74633789 C89.547792 55.01421943 86.36568314 59.89884733 82.54296875 64.66015625 C65.74162541 86.86566571 69.04733939 113.38719643 70 140 C63.4 140 56.8 140 50 140 C50.05349609 138.47528076 50.10699219 136.95056152 50.16210938 135.37963867 C52.12588456 95.58717828 52.12588456 95.58717828 35.25048828 60.984375 C31.61009879 56.15685047 28.77221785 50.89678395 25.86706543 45.61001587 C24.24706031 42.67474082 22.58064316 39.76679436 20.91796875 36.85546875 C20.27263184 35.72286621 19.62729492 34.59026367 18.96240234 33.42333984 C15.165405 26.79961544 11.30153693 20.21475786 7.42724609 13.63598633 C6.88793457 12.71712646 6.34862305 11.7982666 5.79296875 10.8515625 C5.3239917 10.05572754 4.85501465 9.25989258 4.37182617 8.43994141 C2.81906235 5.6781828 1.41692527 2.83385054 0 0 Z"></path>
</svg>
