<svg xmlns="http://www.w3.org/2000/svg" fill="none" viewBox="0 0 160 33" height="33" width="160">
<path fill="white" d="M4.52725 17.9937C3.61143 17.4506 2.78201 16.7263 2.09947 15.821C2.00011 15.696 1.93531 15.5494 1.8446 15.4201C1.43421 15.6745 1.02382 15.946 0.643664 16.2564C0.41903 16.4418 0.203035 16.6444 0 16.8427C0.790541 19.9681 3.29608 22.4728 6.61376 23.1237C6.61376 23.1022 6.61376 23.0935 6.6224 23.0763C7.11919 21.0803 6.28977 19.0456 4.52293 17.9937H4.52725Z"></path>
<path fill="white" d="M3.99158 10.2901C3.73671 9.26845 3.66759 8.17779 3.82743 7.06558C3.84903 6.90176 3.89655 6.75519 3.93543 6.6C3.46888 6.48361 2.98937 6.39739 2.49258 6.34566C2.19883 6.31548 1.90507 6.30686 1.62428 6.30686C-0.0475188 9.07446 -0.0388792 12.618 1.83596 15.4244C1.8446 15.4244 1.8662 15.4029 1.87483 15.4029C3.65031 14.3338 4.48837 12.2947 3.98294 10.2901H3.99158Z"></path>
<path fill="white" d="M9.06314 4.51783C9.60745 3.60392 10.3332 2.77622 11.2404 2.0951C11.3656 1.99595 11.5125 1.93129 11.6421 1.84076C11.3872 1.43122 11.1151 1.02169 10.8041 0.642325C10.6183 0.418158 10.4153 0.202613 10.2166 0C7.08463 0.788896 4.57477 3.28922 3.92247 6.6C3.94406 6.6 3.9527 6.6 3.96998 6.60862C5.9701 7.10438 8.00909 6.27668 9.06314 4.51352V4.51783Z"></path>
<path fill="white" d="M16.7914 3.98328C17.8153 3.72894 18.9082 3.65996 20.0227 3.81946C20.1869 3.84102 20.3337 3.88844 20.4893 3.92724C20.6059 3.46166 20.6923 2.98315 20.7441 2.48739C20.7744 2.19425 20.783 1.90111 20.783 1.6209C18.001 -0.0474199 14.4501 -0.0387982 11.6421 1.83214C11.6421 1.84076 11.6637 1.86231 11.6637 1.87093C12.7351 3.64272 14.7784 4.47903 16.7871 3.97466L16.7958 3.98328H16.7914Z"></path>
<path fill="white" d="M22.5671 9.04428C23.483 9.58746 24.3124 10.3117 24.9949 11.217C25.0943 11.342 25.1591 11.4886 25.2498 11.6179C25.6602 11.3636 26.0706 11.092 26.4507 10.7816C26.6754 10.5962 26.8914 10.3936 27.0944 10.1953C26.3038 7.06989 23.7983 4.56525 20.4806 3.9143C20.4806 3.93586 20.4806 3.94448 20.472 3.96172C19.9752 5.95767 20.8046 7.99242 22.5715 9.04428H22.5671Z"></path>
<path fill="white" d="M25.2239 11.6438C23.4484 12.7129 22.6103 14.7519 23.1158 16.7565C23.3706 17.7782 23.4398 18.8688 23.2799 19.9811C23.2583 20.1449 23.2108 20.2914 23.1719 20.4466C23.6385 20.563 24.118 20.6492 24.6148 20.701C24.9085 20.7312 25.2023 20.7398 25.4831 20.7398C27.1419 17.9765 27.1333 14.4286 25.2584 11.6351C25.2498 11.6351 25.2282 11.6567 25.2196 11.6567V11.6481L25.2239 11.6438Z"></path>
<path fill="white" d="M18.0399 22.5202C17.4956 23.4341 16.7698 24.2618 15.8627 24.9429C15.7374 25.0421 15.5905 25.1067 15.4609 25.1973C15.7158 25.6068 15.9879 26.0163 16.299 26.3957C16.4847 26.6199 16.6878 26.8354 16.8865 27.038C20.0184 26.2491 22.5283 23.7488 23.1806 20.438H23.133C21.1329 19.9336 19.0939 20.7613 18.0399 22.5202Z"></path>
<path fill="white" d="M10.3116 23.0677C9.28778 23.322 8.19484 23.391 7.08031 23.2315C6.92479 23.2099 6.76928 23.1625 6.61376 23.1237C6.49712 23.5893 6.41073 24.0678 6.35889 24.5636C6.32865 24.8567 6.32001 25.1498 6.32001 25.43C9.08906 27.0854 12.6443 27.0768 15.4436 25.2059C15.4436 25.1973 15.422 25.1757 15.4134 25.1671C14.3421 23.3953 12.2987 22.559 10.29 23.0634H10.3116V23.0677Z"></path>
<path fill="white" d="M157.231 23.0763V23.8479H157.983C158.242 23.8479 158.372 23.6626 158.372 23.4513C158.372 23.2315 158.221 23.0763 157.983 23.0763H157.231ZM157.231 25.1283H156.812V22.7012H158C158.462 22.7012 158.782 22.9814 158.782 23.3867C158.782 23.6841 158.57 23.9298 158.246 24.0161C158.406 24.0462 158.523 24.1454 158.579 24.292L158.89 25.1283H158.445L158.164 24.3609C158.13 24.2618 158.048 24.2101 157.94 24.2101H157.227V25.124L157.231 25.1283Z"></path>
<path fill="white" d="M157.732 26.0594C158.925 26.0594 159.888 25.0981 159.888 23.9083C159.888 22.7185 158.925 21.7572 157.732 21.7572C156.54 21.7572 155.577 22.7185 155.577 23.9083C155.577 25.0981 156.54 26.0594 157.732 26.0594ZM157.732 25.9905C158.886 25.9905 159.819 25.0593 159.819 23.9083C159.819 22.7573 158.886 21.8261 157.732 21.8261C156.579 21.8261 155.646 22.7573 155.646 23.9083C155.646 25.0593 156.579 25.9905 157.732 25.9905Z" clip-rule="evenodd" fill-rule="evenodd"></path>
<path fill="white" d="M157.732 26.0163C156.566 26.0163 155.62 25.0722 155.62 23.9083H155.534C155.534 25.1197 156.518 26.1025 157.732 26.1025V26.0163ZM155.62 23.9083C155.62 22.7443 156.566 21.8003 157.732 21.8003V21.714C156.518 21.714 155.534 22.6969 155.534 23.9083H155.62ZM157.732 21.8003C158.899 21.8003 159.845 22.7443 159.845 23.9083H159.931C159.931 22.6969 158.946 21.714 157.732 21.714V21.8003ZM159.845 23.9083C159.845 25.0722 158.899 26.0163 157.732 26.0163V26.1025C158.946 26.1025 159.931 25.1197 159.931 23.9083H159.845ZM157.732 25.9474C156.605 25.9474 155.689 25.0334 155.689 23.9083H155.603C155.603 25.0809 156.557 26.0336 157.732 26.0336V25.9474ZM155.689 23.9083C155.689 22.7831 156.605 21.8692 157.732 21.8692V21.783C156.557 21.783 155.603 22.7357 155.603 23.9083H155.689ZM157.732 21.8692C158.86 21.8692 159.776 22.7831 159.776 23.9083H159.862C159.862 22.7357 158.907 21.783 157.732 21.783V21.8692ZM159.776 23.9083C159.776 25.0334 158.86 25.9474 157.732 25.9474V26.0336C158.907 26.0336 159.862 25.0809 159.862 23.9083H159.776Z"></path>
<path fill="white" d="M138.176 9.47538H141.101V12.8077C141.559 11.6395 142.28 10.7126 143.269 10.0272C144.254 9.31587 145.334 8.96238 146.505 8.96238C148.203 8.96238 149.533 9.48831 150.497 10.5402C151.481 11.5705 151.978 13.0448 151.978 14.9718V25.6154H149.019V15.3813C149.019 13.8251 148.665 12.6568 147.952 11.8809C147.265 11.079 146.336 10.6781 145.166 10.6781C143.995 10.6781 142.997 11.1265 142.241 12.0188C141.507 12.8896 141.14 14.0234 141.14 15.4201V25.6197H138.181V9.47538H138.176Z"></path>
<path fill="white" d="M133.113 16.0668C133.135 15.8857 133.148 15.6098 133.148 15.2434C133.148 13.6871 132.759 12.3378 131.977 11.1911C131.221 10.0444 130.037 9.47538 128.435 9.47538C127.173 9.47538 126.093 10.0487 125.199 11.1911C124.327 12.3378 123.856 13.963 123.787 16.0668H133.113ZM128.366 26.1284C126.988 26.1284 125.739 25.8094 124.616 25.1671C123.493 24.5248 122.586 23.5548 121.899 22.2486C121.234 20.9424 120.901 19.3301 120.901 17.4074C120.901 15.8728 121.212 14.4674 121.83 13.1828C122.447 11.9024 123.333 10.8807 124.478 10.1263C125.648 9.34605 126.988 8.95807 128.504 8.95807C130.867 8.95807 132.712 9.65643 134.042 11.0532C135.373 12.4283 135.99 14.2691 135.9 16.5798H123.787C123.808 19.2568 124.361 21.1795 125.437 22.3477C126.517 23.516 127.834 24.098 129.394 24.098C131.826 24.098 133.683 22.9858 134.967 20.7656V21.076C134.578 22.4253 133.809 23.6065 132.66 24.611C131.511 25.6197 130.081 26.1198 128.357 26.1198L128.366 26.1284Z"></path>
<path fill="white" d="M116.931 16.0668C116.953 15.8857 116.965 15.6098 116.965 15.2434C116.965 13.6871 116.577 12.3378 115.795 11.1911C115.039 10.0444 113.855 9.47538 112.252 9.47538C110.991 9.47538 109.911 10.0487 109.017 11.1911C108.144 12.3378 107.673 13.963 107.604 16.0668H116.931ZM112.183 26.1284C110.805 26.1284 109.557 25.8094 108.434 25.1671C107.311 24.5248 106.403 23.5548 105.716 22.2486C105.051 20.9424 104.719 19.3301 104.719 17.4074C104.719 15.8728 105.03 14.4674 105.647 13.1828C106.265 11.9024 107.151 10.8807 108.295 10.1263C109.466 9.34605 110.805 8.95807 112.322 8.95807C114.685 8.95807 116.529 9.65643 117.86 11.0532C119.19 12.4283 119.808 14.2691 119.717 16.5798H107.604C107.626 19.2568 108.179 21.1795 109.254 22.3477C110.334 23.516 111.652 24.098 113.212 24.098C115.644 24.098 117.501 22.9858 118.784 20.7656V21.076C118.395 22.4253 117.626 23.6065 116.477 24.611C115.328 25.6197 113.898 26.1198 112.175 26.1198L112.183 26.1284Z"></path>
<path fill="white" d="M89.1238 9.47969H92.1866L98.0012 23.5591C99.6514 18.4334 100.8 13.7389 101.444 9.47969H104.541L97.6944 25.6197H95.906L89.1281 9.47969H89.1238Z"></path>
<path fill="white" d="M78.9202 26.1327C77.2225 26.1327 75.8919 25.6197 74.9286 24.5894C73.9869 23.5376 73.516 22.0503 73.516 20.1276V9.484H76.4751V19.7181C76.4751 21.2959 76.7861 22.4771 77.4039 23.253C78.0476 24.0333 78.9418 24.4213 80.0865 24.4213C81.3004 24.4213 82.3113 23.9859 83.1148 23.1151C83.9399 22.2227 84.3546 21.076 84.3546 19.6793V9.47969H87.3137V25.6197H84.4237V22.2184C83.9658 23.4082 83.2314 24.3609 82.2206 25.0679C81.2097 25.7749 80.1081 26.1327 78.9159 26.1327H78.9202Z"></path>
<path fill="white" d="M65.8482 33C64.0122 33 62.889 32.1206 62.4743 30.3574V30.0125C63.0489 30.9049 63.8178 31.3532 64.7812 31.3532C65.4248 31.3532 65.9605 31.1248 66.3968 30.6678C66.8547 30.2324 67.0837 29.5211 67.0837 28.5382V9.47969H70.0428V28.1588C70.0428 29.6461 69.6756 30.8273 68.9412 31.6938C68.2284 32.5646 67.196 33 65.8438 33H65.8482Z"></path>
<path fill="white" d="M62.0251 16.0668C62.0467 15.8857 62.0596 15.6098 62.0596 15.2434C62.0596 13.6871 61.6708 12.3378 60.8889 11.1911C60.1329 10.0444 58.9493 9.47538 57.3466 9.47538C56.0852 9.47538 55.0052 10.0487 54.111 11.1911C53.2384 12.3378 52.7675 13.963 52.6984 16.0668H62.0251ZM57.2732 26.1284C55.8951 26.1284 54.6467 25.8094 53.5235 25.1671C52.4003 24.5248 51.4932 23.5548 50.8063 22.2486C50.141 20.9424 49.8084 19.3301 49.8084 17.4074C49.8084 15.8728 50.1194 14.4674 50.7372 13.1828C51.3549 11.9024 52.2405 10.8807 53.3853 10.1263C54.556 9.34605 55.8951 8.95807 57.4114 8.95807C59.7744 8.95807 61.619 9.65643 62.9495 11.0532C64.2801 12.4283 64.8978 14.2691 64.8071 16.5798H52.6941C52.7157 19.2568 53.2686 21.1795 54.3443 22.3477C55.4243 23.516 56.7418 24.098 58.3013 24.098C60.7334 24.098 62.591 22.9858 63.874 20.7656V21.076C63.4852 22.4253 62.7163 23.6065 61.5672 24.611C60.4181 25.6154 58.9882 26.1198 57.2645 26.1198L57.2732 26.1284Z"></path>
<path fill="white" d="M37.4319 13.1526C38.0972 13.4285 39.013 13.5664 40.1837 13.5664C42.1795 13.5664 43.6698 13.075 44.6591 12.0878C45.644 11.1049 46.1408 9.69523 46.1408 7.8631C46.1408 6.03096 45.6354 4.61267 44.6288 3.60392C43.618 2.57361 42.1751 2.06061 40.2917 2.06061H37.4362V13.1526H37.4319ZM34.3345 1.5821H40.6675C42.5035 1.5821 44.0629 1.858 45.3459 2.40549C46.6549 2.93142 47.6398 3.6772 48.3051 4.63854C48.9919 5.57831 49.3375 6.66466 49.3375 7.90189C49.3375 9.07015 48.9919 10.1349 48.3051 11.0963C47.6182 12.0361 46.629 12.7775 45.3459 13.3293C44.0629 13.8553 42.5467 14.1182 40.8057 14.1182C39.7042 14.1182 38.8445 14.0622 38.2268 13.9458C39.972 15.7779 41.7691 17.5842 43.6309 19.3732C45.5101 21.1364 47.7694 23.2185 50.4089 25.624H46.0371L37.4362 13.8811V25.624H34.3389V1.5821H34.3345Z"></path>
</svg>
