<svg height="300" width="300" xmlns="http://www.w3.org/2000/svg" version="1.1">
<path transform="translate(48.00318908691406,77.4920654296875)" fill="#D5512D" d="M0 0 C1.20431671 -0.0112793 2.40863342 -0.02255859 3.64944458 -0.03417969 C4.96233963 -0.02608276 6.27523468 -0.01798584 7.62791443 -0.00964355 C9.03101833 -0.01506642 10.43411653 -0.02219 11.83720398 -0.03088379 C15.64091654 -0.04909926 19.44419452 -0.04205768 23.24791455 -0.02936745 C27.2298939 -0.01923246 31.21183632 -0.02863432 35.19381714 -0.03491211 C41.879437 -0.04218623 48.56488002 -0.03260618 55.25047302 -0.0135498 C62.97992441 0.00822751 70.70895389 0.00116061 78.43839508 -0.02085543 C85.07633214 -0.03900559 91.71414217 -0.04156994 98.35209602 -0.03110075 C102.31603439 -0.0248648 106.2797744 -0.024033 110.24370003 -0.0372467 C113.96948128 -0.04879947 117.69471824 -0.04079075 121.42044067 -0.01766968 C123.4401881 -0.009856 125.45998156 -0.02174276 127.47970581 -0.03417969 C128.6812027 -0.02290039 129.88269958 -0.01162109 131.12060547 0 C132.68713033 0.00226215 132.68713033 0.00226215 134.28530216 0.00457001 C137.69230021 0.63704522 138.88039428 1.81784173 140.99681091 4.50793457 C141.45091248 6.79797363 141.45091248 6.79797363 141.38743591 9.27355957 C141.37454529 10.1630127 141.36165466 11.05246582 141.34837341 11.96887207 C141.29809998 13.34945801 141.29809998 13.34945801 141.24681091 14.75793457 C141.22876404 15.69379395 141.21071716 16.62965332 141.19212341 17.59387207 C141.14506764 19.89960472 141.07934804 22.20324402 140.99681091 24.50793457 C142.06040833 24.50007935 142.06040833 24.50007935 143.14549255 24.49206543 C151.09645456 24.44114318 159.0459177 24.44554639 166.99681091 24.50793457 C167.857099 24.51373535 168.71738708 24.51953613 169.60374451 24.5255127 C171.65204267 24.55220062 173.69967301 24.62151585 175.74681091 24.69543457 C176.83477966 24.73023926 177.92274841 24.76504395 179.04368591 24.80090332 C185.47484617 26.34063878 188.92643413 31.41565864 192.49681091 36.63293457 C193.36244071 37.87880997 194.22972288 39.12353841 195.09837341 40.36730957 C195.56146912 41.03311035 196.02456482 41.69891113 196.50169373 42.3848877 C199.23171454 46.26148159 202.05560363 50.06875841 204.87181091 53.88293457 C205.45914001 54.68465088 206.04646912 55.48636719 206.65159607 56.31237793 C209.55494086 60.26342383 212.4974623 64.1663648 215.55931091 67.99621582 C216.11763611 68.70536133 216.6759613 69.41450684 217.25120544 70.1451416 C218.29857368 71.47020916 219.36117831 72.78343651 220.44163513 74.08166504 C223.04261056 77.39694886 224.27471713 79.43359248 224.06712341 83.71496582 C223.5548119 87.52622825 223.5548119 87.52622825 225.96556091 89.60168457 C226.97102966 90.54527832 226.97102966 90.54527832 227.99681091 91.50793457 C228.52806091 94.60168457 228.52806091 94.60168457 228.49681091 98.00793457 C228.51227966 99.69402832 228.51227966 99.69402832 228.52806091 101.41418457 C227.99681091 104.50793457 227.99681091 104.50793457 225.96946716 106.48059082 C223.65531486 108.43122221 223.65531486 108.43122221 223.71165466 111.78527832 C223.78513123 112.99312988 223.85860779 114.20098145 223.93431091 115.44543457 C224.23301746 120.52344592 224.16497503 123.41785665 220.99681091 127.50793457 C217.89595521 129.57517171 217.2674941 129.7529088 213.76634216 129.70324707 C212.56268005 129.6935791 212.56268005 129.6935791 211.33470154 129.68371582 C210.08463318 129.6585791 210.08463318 129.6585791 208.80931091 129.63293457 C207.96433044 129.62391113 207.11934998 129.6148877 206.24876404 129.60559082 C204.16465849 129.58204161 202.08069874 129.54617104 199.99681091 129.50793457 C199.91044373 128.87887207 199.82407654 128.24980957 199.73509216 127.60168457 C198.36733753 119.26967472 195.76442577 113.44061631 189.05931091 108.13293457 C182.32668245 103.52771659 176.037507 102.66557593 167.99681091 103.50793457 C159.84537871 105.29668773 154.68152372 109.69902601 149.99681091 116.50793457 C148.56932662 119.49035711 147.72758216 122.48048372 146.94017029 125.6776123 C146.62886169 126.94161865 146.3175531 128.205625 145.99681091 129.50793457 C135.97453328 129.53105867 125.95226194 129.54885 115.92996311 129.55974674 C111.27669905 129.56497543 106.62345318 129.5720728 101.97019958 129.58337402 C97.48336545 129.59420343 92.99654887 129.60021152 88.50970268 129.60281181 C86.79400799 129.60466597 85.0783143 129.60828639 83.36262703 129.61366463 C80.96796178 129.62087578 78.57336995 129.62192548 76.17869568 129.62145996 C75.46228409 129.62505524 74.7458725 129.62865051 74.00775146 129.63235474 C69.11086307 129.62198673 69.11086307 129.62198673 67.99681091 128.50793457 C67.72474881 126.99089263 67.4794201 125.46902474 67.24681091 123.94543457 C65.90759232 117.10271184 63.19761207 111.93068693 57.62181091 107.63293457 C50.64330601 103.19478477 43.07652929 102.65577677 34.99681091 103.50793457 C28.60836145 105.30955523 22.21935671 108.72533259 18.77806091 114.58215332 C16.57412856 119.21828245 15.52603144 123.42741752 14.99681091 128.50793457 C12.690525 130.81422048 7.33957215 129.83542008 4.24681091 129.88293457 C2.88556091 129.93900879 2.88556091 129.93900879 1.49681091 129.99621582 C0.61509216 130.00781738 -0.26662659 130.01941895 -1.17506409 130.03137207 C-1.98040588 130.05119141 -2.78574768 130.07101074 -3.61549377 130.09143066 C-7.32249135 129.18552839 -8.66917481 127.50219199 -11.00318909 124.50793457 C-11.71547623 121.31665125 -11.63600675 118.2022154 -11.57081604 114.94421387 C-11.57154617 113.98763382 -11.57227631 113.03105377 -11.57302856 112.04548645 C-11.56955112 108.89046094 -11.53068143 105.73692023 -11.49147034 102.58215332 C-11.4821428 100.39212348 -11.47502641 98.20208319 -11.47003174 96.01203918 C-11.45095748 90.25291041 -11.40185212 84.49441393 -11.34651184 78.73553467 C-11.29532911 72.8570206 -11.27251972 66.97840419 -11.24732971 61.09973145 C-11.19373451 49.56885495 -11.10841583 38.03844738 -11.00318909 26.50793457 C-11.99318909 26.50793457 -12.98318909 26.50793457 -14.00318909 26.50793457 C-14.00318909 24.52793457 -14.00318909 22.54793457 -14.00318909 20.50793457 C-13.01318909 20.50793457 -12.02318909 20.50793457 -11.00318909 20.50793457 C-11.0611969 19.39934082 -11.11920471 18.29074707 -11.17897034 17.14855957 C-11.22587737 15.68506006 -11.27137653 14.22151494 -11.31568909 12.75793457 C-11.35758362 12.0283252 -11.39947815 11.29871582 -11.44264221 10.54699707 C-11.49147034 8.39855957 -11.49147034 8.39855957 -11.00318909 4.50793457 C-7.46288758 0.87548401 -5.00902645 0.00723072 0 0 Z M-5.00318909 6.50793457 C-5.00318909 11.12793457 -5.00318909 15.74793457 -5.00318909 20.50793457 C12.15681091 20.50793457 29.31681091 20.50793457 46.99681091 20.50793457 C46.99681091 22.48793457 46.99681091 24.46793457 46.99681091 26.50793457 C29.83681091 26.50793457 12.67681091 26.50793457 -5.00318909 26.50793457 C-5.03225194 43.54601884 -5.03225194 43.54601884 -5.05201721 60.58410645 C-5.05800611 67.52836873 -5.06510766 74.47261788 -5.07862854 81.41687012 C-5.08945587 87.0124431 -5.09546559 92.60800202 -5.09806633 98.20358467 C-5.09992086 100.34352401 -5.103542 102.48346253 -5.10891914 104.62339592 C-5.11612753 107.60958423 -5.11718011 110.59571364 -5.11671448 113.58190918 C-5.12030975 114.4759848 -5.12390503 115.37006042 -5.12760925 116.29122925 C-5.51313774 120.2133538 -5.51313774 120.2133538 -4.00318909 123.50793457 C-1.81679456 123.58052403 0.3718148 123.5916724 2.55931091 123.57043457 C3.75684998 123.56141113 4.95438904 123.5523877 6.18821716 123.54309082 C7.57847107 123.52568848 7.57847107 123.52568848 8.99681091 123.50793457 C9.27653748 122.73449707 9.55626404 121.96105957 9.84446716 121.16418457 C13.90947178 110.60301503 18.27997817 104.24252616 28.66477966 99.41809082 C37.59045693 95.93453503 47.6323471 96.4728868 56.42259216 100.11730957 C66.59881104 105.61462963 70.480961 112.96038482 73.99681091 123.50793457 C94.45681091 123.50793457 114.91681091 123.50793457 135.99681091 123.50793457 C135.66681091 84.89793457 135.33681091 46.28793457 134.99681091 6.50793457 C88.79681091 6.50793457 42.59681091 6.50793457 -5.00318909 6.50793457 Z M140.99681091 30.50793457 C140.99681091 60.53793457 140.99681091 90.56793457 140.99681091 121.50793457 C142.53923953 119.19429164 143.69996822 117.12188972 144.87181091 114.63293457 C149.24131836 105.95724588 155.49256361 101.70963349 164.43431091 98.13293457 C174.48854526 96.36903381 183.64804545 97.23576701 192.28977966 103.05090332 C199.07043695 108.610279 202.81521959 115.47023018 205.99681091 123.50793457 C207.62172045 123.53491646 209.24675725 123.55432214 210.87181091 123.57043457 C211.77673279 123.58203613 212.68165466 123.5936377 213.61399841 123.60559082 C216.01366941 123.67042715 216.01366941 123.67042715 217.99681091 122.50793457 C218.33697405 117.79604515 218.55872254 113.20705827 217.99681091 108.50793457 C216.01606064 107.14616876 214.01601428 105.81200341 211.99681091 104.50793457 C211.26044543 100.12399123 211.25966142 95.89083115 211.99681091 91.50793457 C213.8763528 88.94195129 214.9103286 88.53676201 217.99681091 87.50793457 C217.99681091 86.51793457 217.99681091 85.52793457 217.99681091 84.50793457 C217.3542334 84.50206833 216.71165588 84.49620209 216.04960632 84.49015808 C209.3660264 84.42626061 202.68292961 84.34185016 195.9997406 84.2454834 C193.5050137 84.21221388 191.01021116 84.18418834 188.5153656 84.16149902 C184.93072756 84.12799107 181.34678399 84.07567546 177.76243591 84.01965332 C176.64564453 84.0132634 175.52885315 84.00687347 174.3782196 84.00028992 C173.33744263 83.98049576 172.29666565 83.9607016 171.22434998 83.94030762 C170.30945801 83.92920456 169.39456604 83.9181015 168.45195007 83.90666199 C165.49100259 83.42578866 164.10921973 82.62489779 161.99681091 80.50793457 C161.59183898 77.54934717 161.43584052 74.9675539 161.46556091 72.00793457 C161.46173401 71.17584473 161.4579071 70.34375488 161.45396423 69.4864502 C161.45124341 67.72797434 161.45861661 65.96945813 161.47532654 64.21105957 C161.49673541 61.51743452 161.47553244 58.82647654 161.44993591 56.13293457 C161.45257916 54.42459534 161.45770408 52.71625778 161.46556091 51.00793457 C161.45746399 50.20162598 161.44936707 49.39531738 161.44102478 48.5645752 C161.53376914 43.04139674 161.53376914 43.04139674 163.73216248 40.50866699 C166.2283003 39.40564102 168.03921444 39.08349856 170.76243591 38.99621582 C172.0966156 38.94304199 172.0966156 38.94304199 173.45774841 38.88879395 C174.37813904 38.86623535 175.29852966 38.84367676 176.24681091 38.82043457 C177.18267029 38.78627441 178.11852966 38.75211426 179.08274841 38.71691895 C181.38731624 38.63461295 183.6915121 38.56540827 185.99681091 38.50793457 C184.56056876 35.92916977 183.0524489 33.63602643 180.99681091 31.50793457 C169.11012478 28.35181446 152.33230581 30.50793457 140.99681091 30.50793457 Z M166.99681091 44.50793457 C166.99681091 55.72793457 166.99681091 66.94793457 166.99681091 78.50793457 C182.83681091 78.50793457 198.67681091 78.50793457 214.99681091 78.50793457 C210.45599265 71.65196842 210.45599265 71.65196842 205.74290466 64.93762207 C205.19827576 64.18609863 204.65364685 63.4345752 204.09251404 62.66027832 C203.54530701 61.90875488 202.99809998 61.15723145 202.43431091 60.38293457 C201.32867709 58.85961686 200.22320603 57.33618102 199.11790466 55.81262207 C198.57851257 55.0911499 198.03912048 54.36967773 197.48338318 53.62634277 C195.99681091 51.50793457 195.99681091 51.50793457 194.91453552 49.41101074 C193.76706602 47.30247221 192.90479126 45.97703732 190.99681091 44.50793457 C186.85324941 43.65490478 182.89138592 43.84838904 178.68431091 44.07043457 C172.89899841 44.28699707 172.89899841 44.28699707 166.99681091 44.50793457 Z M217.99681091 92.50793457 C216.76413743 93.51629519 216.76413743 93.51629519 216.89915466 95.57434082 C216.91075623 96.39805176 216.92235779 97.2217627 216.93431091 98.07043457 C216.94333435 98.89672363 216.95235779 99.7230127 216.96165466 100.57434082 C216.97325623 101.21242676 216.98485779 101.8505127 216.99681091 102.50793457 C218.66292996 102.55065557 220.33063976 102.54857289 221.99681091 102.50793457 C223.41258568 101.32369131 223.41258568 101.32369131 223.05931091 97.94543457 C223.03868591 96.81105957 223.01806091 95.67668457 222.99681091 94.50793457 C220.61519082 93.09407546 220.61519082 93.09407546 217.99681091 92.50793457 Z"></path>
<path transform="translate(234,184)" fill="#D5512D" d="M0 0 C6.38915168 4.36882603 11.16901675 9.35082654 13 17 C14.17937782 25.38038665 12.91265204 32.05794006 8 39 C3.34362139 44.23151326 -1.99782847 47.5279221 -8.98046875 48.3515625 C-16.74654117 48.69753056 -22.66162045 47.62590508 -29 43 C-34.11191023 38.28716083 -37.60920803 33.80340557 -38.3359375 26.73046875 C-38.43634329 17.62366395 -37.58078968 12.14617752 -31.625 5.25 C-22.11932921 -2.89771782 -11.54293358 -5.74256128 0 0 Z M-28.5546875 10.3046875 C-32.49183303 14.9228528 -32.48598267 20.18473934 -32.37890625 25.98828125 C-31.60471267 32.14192303 -28.65763139 35.70704752 -23.875 39.4375 C-17.89170543 42.68929053 -11.25994308 43.18848832 -4.67578125 41.3515625 C0.36826607 39.10335855 3.38930962 35.82921696 6 31 C7.74998045 25.75005866 8.13716424 19.84998837 6.05859375 14.640625 C2.79849211 9.20371569 -0.82908329 5.43533118 -7.0625 3.75 C-15.66388658 1.77423595 -22.13455418 4.8401089 -28.5546875 10.3046875 Z"></path>
<path transform="translate(102,184)" fill="#D5512D" d="M0 0 C6.38915168 4.36882603 11.16901675 9.35082654 13 17 C14.17937782 25.38038665 12.91265204 32.05794006 8 39 C3.34362139 44.23151326 -1.99782847 47.5279221 -8.98046875 48.3515625 C-16.74654117 48.69753056 -22.66162045 47.62590508 -29 43 C-34.11191023 38.28716083 -37.60920803 33.80340557 -38.3359375 26.73046875 C-38.44215182 17.09682951 -37.26814361 11.47849932 -30.9375 4.25 C-22.37912441 -3.79303254 -10.34926741 -5.14871734 0 0 Z M-28.5546875 10.3046875 C-32.49183303 14.9228528 -32.48598267 20.18473934 -32.37890625 25.98828125 C-31.60471267 32.14192303 -28.65763139 35.70704752 -23.875 39.4375 C-17.89170543 42.68929053 -11.25994308 43.18848832 -4.67578125 41.3515625 C0.36826607 39.10335855 3.38930962 35.82921696 6 31 C7.74998045 25.75005866 8.13716424 19.84998837 6.05859375 14.640625 C2.79849211 9.20371569 -0.82908329 5.43533118 -7.0625 3.75 C-15.66388658 1.77423595 -22.13455418 4.8401089 -28.5546875 10.3046875 Z"></path>
<path transform="translate(82,163)" fill="#D5512D" d="M0 0 C27.39 0 54.78 0 83 0 C83 1.98 83 3.96 83 6 C55.61 6 28.22 6 0 6 C0 4.02 0 2.04 0 0 Z"></path>
<path transform="translate(94.25,119.75)" fill="#D5512D" d="M0 0 C4.41123512 0.04005012 7.30578813 0.25020257 10.75 3.25 C12.75 6.25 12.75 6.25 12.5 9.75 C11.75 13.25 11.75 13.25 9.75 16.25 C10.39107651 18.97095613 10.39107651 18.97095613 11.625 21.8125 C13.75 27.11092715 13.75 27.11092715 13.75 29.25 C11.77 29.25 9.79 29.25 7.75 29.25 C6.76 25.62 5.77 21.99 4.75 18.25 C3.1 18.25 1.45 18.25 -0.25 18.25 C-0.23839844 18.96027344 -0.22679688 19.67054688 -0.21484375 20.40234375 C-0.20130859 21.78099609 -0.20130859 21.78099609 -0.1875 23.1875 C-0.17589844 24.10402344 -0.16429688 25.02054688 -0.15234375 25.96484375 C-0.25 28.25 -0.25 28.25 -1.25 29.25 C-2.91617115 29.29063832 -4.58388095 29.292721 -6.25 29.25 C-6.27465881 25.28069011 -6.29284023 21.31140966 -6.30493164 17.34204102 C-6.30997057 15.99079614 -6.31680177 14.63955674 -6.32543945 13.28833008 C-6.33752419 11.34979566 -6.34269828 9.411222 -6.34765625 7.47265625 C-6.35289307 6.30484619 -6.35812988 5.13703613 -6.36352539 3.93383789 C-6.16704742 -0.7110704 -4.16662374 0.06684423 0 0 Z M-1.25 5.25 C-1.25 7.89 -1.25 10.53 -1.25 13.25 C3.09184202 13.06535634 3.09184202 13.06535634 6.75 11.25 C6.79063832 9.58382885 6.792721 7.91611905 6.75 6.25 C4.04120665 4.89560332 1.74066732 5.18498549 -1.25 5.25 Z"></path>
<path transform="translate(94,194)" fill="#D5512D" d="M0 0 C3.69493247 2.1421982 6.27132645 4.81590547 8.5 8.4375 C9.29677897 12.52099221 9.17466207 16.08021646 6.953125 19.7109375 C4.62882971 22.65217537 2.47377708 24.64265377 -1 26 C-5.49756077 26.24137178 -9.10321363 25.55333627 -12.9375 23.1875 C-16.69441277 19.20289554 -17.55482108 15.70265956 -17.45703125 10.32421875 C-16.66087987 6.27541474 -14.13756796 3.56501906 -11 1 C-7.23849274 -0.25383575 -3.88998961 -0.75519945 0 0 Z M-11 9 C-11.57349318 12.9427656 -11.5664946 15.09360864 -9.4375 18.5 C-6.97118722 20.30286341 -6.97118722 20.30286341 -3.4375 20.0625 C0.08096477 19.30002648 0.08096477 19.30002648 2 16.75 C3.15949287 13.5613946 3.16582954 12.16439447 2 9 C0.91666667 7.08333333 0.91666667 7.08333333 -1 6 C-5.26361577 5.45570863 -8.15121935 5.60337692 -11 9 Z"></path>
<path transform="translate(226,194)" fill="#D5512D" d="M0 0 C3.65251066 1.86058344 6.1245021 4.27342048 7.98046875 7.93359375 C9.21020432 11.75695343 9.05250477 13.81468904 7.9375 17.75 C5.58442313 21.69709668 3.62944922 24.21225178 -0.890625 25.56640625 C-5.75947908 26.44911834 -8.81483837 25.85351929 -13 23 C-15.60111764 20.74113468 -16.78439594 19.09474821 -17.453125 15.69921875 C-17.78023094 10.8000638 -17.33108408 7.74865387 -14.125 3.9375 C-9.91617264 -0.3831561 -5.89759441 -0.99256899 0 0 Z M-9.9375 7 C-11.66149757 10.24517189 -11.65498416 13.41991613 -11 17 C-9.5771736 19.25463249 -9.5771736 19.25463249 -7 20 C-3.41094915 20.16585191 -3.41094915 20.16585191 0 19 C2.24300635 16.92836371 2.24300635 16.92836371 3 14 C2.23827309 10.46835704 1.56128588 8.56128588 -1 6 C-5.62307869 5.56706829 -5.62307869 5.56706829 -9.9375 7 Z"></path>
<path transform="translate(109,120)" fill="#D5512D" d="M0 0 C5.28 0 10.56 0 16 0 C16.33 1.65 16.66 3.3 17 5 C13.37 5 9.74 5 6 5 C6 7.31 6 9.62 6 12 C9.3 12 12.6 12 16 12 C16 13.32 16 14.64 16 16 C15 17 15 17 12.93359375 17.09765625 C12.10988281 17.08605469 11.28617188 17.07445312 10.4375 17.0625 C9.61121094 17.05347656 8.78492187 17.04445312 7.93359375 17.03515625 C6.97646484 17.01775391 6.97646484 17.01775391 6 17 C6 19.31 6 21.62 6 24 C9.63 24 13.26 24 17 24 C17.33 25.32 17.66 26.64 18 28 C17 29 17 29 13.18359375 29.09765625 C11.60152953 29.09191138 10.01948969 29.07889593 8.4375 29.0625 C4.2609375 29.0315625 4.2609375 29.0315625 0 29 C0 19.43 0 9.86 0 0 Z"></path>
<path transform="translate(129,120)" fill="#D5512D" d="M0 0 C5.28 0 10.56 0 16 0 C16.33 1.32 16.66 2.64 17 4 C16 5 16 5 13.71484375 5.09765625 C12.34005859 5.08025391 12.34005859 5.08025391 10.9375 5.0625 C10.01839844 5.05347656 9.09929687 5.04445313 8.15234375 5.03515625 C7.44207031 5.02355469 6.73179687 5.01195313 6 5 C6 7.31 6 9.62 6 12 C9.3 12 12.6 12 16 12 C15.67 13.65 15.34 15.3 15 17 C12.03 17 9.06 17 6 17 C6 19.31 6 21.62 6 24 C9.3 24 12.6 24 16 24 C16.33 25.65 16.66 27.3 17 29 C11.39 29 5.78 29 0 29 C0 19.43 0 9.86 0 0 Z"></path>
<path transform="translate(139,216)" fill="#D5512D" d="M0 0 C15.18 0 30.36 0 46 0 C46 1.98 46 3.96 46 6 C30.82 6 15.64 6 0 6 C0 4.02 0 2.04 0 0 Z"></path>
<path transform="translate(76,68)" fill="#D5512D" d="M0 0 C15.18 0 30.36 0 46 0 C46 1.98 46 3.96 46 6 C30.82 6 15.64 6 0 6 C0 4.02 0 2.04 0 0 Z"></path>
<path transform="translate(68,120)" fill="#D5512D" d="M0 0 C5.28 0 10.56 0 16 0 C16.33 1.65 16.66 3.3 17 5 C13.37 5 9.74 5 6 5 C6 7.31 6 9.62 6 12 C8.97 12 11.94 12 15 12 C15.33 13.65 15.66 15.3 16 17 C12.7 17 9.4 17 6 17 C6 20.96 6 24.92 6 29 C4.35 29 2.7 29 1 29 C-0.38308781 26.23382437 -0.11210196 23.98982 -0.09765625 20.8984375 C-0.09443359 19.68671875 -0.09121094 18.475 -0.08789062 17.2265625 C-0.07951172 15.95554688 -0.07113281 14.68453125 -0.0625 13.375 C-0.05798828 12.09625 -0.05347656 10.8175 -0.04882812 9.5 C-0.03701213 6.33331355 -0.01907621 3.16665104 0 0 Z"></path>
<path transform="translate(48,163)" fill="#D5512D" d="M0 0 C8.91 0 17.82 0 27 0 C27 1.98 27 3.96 27 6 C18.09 6 9.18 6 0 6 C0 4.02 0 2.04 0 0 Z"></path>
<path transform="translate(124,216)" fill="#D5512D" d="M0 0 C3.3 0 6.6 0 10 0 C10 1.98 10 3.96 10 6 C6.7 6 3.4 6 0 6 C0 4.02 0 2.04 0 0 Z"></path>
<path transform="translate(62,68)" fill="#D5512D" d="M0 0 C2.97 0 5.94 0 9 0 C9 1.98 9 3.96 9 6 C6.03 6 3.06 6 0 6 C0 4.02 0 2.04 0 0 Z"></path>
<path transform="translate(24,98)" fill="#D5512D" d="M0 0 C2.31 0 4.62 0 7 0 C7 1.98 7 3.96 7 6 C4.69 6 2.38 6 0 6 C0 4.02 0 2.04 0 0 Z"></path>
</svg>
