<svg xmlns="http://www.w3.org/2000/svg" fill="none" viewBox="0 0 18 18" height="18" width="18">
<path fill="black" d="M3.00765 11.9809C2.39923 11.6193 1.84821 11.1372 1.39477 10.5345C1.32876 10.4513 1.28571 10.3537 1.22545 10.2676C0.952806 10.4369 0.680166 10.6177 0.427615 10.8243C0.27838 10.9477 0.134885 11.0826 0 11.2146C0.525191 13.2953 2.18973 14.9627 4.39381 15.3961C4.39381 15.3817 4.39381 15.376 4.39955 15.3645C4.72959 14.0358 4.17857 12.6812 3.00478 11.9809H3.00765Z"></path>
<path fill="black" d="M2.65179 6.8524C2.48246 6.17223 2.43654 5.44615 2.54273 4.70572C2.55708 4.59666 2.58865 4.49908 2.61448 4.39577C2.30453 4.31828 1.98597 4.26088 1.65593 4.22644C1.46078 4.20635 1.26562 4.20061 1.07908 4.20061C-0.0315689 6.04309 -0.0258291 8.40214 1.21971 10.2704C1.22545 10.2704 1.2398 10.2561 1.24554 10.2561C2.42506 9.54436 2.98182 8.1869 2.64605 6.8524H2.65179Z"></path>
<path fill="black" d="M6.02105 3.00961C6.38265 2.40119 6.8648 1.85017 7.46747 1.39672C7.5507 1.33072 7.64828 1.28767 7.73438 1.2274C7.56505 0.954759 7.38425 0.682119 7.17761 0.429568C7.05421 0.280333 6.91932 0.136838 6.78731 0.00195312C4.70663 0.527144 3.03922 2.19169 2.60587 4.39577C2.62022 4.39577 2.62596 4.39577 2.63744 4.40151C3.9662 4.73154 5.32079 4.18052 6.02105 3.00674V3.00961Z"></path>
<path fill="black" d="M11.1553 2.65374C11.8355 2.48442 12.5615 2.4385 13.302 2.54468C13.411 2.55903 13.5086 2.5906 13.6119 2.61643C13.6894 2.30648 13.7468 1.98792 13.7813 1.65788C13.8013 1.46273 13.8071 1.26758 13.8071 1.08103C11.9589 -0.0296157 9.59981 -0.023876 7.73438 1.22166C7.73438 1.2274 7.74872 1.24175 7.74872 1.24749C8.46046 2.42702 9.81792 2.98378 11.1524 2.648L11.1582 2.65374H11.1553Z"></path>
<path fill="black" d="M14.9923 6.023C15.6008 6.38461 16.1518 6.86675 16.6052 7.46943C16.6712 7.55265 16.7143 7.65023 16.7746 7.73633C17.0472 7.567 17.3198 7.3862 17.5724 7.17957C17.7216 7.05616 17.8651 6.92128 18 6.78926C17.4748 4.70859 15.8103 3.04118 13.6062 2.60782C13.6062 2.62217 13.6062 2.62791 13.6004 2.63939C13.2704 3.96815 13.8214 5.32274 14.9952 6.023H14.9923Z"></path>
<path fill="black" d="M16.7573 7.75355C15.5778 8.46528 15.021 9.82274 15.3568 11.1572C15.5261 11.8374 15.5721 12.5635 15.4659 13.3039C15.4515 13.413 15.42 13.5106 15.3941 13.6139C15.7041 13.6914 16.0226 13.7488 16.3527 13.7832C16.5478 13.8033 16.743 13.809 16.9295 13.809C18.0316 11.9694 18.0258 9.6075 16.7803 7.74781C16.7746 7.74781 16.7602 7.76216 16.7545 7.76216V7.75642L16.7573 7.75355Z"></path>
<path fill="black" d="M11.9847 14.9943C11.6231 15.6027 11.1409 16.1537 10.5383 16.6072C10.455 16.6732 10.3575 16.7162 10.2714 16.7765C10.4407 17.0491 10.6215 17.3218 10.8281 17.5743C10.9515 17.7236 11.0864 17.8671 11.2184 18.002C13.2991 17.4768 14.9665 15.8122 15.3999 13.6081H15.3683C14.0395 13.2724 12.6849 13.8234 11.9847 14.9943Z"></path>
<path fill="black" d="M6.85045 15.3588C6.17028 15.5281 5.4442 15.574 4.70376 15.4678C4.60045 15.4535 4.49713 15.4219 4.39381 15.3961C4.31633 15.706 4.25893 16.0246 4.22449 16.3546C4.2044 16.5498 4.19866 16.7449 4.19866 16.9315C6.03827 18.0335 8.40019 18.0278 10.2599 16.7822C10.2599 16.7765 10.2455 16.7622 10.2398 16.7564C9.52806 15.5769 8.1706 15.0201 6.8361 15.3559H6.85045V15.3588Z"></path>
</svg>
