<svg xmlns="http://www.w3.org/2000/svg" fill="none" viewBox="0 0 50 50" height="50" width="50">
<path fill="#215732" d="M10.8732 27.3807C11.3825 31.1927 12.9184 34.0642 15.4364 35.9157C16.0329 36.3542 16.6534 36.7029 17.2778 36.9936V39.861H14.8466C14.4044 39.861 14.0466 40.2192 14.0466 40.661V44.2C14.0466 44.6418 14.4044 45 14.8466 45H38.4908C38.933 45 39.2908 44.6418 39.2908 44.2V40.661C39.2908 40.2192 38.933 39.861 38.4908 39.861H22.9293V38.2014C22.9728 38.2017 23.0227 38.2048 23.0652 38.2048C24.2113 38.2048 24.9801 38.0786 25.062 38.0649C25.4464 37.9989 25.7269 37.6657 25.7269 37.2763V32.7661H35.0026C35.4448 32.7661 35.8026 32.408 35.8026 31.9662C35.8026 31.5244 35.4448 31.1662 35.0026 31.1662H24.9269C19.5856 31.1662 16.877 28.9752 16.877 24.6538C16.877 22.3153 18.5879 21.2632 19.4952 20.8694L21.8527 24.7592C22.0035 25.0076 22.2676 25.1448 22.5379 25.1448C22.6793 25.1448 22.8222 25.1076 22.9519 25.0287L22.995 25.0026L24.4855 27.4611C24.6363 27.7092 24.9004 27.8463 25.1706 27.8463C25.312 27.8463 25.455 27.8092 25.5847 27.7302L28.2957 26.0873C28.4769 25.9775 28.6073 25.7998 28.6581 25.594C28.7081 25.3877 28.6745 25.1701 28.5652 24.9885L27.075 22.5301L27.1191 22.5034C27.3003 22.3936 27.4308 22.2159 27.4816 22.01C27.5316 21.8038 27.498 21.5862 27.3886 21.405L19.3152 8.084C19.0863 7.70588 18.595 7.58477 18.2161 7.81448L18.1707 7.84196L16.6817 5.38559C16.5716 5.20437 16.3942 5.0739 16.1879 5.02349C15.9801 4.97191 15.7653 5.0063 15.5825 5.11647L12.8716 6.75982C12.6903 6.86959 12.5598 7.0473 12.5091 7.25315C12.4591 7.4594 12.4926 7.67699 12.6021 7.85863L14.0909 10.3144L14.0489 10.3399C13.8676 10.4496 13.7372 10.6273 13.6864 10.8332C13.6364 11.0394 13.67 11.257 13.7794 11.4382L15.4451 14.1866C13.8751 15.5269 9.85452 19.7645 10.8732 27.3807ZM37.6909 41.461V43.4H15.6465V41.461H18.0778H22.1293H37.6909ZM18.8778 39.861V37.5998C19.7318 37.8573 20.565 38.0194 21.3293 38.1054V39.861H18.8778ZM26.7816 25.1338L25.4394 25.9475L24.3644 24.1741L25.7066 23.36L26.7816 25.1338ZM18.3168 9.62654C18.3198 9.62472 18.3215 9.62145 18.3244 9.61964L18.3613 9.59724L25.6058 21.5499L22.8066 23.246L15.5622 11.2933L15.5903 11.2763C15.5954 11.2733 15.6009 11.2726 15.6059 11.2695L18.3168 9.62654ZM14.3856 7.71331L15.7278 6.89924L16.8018 8.67153L15.4595 9.48502L14.3856 7.71331ZM16.2865 15.575L18.6573 19.4869C17.1437 20.2066 15.277 21.8257 15.277 24.6538C15.277 29.6564 18.4106 32.5099 24.1269 32.7498V36.5595C22.6816 36.6689 19.1645 36.6775 16.3739 34.6188C14.2255 33.0342 12.9083 30.5275 12.4591 27.169C11.5812 20.6056 14.8371 16.8806 16.2865 15.575Z"></path>
</svg>
