<svg xmlns="http://www.w3.org/2000/svg" fill="none" viewBox="0 0 64 64" height="64" width="64">
<g clip-path="url(#clip0_599_360)">
<path fill="#215732" d="M44.5024 44.9922C44.5023 45.7834 44.7367 46.5569 45.1761 47.2148C45.6155 47.8728 46.2401 48.3856 46.971 48.6886C47.7019 48.9915 48.5062 49.0709 49.2823 48.9167C50.0583 48.7625 50.7711 48.3817 51.3307 47.8224C51.8903 47.263 52.2714 46.5503 52.4259 45.7744C52.5804 44.9984 52.5014 44.1941 52.1987 43.463C51.8961 42.732 51.3835 42.1072 50.7257 41.6675C50.068 41.2278 49.2946 40.9931 48.5034 40.9929C47.4429 40.9939 46.4261 41.4156 45.676 42.1653C44.9259 42.9151 44.5039 43.9317 44.5024 44.9922ZM50.5029 44.9922C50.5031 45.3879 50.3859 45.7747 50.1662 46.1038C49.9464 46.4328 49.634 46.6893 49.2685 46.8408C48.903 46.9923 48.5007 47.032 48.1127 46.9548C47.7246 46.8777 47.3681 46.6872 47.0883 46.4074C46.8085 46.1276 46.618 45.7711 46.5408 45.383C46.4637 44.995 46.5034 44.5927 46.6548 44.2272C46.8063 43.8617 47.0628 43.5493 47.3918 43.3295C47.7209 43.1098 48.1077 42.9926 48.5034 42.9927C49.0335 42.9934 49.5417 43.2042 49.9166 43.5791C50.2914 43.9539 50.5023 44.4621 50.5029 44.9922Z"></path>
<path fill="#215732" d="M55.5035 34.4946C56.0558 34.4946 56.5035 34.0469 56.5035 33.4946C56.5035 32.9423 56.0558 32.4946 55.5035 32.4946C54.9513 32.4946 54.5035 32.9423 54.5035 33.4946C54.5035 34.0469 54.9513 34.4946 55.5035 34.4946Z"></path>
<path fill="#215732" d="M43.5024 32.9947C43.5023 33.5881 43.6782 34.1682 44.0078 34.6617C44.3374 35.1552 44.8059 35.5399 45.3541 35.7671C45.9023 35.9942 46.5056 36.0537 47.0877 35.938C47.6697 35.8223 48.2044 35.5366 48.624 35.117C49.0437 34.6974 49.3295 34.1628 49.4453 33.5808C49.5611 32.9988 49.5017 32.3955 49.2746 31.8472C49.0475 31.2989 48.6629 30.8303 48.1694 30.5007C47.676 30.171 47.0959 29.9951 46.5024 29.9951C45.7071 29.996 44.9446 30.3123 44.3822 30.8746C43.8198 31.4369 43.5034 32.1994 43.5024 32.9947ZM47.5024 32.9947C47.5024 33.1925 47.4438 33.3858 47.3339 33.5502C47.224 33.7147 47.0679 33.8429 46.8851 33.9185C46.7024 33.9942 46.5013 34.014 46.3074 33.9755C46.1134 33.9369 45.9352 33.8416 45.7953 33.7018C45.6555 33.5619 45.5602 33.3837 45.5217 33.1898C45.4831 32.9958 45.5029 32.7947 45.5786 32.612C45.6542 32.4293 45.7824 32.2731 45.9469 32.1632C46.1113 32.0533 46.3047 31.9947 46.5024 31.9947C46.7676 31.9949 47.0218 32.1004 47.2093 32.2878C47.3968 32.4753 47.5022 32.7295 47.5024 32.9947Z"></path>
<path fill="#215732" d="M36.5019 46.9919C35.9087 46.9921 35.3289 47.1681 34.8357 47.4977C34.3426 47.8274 33.9582 48.2958 33.7313 48.8439C33.5044 49.392 33.4451 49.995 33.5609 50.5768C33.6767 51.1586 33.9624 51.693 34.3819 52.1124C34.8013 52.5318 35.3358 52.8174 35.9176 52.9331C36.4994 53.0488 37.1024 52.9894 37.6504 52.7624C38.1985 52.5353 38.6669 52.1509 38.9964 51.6577C39.326 51.1645 39.5019 50.5846 39.5019 49.9914C39.5008 49.1962 39.1844 48.4338 38.622 47.8715C38.0596 47.3092 37.2972 46.9929 36.5019 46.9919ZM36.5019 50.9912C36.3042 50.9912 36.1109 50.9325 35.9464 50.8226C35.782 50.7127 35.6539 50.5565 35.5782 50.3738C35.5026 50.1911 35.4828 49.9901 35.5214 49.7961C35.56 49.6022 35.6553 49.424 35.7951 49.2842C35.935 49.1444 36.1131 49.0492 36.3071 49.0106C36.5011 48.9721 36.7021 48.9919 36.8848 49.0676C37.0675 49.1433 37.2236 49.2715 37.3335 49.4359C37.4433 49.6004 37.502 49.7937 37.5019 49.9914C37.5016 50.2565 37.3962 50.5107 37.2087 50.6981C37.0212 50.8855 36.767 50.9909 36.5019 50.9912Z"></path>
<path fill="#215732" d="M50.3784 10.9918C49.1257 10.9252 47.8724 11.1088 46.6914 11.5318C45.7899 11.8559 44.8384 12.0189 43.8804 12.0135C42.5772 11.918 41.6988 11.1883 41.1958 9.78251C41.0835 9.20881 40.2544 4.73931 40.8921 1.17681C40.9383 0.915952 40.8792 0.647402 40.7276 0.430114C40.5761 0.212826 40.3445 0.0645583 40.0837 0.01786C39.8229 -0.0288384 39.5543 0.029849 39.3367 0.181038C39.1192 0.332228 38.9705 0.563564 38.9234 0.824261C38.125 5.29181 39.27 10.3338 39.2842 10.3736C40.0401 12.5626 41.6201 13.8531 43.7344 14.0079C44.9294 14.0388 46.1199 13.8506 47.2471 13.4525C48.183 13.1107 49.1755 12.9505 50.1714 12.9805C60.7959 14.0853 62.5313 27.6136 61.8823 35.4332C61.2154 43.4532 57.148 51.036 50.4282 56.7857C44.8135 61.5897 35.7813 63.2852 27.9546 61.005C21.5928 59.1519 17.4419 55.0384 12.6763 49.8538C11.523 48.5985 10.4077 48.1002 9.35985 48.3687C7.8921 48.7467 7.3711 50.4649 7.28175 50.8062C6.6548 52.7767 6.5674 55.7957 6.60501 57.9874C6.62869 58.165 6.61148 58.3457 6.55469 58.5156C6.49791 58.6856 6.40305 58.8403 6.27735 58.9681H4.87451C4.60933 58.9681 4.355 59.0734 4.16749 59.2609C3.97998 59.4484 3.87463 59.7028 3.87463 59.9679C3.87463 60.2331 3.97998 60.4874 4.16749 60.675C4.355 60.8625 4.60933 60.9678 4.87451 60.9678H6.27735C6.55472 60.9651 6.82873 60.9069 7.08319 60.7965C7.33764 60.6861 7.56738 60.5257 7.7588 60.325C8.34364 59.6777 8.64779 58.8247 8.60451 57.9534C8.55565 55.0538 8.76515 52.7225 9.1948 51.3892C9.20271 51.3662 9.2094 51.3428 9.21485 51.3192C9.30275 50.9591 9.60401 50.3707 9.8589 50.3053C10.0157 50.2645 10.4717 50.4105 11.2036 51.2069C16.1831 56.6243 20.5366 60.9271 27.395 62.9249C29.8925 63.644 32.4792 64.006 35.0782 64.0001C41.2852 64.0001 47.4209 61.9906 51.7295 58.305C58.8516 52.2108 63.1651 44.1468 63.8755 35.5985C64.585 27.054 62.541 12.2562 50.3784 10.9918Z"></path>
<path fill="#215732" d="M10.3306 41.3C12.2437 41.0864 14.3506 41.8415 16.3907 42.5725C17.4617 42.9796 18.5545 43.3268 19.6641 43.6125C23.0154 44.4514 26.5298 44.3816 29.8452 43.4104C33.7364 42.2319 36.4864 40.0141 38.0191 36.8191C41.0015 30.6015 38.7495 22.1399 36.3345 16.1364C34.2764 11.0183 34.0283 5.71558 34.064 3.01048C34.0494 2.8198 34.0811 2.62841 34.1562 2.45255C34.2313 2.2767 34.3478 2.12154 34.4956 2.00023H35.835C36.1001 2.00023 36.3544 1.8949 36.5419 1.70741C36.7294 1.51992 36.8347 1.26563 36.8347 1.00048C36.8347 0.735332 36.7294 0.481042 36.5419 0.293552C36.3544 0.106063 36.1001 0.000732422 35.835 0.000732422H34.4956C33.1768 0.000732422 32.086 1.33908 32.064 2.98413C32.0269 5.83883 32.2906 11.4406 34.4795 16.8823C36.333 21.4922 39.024 30.0998 36.2154 35.9546C34.9361 38.623 32.5977 40.4878 29.2652 41.4968C26.2864 42.365 23.1299 42.4233 20.1211 41.6655C19.0854 41.3973 18.0654 41.0717 17.0659 40.6902C14.8106 39.8821 12.4781 39.0469 10.107 39.313C3.18652 40.0913 -0.210934 47.0461 0.0102659 59.9851C0.0147745 60.2472 0.122055 60.4971 0.309001 60.6809C0.495948 60.8647 0.747603 60.9677 1.00977 60.9677C1.14361 60.9717 1.27683 60.9479 1.40107 60.898C1.52532 60.848 1.6379 60.773 1.73179 60.6775C1.82567 60.582 1.89882 60.4682 1.94665 60.3431C1.99448 60.218 2.01597 60.0844 2.00977 59.9507C1.76197 48.2195 4.60892 41.9433 10.3306 41.3Z"></path>
<path fill="#215732" d="M29.9185 55.2236C29.6775 55.113 29.4024 55.1028 29.1539 55.195C28.9053 55.2873 28.7036 55.4745 28.593 55.7155C28.4825 55.9565 28.4722 56.2315 28.5645 56.4801C28.6567 56.7287 28.844 56.9304 29.085 57.0409C31.1344 57.9862 33.3627 58.4808 35.6196 58.4914C39.0285 58.4507 42.3379 57.337 45.0777 55.3083C45.1853 55.2329 45.2771 55.1369 45.3476 55.026C45.4182 54.9151 45.4662 54.7914 45.4889 54.6619C45.5115 54.5324 45.5085 54.3997 45.4798 54.2714C45.4511 54.1431 45.3974 54.0217 45.3218 53.9142C45.2462 53.8067 45.1501 53.7152 45.039 53.6448C44.9279 53.5745 44.8041 53.5268 44.6746 53.5044C44.545 53.482 44.4123 53.4853 44.2841 53.5143C44.1559 53.5432 44.0346 53.5972 43.9273 53.673C37.9556 57.8715 32.5869 56.4467 29.9185 55.2236Z"></path>
<path fill="#215732" d="M49.9282 17.0924C49.8093 17.0364 49.6806 17.0044 49.5493 16.9982C49.4181 16.992 49.2869 17.0117 49.1633 17.0562C49.0396 17.1007 48.926 17.1692 48.8288 17.2576C48.7317 17.3461 48.6529 17.4528 48.597 17.5718C48.5411 17.6907 48.5092 17.8195 48.5031 17.9507C48.4971 18.082 48.5169 18.2131 48.5615 18.3367C48.6062 18.4603 48.6747 18.5739 48.7633 18.671C48.8518 18.768 48.9587 18.8467 49.0776 18.9025C49.1323 18.9281 54.5488 21.557 54.5034 28.9894C54.5026 29.1207 54.5277 29.2509 54.5772 29.3725C54.6268 29.4941 54.6998 29.6048 54.7921 29.6982C54.8844 29.7916 54.9942 29.8659 55.1153 29.9169C55.2363 29.9679 55.3662 29.9945 55.4975 29.9952H55.5034C55.7675 29.9952 56.0209 29.8907 56.2083 29.7044C56.3957 29.5182 56.5017 29.2655 56.5034 29.0013C56.5566 20.3046 50.1987 17.2194 49.9282 17.0924Z"></path>
</g>
<defs>
<clipPath id="clip0_599_360">
<rect fill="white" height="64" width="64"></rect>
</clipPath>
</defs>
</svg>
