<svg xmlns="http://www.w3.org/2000/svg" fill="none" viewBox="0 0 64 64" height="64" width="64">
<g clip-path="url(#clip0_598_192)">
<path fill="#215732" d="M63.71 24.0706C56.8201 29.0529 45.3485 37.3464 33.6703 29.9308C33.179 29.6789 18.584 18.3887 -0.423792 35.0446C-1.04659 35.4953 -1.18586 36.3653 -0.736754 36.9881C-0.464477 37.3652 -0.0388483 37.5639 0.39304 37.5639C0.67627 37.5639 0.961066 37.4779 1.20674 37.3011C8.53319 32.001 18.5057 24.4774 31.6595 31.9682C45.1044 40.9737 58.2707 31.4377 65.3405 26.327C65.9633 25.8764 66.1026 25.0063 65.6535 24.3835C65.2028 23.7592 64.3328 23.6215 63.71 24.0706Z"></path>
<path fill="#215732" d="M17.1083 34.5173C16.9816 33.8632 16.4089 33.3906 15.7422 33.3906C15.0756 33.3906 14.5029 33.8632 14.3762 34.5173C14.0773 36.068 13.0523 37.5906 11.9679 39.2055C10.4767 41.4244 8.7851 43.9406 8.7851 47.0311C8.7851 51.0182 11.9069 54.2605 15.7422 54.2605C19.5776 54.2605 22.6994 51.0167 22.6994 47.0311C22.6994 43.9406 21.0094 41.4228 19.5166 39.2055C18.4322 37.5906 17.4088 36.068 17.1083 34.5173ZM15.7422 51.4783C13.4404 51.4783 11.5689 49.4831 11.5689 47.0311C11.5689 44.7871 12.8849 42.8296 14.2776 40.7562C14.7799 40.0082 15.29 39.2493 15.7422 38.4637C16.1945 39.2493 16.7046 40.0082 17.2069 40.7562C18.5996 42.8296 19.9156 44.7871 19.9156 47.0311C19.9172 49.4831 18.0441 51.4783 15.7422 51.4783Z"></path>
<path fill="#215732" d="M33.8049 40.0817C33.6782 39.4277 33.1054 38.9551 32.4388 38.9551C31.7722 38.9551 31.1995 39.4277 31.0728 40.0817C30.7739 41.6325 29.7489 43.155 28.6645 44.7699C27.1732 46.9888 25.4817 49.505 25.4817 52.5955C25.4817 56.5827 28.6035 59.825 32.4388 59.825C36.2742 59.825 39.396 56.5811 39.396 52.5955C39.396 49.505 37.706 46.9873 36.2132 44.7699C35.1287 43.1566 34.1038 41.6325 33.8049 40.0817ZM32.4388 57.0443C30.137 57.0443 28.2655 55.0492 28.2655 52.5971C28.2655 50.3532 29.5815 48.3956 30.9742 46.3222C31.4765 45.5742 31.9866 44.8153 32.4388 44.0298C32.8911 44.8153 33.4012 45.5742 33.9035 46.3222C35.2962 48.3956 36.6122 50.3532 36.6122 52.5971C36.6122 55.0492 34.7407 57.0443 32.4388 57.0443Z"></path>
<path fill="#215732" d="M50.5014 44.2568C50.3747 43.6027 49.802 43.1301 49.1354 43.1301C48.4688 43.1301 47.896 43.6027 47.7693 44.2568C47.4704 45.8075 46.4455 47.3301 45.361 48.945C43.8698 51.1639 42.1782 53.6801 42.1782 56.7706C42.1782 60.7577 45.3 64 49.1354 64C52.9707 64 56.0925 60.7562 56.0925 56.7706C56.0925 53.6801 54.4025 51.1623 52.9097 48.945C51.8253 47.3301 50.8003 45.8075 50.5014 44.2568ZM49.1354 61.2178C46.8335 61.2178 44.962 59.2226 44.962 56.7706C44.962 54.5266 46.278 52.5691 47.6707 50.4957C48.173 49.7477 48.6831 48.9888 49.1354 48.2032C49.5876 48.9888 50.0977 49.7477 50.6 50.4957C51.9927 52.5691 53.3087 54.5266 53.3087 56.7706C53.3087 59.2226 51.4372 61.2178 49.1354 61.2178Z"></path>
<path fill="#215732" d="M15.7423 19.4764C16.5106 19.4764 17.1334 18.8536 17.1334 18.0853V4.74842L20.3241 7.93907C20.5963 8.21135 20.9516 8.34592 21.3083 8.34592C21.6651 8.34592 22.0203 8.20978 22.2926 7.93907C22.8356 7.39608 22.8356 6.51509 22.2926 5.9721L16.7281 0.407633C16.5998 0.279319 16.4449 0.177606 16.2743 0.105625C15.9348 -0.0352083 15.5514 -0.0352083 15.2118 0.105625C15.0413 0.176041 14.8863 0.277754 14.758 0.407633L9.19356 5.9721C8.65057 6.51509 8.65057 7.39608 9.19356 7.93907C9.73655 8.48206 10.6175 8.48206 11.1605 7.93907L14.3512 4.74842V18.0853C14.3512 18.8552 14.974 19.4764 15.7423 19.4764Z"></path>
<path fill="#215732" d="M32.4388 23.6512C33.2071 23.6512 33.8299 23.0284 33.8299 22.2601V8.92322L37.0205 12.1139C37.2928 12.3862 37.648 12.5207 38.0048 12.5207C38.36 12.5207 38.7168 12.3846 38.9891 12.1139C39.5321 11.5709 39.5321 10.6899 38.9891 10.1469L33.4246 4.58244C33.2963 4.45412 33.1414 4.35241 32.9708 4.28043C32.6312 4.1396 32.2479 4.1396 31.9083 4.28043C31.7377 4.35085 31.5828 4.45256 31.4545 4.58244L25.89 10.1469C25.347 10.6899 25.347 11.5709 25.89 12.1139C26.433 12.6569 27.314 12.6569 27.857 12.1139L31.0476 8.92322V22.2601C31.0476 23.0284 31.6704 23.6512 32.4388 23.6512Z"></path>
<path fill="#215732" d="M49.1353 27.8246C49.9036 27.8246 50.5264 27.2018 50.5264 26.4335V13.0966L53.7171 16.2872C53.9893 16.5595 54.3446 16.6941 54.7013 16.6941C55.0565 16.6941 55.4133 16.5579 55.6856 16.2872C56.2286 15.7442 56.2286 14.8632 55.6856 14.3202L50.1211 8.75578C49.9928 8.62746 49.8379 8.52575 49.6673 8.45377C49.3278 8.31294 48.9444 8.31294 48.6048 8.45377C48.4343 8.52419 48.2793 8.6259 48.151 8.75578L42.5866 14.3202C42.0436 14.8632 42.0436 15.7442 42.5866 16.2872C43.1296 16.8302 44.0105 16.8302 44.5535 16.2872L47.7442 13.0966V26.4335C47.7442 27.2033 48.367 27.8246 49.1353 27.8246Z"></path>
</g>
<defs>
<clipPath id="clip0_598_192">
<rect fill="white" height="64" width="64"></rect>
</clipPath>
</defs>
</svg>
