<svg xmlns="http://www.w3.org/2000/svg" fill="none" viewBox="0 0 50 50" height="50" width="50">
<mask height="50" width="50" y="0" x="0" maskUnits="userSpaceOnUse" style="mask-type:alpha" id="mask0_2864_1369">
<g clip-path="url(#clip0_2864_1369)">
<path fill="black" d="M47.95 28.77C48.91 27.71 50 26.51 50 25C50 23.49 48.91 22.29 47.95 21.23C47.33 20.54 46.69 19.83 46.53 19.23C46.36 18.58 46.56 17.62 46.76 16.68C47.07 15.24 47.38 13.75 46.65 12.49C45.91 11.21 44.39 10.72 43.04 10.29C42.14 10 41.21 9.7 40.75 9.24C40.3 8.79 40 7.86 39.71 6.96C39.27 5.61 38.78 4.09 37.51 3.35C36.25 2.62 34.76 2.94 33.32 3.24C32.38 3.44 31.42 3.64 30.77 3.47C30.17 3.31 29.46 2.67 28.77 2.05C27.71 1.09 26.51 0 25 0C23.49 0 22.29 1.09 21.23 2.05C20.54 2.67 19.83 3.31 19.23 3.47C18.58 3.64 17.62 3.44 16.68 3.24C15.24 2.93 13.75 2.62 12.49 3.35C11.21 4.09 10.72 5.61 10.29 6.96C10 7.86 9.7 8.78 9.24 9.24C8.79 9.7 7.86 10 6.96 10.29C5.61 10.73 4.09 11.22 3.35 12.49C2.62 13.75 2.94 15.24 3.24 16.68C3.44 17.62 3.64 18.58 3.47 19.23C3.31 19.83 2.67 20.54 2.05 21.23C1.09 22.29 0 23.49 0 25C0 26.51 1.09 27.71 2.05 28.77C2.67 29.46 3.31 30.17 3.47 30.77C3.64 31.42 3.44 32.38 3.24 33.32C2.93 34.76 2.62 36.25 3.35 37.51C4.09 38.79 5.61 39.28 6.96 39.71C7.86 40 8.79 40.3 9.25 40.76C9.71 41.22 10.01 42.15 10.3 43.05C10.74 44.4 11.23 45.92 12.5 46.66C13.76 47.39 15.25 47.07 16.69 46.77C17.62 46.57 18.59 46.37 19.24 46.54C19.84 46.7 20.55 47.34 21.24 47.96C22.29 48.91 23.49 50 25 50C26.51 50 27.71 48.91 28.77 47.95C29.46 47.33 30.17 46.69 30.77 46.53C31.41 46.36 32.38 46.56 33.32 46.76C34.76 47.06 36.25 47.38 37.51 46.65C38.79 45.91 39.28 44.39 39.71 43.04C40 42.14 40.3 41.21 40.76 40.75C41.22 40.29 42.15 39.99 43.05 39.7C44.4 39.26 45.92 38.77 46.66 37.5C47.39 36.24 47.07 34.75 46.77 33.31C46.57 32.37 46.37 31.41 46.54 30.76C46.69 30.17 47.33 29.46 47.95 28.77ZM44.6 30.25C44.3 31.36 44.56 32.56 44.81 33.73C45.04 34.8 45.27 35.91 44.93 36.5C44.58 37.11 43.49 37.46 42.44 37.8C41.32 38.16 40.15 38.54 39.36 39.34C38.56 40.14 38.19 41.3 37.82 42.42C37.48 43.47 37.13 44.56 36.52 44.91C35.93 45.25 34.82 45.02 33.75 44.79C32.58 44.54 31.38 44.29 30.27 44.58C29.2 44.87 28.31 45.67 27.45 46.45C26.6 47.22 25.74 48 25 48C24.26 48 23.4 47.22 22.57 46.47C21.71 45.69 20.82 44.88 19.75 44.6C19.39 44.5 19.03 44.47 18.66 44.47C17.87 44.47 17.06 44.64 16.27 44.81C15.2 45.04 14.09 45.27 13.5 44.93C12.89 44.58 12.54 43.49 12.2 42.44C11.84 41.32 11.46 40.15 10.66 39.36C9.86 38.56 8.7 38.19 7.58 37.82C6.53 37.48 5.44 37.13 5.09 36.52C4.75 35.93 4.98 34.82 5.21 33.75C5.46 32.58 5.71 31.38 5.42 30.27C5.13 29.2 4.33 28.31 3.55 27.45C2.78 26.6 2 25.74 2 25C2 24.26 2.78 23.4 3.53 22.57C4.31 21.71 5.12 20.82 5.4 19.75C5.7 18.64 5.44 17.44 5.19 16.27C4.96 15.2 4.73 14.09 5.07 13.5C5.42 12.89 6.51 12.54 7.56 12.2C8.68 11.84 9.85 11.46 10.64 10.66C11.44 9.86 11.81 8.7 12.18 7.58C12.52 6.53 12.87 5.44 13.48 5.09C14.07 4.75 15.18 4.98 16.25 5.21C17.41 5.46 18.62 5.71 19.73 5.42C20.8 5.13 21.69 4.33 22.55 3.55C23.4 2.78 24.26 2 25 2C25.74 2 26.6 2.78 27.43 3.53C28.29 4.31 29.18 5.12 30.25 5.4C31.36 5.7 32.57 5.44 33.73 5.19C34.8 4.96 35.91 4.73 36.5 5.07C37.11 5.42 37.46 6.51 37.8 7.56C38.16 8.68 38.54 9.85 39.34 10.64C40.14 11.44 41.3 11.81 42.42 12.18C43.47 12.52 44.56 12.87 44.91 13.48C45.25 14.07 45.02 15.18 44.79 16.25C44.54 17.42 44.29 18.62 44.58 19.73C44.87 20.8 45.67 21.69 46.45 22.55C47.22 23.4 48 24.26 48 25C48 25.74 47.22 26.6 46.47 27.43C45.69 28.29 44.88 29.19 44.6 30.25Z"></path>
<path fill="black" d="M25 8C15.63 8 8 15.63 8 25C8 34.37 15.63 42 25 42C34.37 42 42 34.37 42 25C42 15.63 34.37 8 25 8ZM25 40C16.73 40 10 33.27 10 25C10 16.73 16.73 10 25 10C33.27 10 40 16.73 40 25C40 33.27 33.27 40 25 40Z"></path>
<path fill="black" d="M32.2097 17.21C31.8197 16.82 31.1897 16.82 30.7997 17.21L20.9997 27.01L18.2097 24.22C17.8197 23.83 17.1897 23.83 16.7997 24.22L13.9697 27.05C13.7797 27.24 13.6797 27.49 13.6797 27.76C13.6797 28.03 13.7897 28.28 13.9697 28.47L20.2997 34.8C20.6897 35.19 21.3197 35.19 21.7097 34.8L35.0397 21.47C35.2297 21.28 35.3297 21.03 35.3297 20.76C35.3297 20.49 35.2197 20.24 35.0397 20.05L32.2097 17.21ZM20.9997 32.66L16.0897 27.75L17.4997 26.34L20.2897 29.13C20.6797 29.52 21.3097 29.52 21.6997 29.13L31.4897 19.34L32.8997 20.75L20.9997 32.66Z"></path>
</g>
</mask>
<g mask="url(#mask0_2864_1369)">
<rect fill="#215732" height="62.5" width="62.5" y="-6.25" x="-6.25"></rect>
</g>
<defs>
<clipPath id="clip0_2864_1369">
<rect fill="white" height="50" width="50"></rect>
</clipPath>
</defs>
</svg>
