<svg xmlns="http://www.w3.org/2000/svg" fill="none" viewBox="0 0 50 50" height="50" width="50">
<mask height="50" width="50" y="0" x="0" maskUnits="userSpaceOnUse" style="mask-type:alpha" id="mask0_2864_1347">
<path stroke-linejoin="round" stroke-linecap="round" stroke-miterlimit="10" stroke-width="1.6" stroke="black" d="M41.7188 27.9687C43.3583 27.9687 44.6875 26.6396 44.6875 25C44.6875 23.3604 43.3583 22.0312 41.7188 22.0312C40.0792 22.0312 38.75 23.3604 38.75 25C38.75 26.6396 40.0792 27.9687 41.7188 27.9687Z"></path>
<path stroke-linejoin="round" stroke-linecap="round" stroke-miterlimit="10" stroke-width="1.6" stroke="black" d="M14.8438 21.7187C16.4833 21.7187 17.8125 20.3896 17.8125 18.75C17.8125 17.1104 16.4833 15.7812 14.8438 15.7812C13.2042 15.7812 11.875 17.1104 11.875 18.75C11.875 20.3896 13.2042 21.7187 14.8438 21.7187Z"></path>
<path stroke-linejoin="round" stroke-linecap="round" stroke-miterlimit="10" stroke-width="1.6" stroke="black" d="M25 29.6094C27.5457 29.6094 29.6094 27.5457 29.6094 25C29.6094 22.4543 27.5457 20.3906 25 20.3906C22.4543 20.3906 20.3906 22.4543 20.3906 25C20.3906 27.5457 22.4543 29.6094 25 29.6094Z"></path>
<path stroke-linejoin="round" stroke-linecap="round" stroke-miterlimit="10" stroke-width="1.6" stroke="black" d="M19.4531 47.8906C21.0927 47.8906 22.4219 46.5615 22.4219 44.9219C22.4219 43.2823 21.0927 41.9531 19.4531 41.9531C17.8135 41.9531 16.4844 43.2823 16.4844 44.9219C16.4844 46.5615 17.8135 47.8906 19.4531 47.8906Z"></path>
<path stroke-linejoin="round" stroke-linecap="round" stroke-miterlimit="10" stroke-width="1.6" stroke="black" d="M25 1.5625C20.625 1.5625 16.875 7.42187 15.2344 15.8594C16.6406 16.0937 17.7344 17.2656 17.7344 18.75C17.7344 20.3906 16.4062 21.7187 14.7656 21.7187C14.6875 21.7187 14.5313 21.7187 14.4531 21.7187C14.375 22.8125 14.375 23.9062 14.375 25.0781C14.375 32.0312 15.7031 38.2031 17.8906 42.5C18.3594 42.1875 18.8281 42.0312 19.4531 42.0312C21.0937 42.0312 22.4219 43.3594 22.4219 45C22.4219 45.8594 22.0312 46.6406 21.4844 47.1875C22.5781 48.0469 23.8281 48.5156 25.0781 48.5156C30.9375 48.5156 35.7031 38.0469 35.7031 25.0781C35.7031 12.1094 30.8594 1.5625 25 1.5625Z"></path>
<path stroke-linejoin="round" stroke-linecap="round" stroke-miterlimit="10" stroke-width="1.6" stroke="black" d="M43.4375 27.344C42.9687 27.7346 42.3437 27.969 41.6406 27.969C40 27.969 38.6718 26.6409 38.6718 25.0002C38.6718 24.1409 39.0625 23.3596 39.6093 22.8909C37.1093 20.3909 33.9062 17.969 30.2343 15.8596C19.0625 9.37524 7.65622 8.20337 4.68747 13.2815C1.71872 18.3596 8.43747 27.7346 19.6875 34.219C30.9375 40.6252 42.3437 41.7971 45.3125 36.719C46.7187 34.2971 45.8593 30.9377 43.4375 27.344Z"></path>
<path stroke-linejoin="round" stroke-linecap="round" stroke-miterlimit="10" stroke-width="1.6" stroke="black" d="M45.3135 13.2814C42.4229 8.2033 30.9385 9.37517 19.6885 15.7814C18.9072 16.2502 18.126 16.7189 17.3447 17.1877C17.5791 17.6564 17.7354 18.1252 17.7354 18.672C17.7354 20.3127 16.4072 21.6408 14.7666 21.6408C13.9072 21.6408 13.126 21.2502 12.5791 20.7033C5.86036 26.4064 2.42286 32.8127 4.68849 36.7189C7.57911 41.797 19.0635 40.6252 30.3135 34.2189C33.9854 32.1095 37.1885 29.6877 39.6885 27.1877C39.1416 26.6408 38.751 25.8595 38.751 25.0783C38.751 23.4377 40.0791 22.1095 41.7197 22.1095C42.4229 22.1095 42.9697 22.3439 43.5166 22.7345C45.8604 19.0627 46.7197 15.7033 45.3135 13.2814Z"></path>
</mask>
<g mask="url(#mask0_2864_1347)">
<rect fill="#215732" height="62.5" width="62.5" y="-6.25" x="-6.25"></rect>
</g>
</svg>
