<svg xmlns="http://www.w3.org/2000/svg" fill="none" viewBox="0 0 250 250" height="250" width="250">
<mask fill="black" height="239" width="239" y="6" x="6" maskUnits="userSpaceOnUse" id="path-1-outside-1_1671_1004">
<rect height="239" width="239" y="6" x="6" fill="white"></rect>
<path d="M125.503 231.425C147.592 231.342 167.686 225.02 185.99 212.612C189.937 209.936 190.481 208.012 187.821 203.904C158.78 159.088 91.6452 159.342 62.9278 204.39C60.5643 208.097 61.0656 209.858 64.5499 212.256C82.9386 224.906 103.208 231.333 125.503 231.425ZM51.1656 200.449C52.5394 198.481 53.8535 196.555 55.2109 194.662C89.8943 146.286 162.237 146.785 195.896 195.854C199.465 201.057 201.066 200.035 204.381 196.133C232.445 163.109 239.575 125.784 223.442 85.9199C207.116 45.5755 175.644 23.2523 131.979 19.946C89.536 16.7311 49.7661 40.0802 30.6453 78.2461C11.7295 116.001 17.3512 162.288 44.8049 194.401C46.6648 196.577 48.1955 199.179 51.1656 200.449ZM242.997 125.964C242.641 191.239 189.944 243.453 124.885 242.997C59.5892 242.539 7.4504 189.782 8.00437 124.73C8.55717 59.6204 60.8916 7.77361 125.829 8.00082C191.07 8.2292 243.352 60.8654 242.997 125.964Z" clip-rule="evenodd" fill-rule="evenodd"></path>
</mask>
<path style="fill:#2D2926;fill:color(display-p3 0.1765 0.1608 0.1490);fill-opacity:1;" fill="#2D2926" d="M125.503 231.425C147.592 231.342 167.686 225.02 185.99 212.612C189.937 209.936 190.481 208.012 187.821 203.904C158.78 159.088 91.6452 159.342 62.9278 204.39C60.5643 208.097 61.0656 209.858 64.5499 212.256C82.9386 224.906 103.208 231.333 125.503 231.425ZM51.1656 200.449C52.5394 198.481 53.8535 196.555 55.2109 194.662C89.8943 146.286 162.237 146.785 195.896 195.854C199.465 201.057 201.066 200.035 204.381 196.133C232.445 163.109 239.575 125.784 223.442 85.9199C207.116 45.5755 175.644 23.2523 131.979 19.946C89.536 16.7311 49.7661 40.0802 30.6453 78.2461C11.7295 116.001 17.3512 162.288 44.8049 194.401C46.6648 196.577 48.1955 199.179 51.1656 200.449ZM242.997 125.964C242.641 191.239 189.944 243.453 124.885 242.997C59.5892 242.539 7.4504 189.782 8.00437 124.73C8.55717 59.6204 60.8916 7.77361 125.829 8.00082C191.07 8.2292 243.352 60.8654 242.997 125.964Z" clip-rule="evenodd" fill-rule="evenodd"></path>
<path mask="url(#path-1-outside-1_1671_1004)" style="fill:#2D2926;fill:color(display-p3 0.1765 0.1608 0.1490);fill-opacity:1;" fill="#2D2926" d="M185.99 212.612L187.112 214.267L187.112 214.267L185.99 212.612ZM187.821 203.904L189.499 202.817L189.499 202.816L187.821 203.904ZM62.9278 204.39L64.6142 205.465L64.6142 205.465L62.9278 204.39ZM64.5499 212.256L63.4162 213.903L63.4163 213.904L64.5499 212.256ZM55.2109 194.662L56.8361 195.828L56.8363 195.828L55.2109 194.662ZM195.896 195.854L197.545 194.722L197.545 194.722L195.896 195.854ZM204.381 196.133L205.905 197.429L205.905 197.429L204.381 196.133ZM223.442 85.9199L221.588 86.6701L221.588 86.6701L223.442 85.9199ZM131.979 19.946L131.827 21.9403L131.828 21.9403L131.979 19.946ZM30.6453 78.2461L32.4334 79.142L32.4334 79.142L30.6453 78.2461ZM44.8049 194.401L46.3253 193.102L46.3251 193.102L44.8049 194.401ZM124.885 242.997L124.899 240.997H124.899L124.885 242.997ZM8.00437 124.73L10.0043 124.747L10.0043 124.747L8.00437 124.73ZM125.829 8.00082L125.836 6.00083L125.829 8.00082ZM125.503 231.425L125.511 233.425C148.004 233.34 168.485 226.894 187.112 214.267L185.99 212.612L184.868 210.956C166.886 223.145 147.179 229.343 125.495 229.425L125.503 231.425ZM185.99 212.612L187.112 214.267C189.116 212.909 190.855 211.38 191.335 209.231C191.822 207.053 190.869 204.931 189.499 202.817L187.821 203.904L186.142 204.991C187.433 206.985 187.539 207.879 187.431 208.359C187.318 208.868 186.811 209.639 184.868 210.956L185.99 212.612ZM187.821 203.904L189.499 202.816C159.666 156.778 90.7411 157.04 61.2413 203.315L62.9278 204.39L64.6142 205.465C92.5494 161.644 157.894 161.398 186.142 204.992L187.821 203.904ZM62.9278 204.39L61.2414 203.315C60.0147 205.239 59.1439 207.209 59.5929 209.245C60.0367 211.257 61.6325 212.676 63.4162 213.903L64.5499 212.256L65.6836 210.608C63.983 209.438 63.586 208.778 63.499 208.383C63.4171 208.012 63.4774 207.248 64.6142 205.465L62.9278 204.39ZM64.5499 212.256L63.4163 213.904C82.1318 226.778 102.793 233.332 125.495 233.425L125.503 231.425L125.511 229.425C103.624 229.335 83.7455 223.033 65.6834 210.608L64.5499 212.256ZM51.1656 200.449L52.8058 201.594C54.1958 199.602 55.4883 197.707 56.8361 195.828L55.2109 194.662L53.5857 193.497C52.2187 195.403 50.883 197.359 49.5255 199.305L51.1656 200.449ZM55.2109 194.662L56.8363 195.828C90.7183 148.569 161.379 149.069 194.247 196.985L195.896 195.854L197.545 194.722C163.096 144.5 89.0704 144.003 53.5855 193.497L55.2109 194.662ZM195.896 195.854L194.247 196.985C195.176 198.34 196.072 199.435 196.996 200.19C197.948 200.968 199.077 201.498 200.38 201.402C201.619 201.311 202.636 200.677 203.443 200C204.257 199.318 205.074 198.407 205.905 197.429L204.381 196.133L202.857 194.838C202.031 195.811 201.404 196.49 200.874 196.934C200.337 197.384 200.108 197.412 200.087 197.413C200.085 197.413 200.063 197.418 199.993 197.391C199.911 197.36 199.758 197.281 199.526 197.092C199.042 196.697 198.401 195.969 197.545 194.722L195.896 195.854ZM204.381 196.133L205.905 197.429C234.419 163.875 241.727 125.769 225.296 85.1696L223.442 85.9199L221.588 86.6701C237.424 125.799 230.471 162.343 202.857 194.838L204.381 196.133ZM223.442 85.9199L225.296 85.1696C208.675 44.0973 176.527 21.3135 132.13 17.9517L131.979 19.946L131.828 21.9403C174.76 25.1912 205.556 47.0536 221.588 86.6701L223.442 85.9199ZM131.979 19.946L132.13 17.9517C88.8484 14.6733 48.3282 38.4852 28.8571 77.3503L30.6453 78.2461L32.4334 79.142C51.2039 41.6752 90.2236 18.7889 131.827 21.9403L131.979 19.946ZM30.6453 78.2461L28.8572 77.3503C9.58144 115.824 15.3078 162.976 43.2847 195.701L44.8049 194.401L46.3251 193.102C19.3946 161.6 13.8775 116.178 32.4334 79.142L30.6453 78.2461ZM44.8049 194.401L43.2845 195.701C43.7185 196.208 44.1314 196.739 44.5982 197.328C45.0524 197.901 45.5478 198.517 46.0914 199.113C47.1887 200.315 48.5388 201.501 50.3789 202.288L51.1656 200.449L51.9523 198.611C50.8223 198.127 49.922 197.377 49.0464 196.417C48.6036 195.932 48.1819 195.41 47.7333 194.844C47.2971 194.293 46.8212 193.682 46.3253 193.102L44.8049 194.401ZM242.997 125.964L240.997 125.953C240.647 190.128 188.846 241.446 124.899 240.997L124.885 242.997L124.871 244.997C191.042 245.461 244.635 192.349 244.997 125.975L242.997 125.964ZM124.885 242.997L124.899 240.997C60.7019 240.546 9.45981 188.686 10.0043 124.747L8.00437 124.73L6.00445 124.713C5.441 190.878 58.4765 244.531 124.871 244.997L124.885 242.997ZM8.00437 124.73L10.0043 124.747C10.5478 60.733 61.9902 9.77746 125.822 10.0008L125.829 8.00082L125.836 6.00083C59.7929 5.76975 6.56655 58.5077 6.00445 124.713L8.00437 124.73ZM125.829 8.00082L125.822 10.0008C189.961 10.2253 241.346 61.9647 240.997 125.953L242.997 125.964L244.997 125.975C245.358 59.7661 192.179 6.23307 125.836 6.00083L125.829 8.00082Z"></path>
<mask fill="black" height="97" width="97" y="49.3357" x="77.3008" maskUnits="userSpaceOnUse" id="path-3-outside-2_1671_1004">
<rect height="97" width="97" y="49.3357" x="77.3008" fill="white"></rect>
<path d="M125.534 62.8987C106.546 62.8565 90.8506 78.4628 90.8108 97.4245C90.771 116.275 106.56 132.13 125.422 132.178C144.26 132.227 160.079 116.443 160.139 97.5381C160.198 78.6197 144.535 62.9408 125.534 62.8987ZM171.662 97.33C171.751 122.719 151.22 143.484 125.776 143.74C100.321 143.995 79.219 122.922 79.301 97.3276C79.3818 71.8493 99.9795 51.3369 125.484 51.3357C150.993 51.3357 171.573 71.8329 171.662 97.33Z" clip-rule="evenodd" fill-rule="evenodd"></path>
</mask>
<path style="fill:#2D2926;fill:color(display-p3 0.1765 0.1608 0.1490);fill-opacity:1;" fill="#2D2926" d="M125.534 62.8987C106.546 62.8565 90.8506 78.4628 90.8108 97.4245C90.771 116.275 106.56 132.13 125.422 132.178C144.26 132.227 160.079 116.443 160.139 97.5381C160.198 78.6197 144.535 62.9408 125.534 62.8987ZM171.662 97.33C171.751 122.719 151.22 143.484 125.776 143.74C100.321 143.995 79.219 122.922 79.301 97.3276C79.3818 71.8493 99.9795 51.3369 125.484 51.3357C150.993 51.3357 171.573 71.8329 171.662 97.33Z" clip-rule="evenodd" fill-rule="evenodd"></path>
<path mask="url(#path-3-outside-2_1671_1004)" style="fill:#2D2926;fill:color(display-p3 0.1765 0.1608 0.1490);fill-opacity:1;" fill="#2D2926" d="M90.8108 97.4245L92.8108 97.4288V97.4287L90.8108 97.4245ZM125.422 132.178L125.427 130.178H125.427L125.422 132.178ZM160.139 97.5381L162.139 97.5445V97.5443L160.139 97.5381ZM125.776 143.74L125.796 145.74H125.796L125.776 143.74ZM79.301 97.3276L81.301 97.334V97.334L79.301 97.3276ZM125.484 51.3357V49.3357H125.484L125.484 51.3357ZM125.534 62.8987L125.539 60.8987C105.448 60.8541 88.8529 77.3513 88.8108 97.4203L90.8108 97.4245L92.8108 97.4287C92.8483 79.5742 107.643 64.8589 125.53 64.8987L125.534 62.8987ZM90.8108 97.4245L88.8108 97.4203C88.7686 117.376 105.451 134.127 125.417 134.178L125.422 132.178L125.427 130.178C107.668 130.132 92.7733 115.174 92.8108 97.4288L90.8108 97.4245ZM125.422 132.178L125.416 134.178C145.366 134.23 162.076 117.546 162.139 97.5445L160.139 97.5381L158.139 97.5318C158.083 115.339 143.155 130.224 125.427 130.178L125.422 132.178ZM160.139 97.5381L162.139 97.5443C162.201 77.5126 145.637 60.9433 125.539 60.8987L125.534 62.8987L125.53 64.8987C143.434 64.9384 158.194 79.7269 158.139 97.532L160.139 97.5381ZM171.662 97.33L169.662 97.337C169.747 121.623 150.105 141.495 125.756 141.74L125.776 143.74L125.796 145.74C152.335 145.472 173.755 123.816 173.662 97.323L171.662 97.33ZM125.776 143.74L125.756 141.74C101.427 141.984 81.2226 121.824 81.301 97.334L79.301 97.3276L77.301 97.3212C77.2155 124.02 99.2163 146.007 125.796 145.74L125.776 143.74ZM79.301 97.3276L81.301 97.334C81.3783 72.9596 101.08 53.3368 125.484 53.3357L125.484 51.3357L125.484 49.3357C98.8792 49.3369 77.3853 70.739 77.301 97.3213L79.301 97.3276ZM125.484 51.3357V53.3357C149.892 53.3357 169.577 72.9427 169.662 97.3369L171.662 97.33L173.662 97.323C173.569 70.7231 152.094 49.3357 125.484 49.3357V51.3357Z"></path>
</svg>
