<svg xmlns="http://www.w3.org/2000/svg" fill="none" viewBox="0 0 22 26" height="26" width="22">
<g clip-path="url(#clip0_1955_965)">
<path style="fill:#2D2926;fill:color(display-p3 0.1765 0.1608 0.1490);fill-opacity:1;" fill="#2D2926" d="M11.0062 7.18099C11.9832 7.18099 12.9603 7.16948 13.9373 7.1856C14.3414 7.19251 14.515 7.0589 14.4627 6.65345C14.3034 5.4256 14.0348 4.23229 13.198 3.24863C11.988 1.82265 9.80333 1.89176 8.65514 3.37994C7.92296 4.32675 7.70664 5.44403 7.54023 6.58204C7.46654 7.08424 7.69475 7.20173 8.16306 7.19021C9.10919 7.16487 10.0577 7.1833 11.0062 7.18099ZM10.9896 23.7237V23.7167C13.2622 23.7167 15.5324 23.7237 17.8026 23.7121C19.2789 23.7052 19.8209 23.0971 19.6545 21.6987C19.5855 21.1182 19.5285 20.5354 19.4595 19.9548C19.0507 16.4694 18.6394 12.9839 18.2329 9.49849C18.1521 8.80969 17.767 8.4388 17.0491 8.42498C16.5023 8.41346 15.9579 8.42958 15.4112 8.42728C12.1068 8.41806 8.80015 8.40885 5.49584 8.39496C4.1646 8.39042 3.89598 8.63231 3.74621 9.89241C3.26602 13.9584 2.77631 18.0244 2.27234 22.0857C2.21291 22.5534 2.35317 22.9059 2.67409 23.2145C3.11387 23.6361 3.67014 23.7283 4.26444 23.726C6.50615 23.7214 8.74785 23.7237 10.9896 23.7237ZM10.8303 24.9423C8.5862 24.9423 6.34212 24.9538 4.09804 24.9377C2.65507 24.9285 1.51401 24.1821 1.12415 23.0648C1.02906 22.793 0.976766 22.5234 1.01005 22.2447C1.52352 17.87 2.02987 13.4931 2.56474 9.12068C2.71688 7.89513 3.67014 7.16256 5.17016 7.20633C6.0212 7.23167 6.32548 7.00131 6.36827 6.16507C6.42057 5.13533 6.73911 4.14015 7.26448 3.22329C8.06797 1.81805 9.27559 1.01637 10.9491 1.00024C12.6251 0.984118 13.8446 1.76737 14.6695 3.16339C15.2519 4.14936 15.5609 5.22057 15.6584 6.33785C15.7107 6.94372 15.8723 7.19482 16.5807 7.1833C18.5277 7.14874 19.2717 7.84906 19.4952 9.70812C19.9849 13.834 20.4865 17.9576 20.9833 22.0811C21.1497 23.4518 20.0538 24.7119 18.4207 24.9031C16.8185 25.092 15.202 24.9423 13.5926 24.9653C12.6702 24.9792 11.7503 24.9676 10.8303 24.9676C10.8303 24.9584 10.8303 24.9515 10.8303 24.9423Z" clip-rule="evenodd" fill-rule="evenodd"></path>
<path stroke-width="0.38125" style="stroke:#2D2926;stroke:color(display-p3 0.1765 0.1608 0.1490);stroke-opacity:1;" stroke="#2D2926" d="M11.0062 7.18099C11.9832 7.18099 12.9603 7.16948 13.9373 7.1856C14.3414 7.19251 14.515 7.0589 14.4627 6.65345C14.3034 5.4256 14.0348 4.23229 13.198 3.24863C11.988 1.82265 9.80333 1.89176 8.65514 3.37994C7.92296 4.32675 7.70664 5.44403 7.54023 6.58204C7.46654 7.08424 7.69475 7.20173 8.16306 7.19021C9.10919 7.16487 10.0577 7.1833 11.0062 7.18099ZM10.9896 23.7237V23.7167C13.2622 23.7167 15.5324 23.7237 17.8026 23.7121C19.2789 23.7052 19.8209 23.0971 19.6545 21.6987C19.5855 21.1182 19.5285 20.5354 19.4595 19.9548C19.0507 16.4694 18.6394 12.9839 18.2329 9.49849C18.1521 8.80969 17.767 8.4388 17.0491 8.42498C16.5023 8.41346 15.9579 8.42958 15.4112 8.42728C12.1068 8.41806 8.80015 8.40885 5.49584 8.39496C4.1646 8.39042 3.89598 8.63231 3.74621 9.89241C3.26602 13.9584 2.77631 18.0244 2.27234 22.0857C2.21291 22.5534 2.35317 22.9059 2.67409 23.2145C3.11387 23.6361 3.67014 23.7283 4.26444 23.726C6.50615 23.7214 8.74785 23.7237 10.9896 23.7237ZM10.8303 24.9423C8.5862 24.9423 6.34212 24.9538 4.09804 24.9377C2.65507 24.9285 1.51401 24.1821 1.12415 23.0648C1.02906 22.793 0.976766 22.5234 1.01005 22.2447C1.52352 17.87 2.02987 13.4931 2.56474 9.12068C2.71688 7.89513 3.67014 7.16256 5.17016 7.20633C6.0212 7.23167 6.32548 7.00131 6.36827 6.16507C6.42057 5.13533 6.73911 4.14015 7.26448 3.22329C8.06797 1.81805 9.27559 1.01637 10.9491 1.00024C12.6251 0.984118 13.8446 1.76737 14.6695 3.16339C15.2519 4.14936 15.5609 5.22057 15.6584 6.33785C15.7107 6.94372 15.8723 7.19482 16.5807 7.1833C18.5277 7.14874 19.2717 7.84906 19.4952 9.70812C19.9849 13.834 20.4865 17.9576 20.9833 22.0811C21.1497 23.4518 20.0538 24.7119 18.4207 24.9031C16.8185 25.092 15.202 24.9423 13.5926 24.9653C12.6702 24.9792 11.7503 24.9676 10.8303 24.9676C10.8303 24.9584 10.8303 24.9515 10.8303 24.9423Z" clip-rule="evenodd" fill-rule="evenodd"></path>
</g>
<defs>
<clipPath id="clip0_1955_965">
<rect style="fill:white;fill-opacity:1;" fill="white" height="26" width="22"></rect>
</clipPath>
</defs>
</svg>
