<?xml version="1.0" encoding="UTF-8"?>
<svg width="98px" height="31px" viewBox="0 0 98 31" version="1.1" xmlns="http://www.w3.org/2000/svg" xmlns:xlink="http://www.w3.org/1999/xlink">
    <title>FLO_White</title>
    <g id="Page-1" stroke="none" stroke-width="1" fill="none" fill-rule="evenodd">
        <g id="Group-29" transform="translate(-158, -100)" fill="#FFFFFF" fill-rule="nonzero">
            <g id="FLO_White" transform="translate(158, 100)">
                <g id="Layer_2" transform="translate(0, -0)">
                    <g id="Layer_1-2" transform="translate(0, 0)">
                        <g id="Group" transform="translate(0, 0.5464)">
                            <path d="M0.711334324,29.9068364 L12.9134539,29.9068364 C13.303855,29.9009695 13.6189165,29.5861636 13.6247882,29.1960792 L13.6247882,24.9315358 C13.6306599,24.5414514 13.9457214,24.2266455 14.3361225,24.2207786 L25.0061374,24.2207786 C25.1912822,24.2248788 25.3692763,24.1493478 25.4948871,24.0133798 C25.620498,23.8774117 25.6816321,23.6940974 25.6627537,23.5100214 L25.6627537,13.9968092 C25.656882,13.6067248 25.3418205,13.2919189 24.9514193,13.286052 L14.3361225,13.286052 C13.9457214,13.2801851 13.6306599,12.9653791 13.6247882,12.5752948 L13.6247882,12.5752948 L13.6247882,11.645843 C13.6306599,11.2557586 13.9457214,10.9409527 14.3361225,10.9350858 L29.4930154,10.9350858 C29.8834165,10.9292189 30.1984781,10.6144129 30.2043497,10.2243285 L30.2043497,10.2243285 L30.2043497,0.711116417 C30.2232281,0.527040357 30.1620941,0.343726059 30.0364832,0.207758011 C29.9108723,0.0717899633 29.7328782,-0.00374104813 29.5477334,0.000200518027 L0.711334324,0.000200518027 C0.32093322,0.00622610958 0.00587168426,0.32103204 0,0.711116417 L0,0.711116417 L0,29.1960792 C0.00587168426,29.5861636 0.32093322,29.9009695 0.711334324,29.9068364 Z" id="Path"></path>
                            <path d="M49.1915044,18.2613526 L49.1915044,0.711116417 C49.2004009,0.529435201 49.1358566,0.351802693 49.0123783,0.218143008 C48.8888999,0.0844833234 48.7168465,0.00600954525 48.5348881,0.00035918893 L36.2780505,0.00035918893 C36.0875743,-0.00578507033 35.9030488,0.0671231753 35.7682916,0.201771038 C35.6335344,0.336418901 35.5605669,0.520794737 35.5667162,0.711116417 L35.5667162,0.711116417 L35.5667162,29.1960792 C35.5725879,29.5861636 35.8876494,29.9009695 36.2780505,29.9068364 L63.5276269,29.9068364 C63.918028,29.9009695 64.2330895,29.5861636 64.2389612,29.1960792 L64.2389612,29.1960792 L64.2389612,19.682867 C64.2330895,19.2927827 63.918028,18.9779767 63.5276269,18.9721098 L49.9028387,18.9721098 C49.5124376,18.9662429 49.1973761,18.651437 49.1915044,18.2613526 L49.1915044,18.2613526 Z" id="Path"></path>
                        </g>
                        <path d="M82.5147815,2.45080828e-05 C73.9474508,-0.0150352625 66.9900162,6.91229103 66.9748861,15.4726712 C66.9598053,24.0330514 73.8927489,30.9848487 82.4600797,30.9999754 C91.0274104,31.0150529 97.9848593,24.087741 97.9999913,15.5273609 L97.9999913,15.4726872 C98.0043446,11.3677539 96.3742735,7.42969496 93.4692889,4.52706711 C90.5643043,1.62443926 86.6230479,-0.00430935736 82.5147815,2.45080828e-05 L82.5147815,2.45080828e-05 Z M82.5147815,19.2451679 C80.444797,19.2602099 78.754529,17.5957308 78.739438,15.5274259 C78.724347,13.459121 80.3901475,11.7701947 82.4601315,11.7550792 C84.5301155,11.7399637 86.2204427,13.4043829 86.2356072,15.4726872 C86.2458144,16.4668387 85.8588345,17.4240143 85.1604096,18.1321351 C84.4619848,18.8402559 83.5097832,19.2408533 82.5147815,19.2451679 Z" id="Shape"></path>
                    </g>
                </g>
            </g>
        </g>
    </g>
</svg>