<svg xmlns="http://www.w3.org/2000/svg" fill="none" viewBox="0 0 103 27" height="27" width="103">
<g clip-path="url(#clip0_2289_952)">
<path style="fill:#2D2926;fill:color(display-p3 0.1765 0.1608 0.1490);fill-opacity:1;" fill="#2D2926" d="M58.8626 0.5C58.7353 2.85169 58.6711 5.18599 58.6645 7.54333L58.6674 8.96082C58.7922 8.90821 58.883 8.87034 58.9737 8.83067C59.8689 8.43421 60.7871 8.11436 61.7587 7.97126C64.3934 7.58343 66.5606 8.4057 68.2016 10.5605C69.163 11.8224 69.6942 13.2636 69.8902 14.8392C70.116 16.6536 70.0065 18.4465 69.4405 20.185C68.5343 22.9699 66.737 24.9075 63.9954 25.8936C62.6904 26.3633 61.331 26.509 59.9521 26.4996C58.4146 26.4883 56.8965 26.2875 55.3861 26.0195C54.7175 25.9005 54.053 25.7608 53.3802 25.629C53.3802 25.4419 53.3767 25.279 53.3802 25.1162C53.4183 23.1371 53.4812 21.159 53.4905 19.1799C53.5058 15.665 53.499 12.15 53.4812 8.63413C53.4752 7.50158 53.4277 6.36723 53.353 5.23635C53.3225 4.76919 53.1858 4.30718 53.0696 3.84948C52.9083 3.21861 52.4536 2.93935 51.8468 2.86255C51.5668 2.8273 51.2876 2.78584 51 2.74628V2.01449L58.8626 0.5ZM60.154 9.91841C59.7241 9.94498 59.2959 9.98477 58.8651 10.1045L58.6062 10.1865C58.6164 15.1659 58.6173 20.116 58.8056 25.0687C59.2308 25.1419 59.6177 25.2127 60.0063 25.2747C60.1149 25.292 60.2286 25.3006 60.3381 25.2911C60.9092 25.2402 61.4166 25.0247 61.8647 24.6628C62.2329 24.3645 62.5358 24.0059 62.798 23.6103C63.2316 22.957 63.5515 22.2467 63.79 21.4994C64.5112 19.2446 64.6419 16.9372 64.3169 14.6023C64.1625 13.4912 63.7925 12.4456 63.1841 11.4984C62.4696 10.3882 61.4701 9.8374 60.154 9.91841Z"></path>
<path style="fill:#2D2926;fill:color(display-p3 0.1765 0.1608 0.1490);fill-opacity:1;" fill="#2D2926" d="M0 1.5H20.7502C20.8214 1.71691 21.0393 7.90798 20.9938 8.48654C20.8017 8.54676 20.5993 8.61139 20.396 8.67161C20.2005 8.72931 20.0032 8.78186 19.7794 8.8447C19.7408 8.73709 19.7039 8.64491 19.6731 8.55107C19.3394 7.55235 18.9329 6.5881 18.3359 5.71517C17.6198 4.66822 16.7064 3.8719 15.4834 3.47328C14.9722 3.30618 14.4456 3.21758 13.9113 3.21243C12.5467 3.19951 11.1822 3.20549 9.81766 3.20549C9.75845 3.20549 9.6993 3.21663 9.60926 3.2262C9.3837 6.57264 9.36307 9.91132 9.34595 13.263C9.43856 13.2751 9.49687 13.2906 9.55608 13.2897C10.4069 13.2776 11.2585 13.2673 12.1102 13.2484C12.8495 13.2312 13.4919 12.9755 14.0082 12.4313C14.4121 12.0069 14.6849 11.5015 14.8838 10.9566C15.0185 10.5907 15.1249 10.2153 15.251 9.82273H16.2621V18.2952H15.2467C15.2141 18.1851 15.1729 18.0602 15.1403 17.9337C14.9945 17.3732 14.7981 16.8333 14.5065 16.3322C14.1103 15.6522 13.5845 15.1227 12.8015 14.9126C12.6145 14.8617 12.419 14.8247 12.2269 14.8187C11.334 14.792 10.4421 14.7783 9.54924 14.7602C9.49946 14.7594 9.44889 14.7654 9.37942 14.7688C9.36911 14.8403 9.34769 14.9083 9.34938 14.9754C9.39999 16.7146 9.44459 18.4536 9.5072 20.1919C9.5338 20.9117 9.5784 21.6322 9.65042 22.3485C9.69502 22.7962 9.77821 23.2448 9.89316 23.6796C10.1358 24.6017 10.7859 25.1131 11.6831 25.305C12.1016 25.3954 12.5382 25.398 12.9662 25.4402C13.1068 25.454 13.2475 25.4686 13.3924 25.4824V26.5H0.0034821V25.4815C0.209312 25.4487 0.428024 25.416 0.645835 25.3782C0.978607 25.3205 1.31656 25.2809 1.64248 25.194C2.36545 24.9993 2.86034 24.5508 3.09789 23.8216C3.31917 23.1415 3.42208 22.4397 3.48044 21.7321C3.69486 19.1355 3.79432 16.5329 3.78061 13.9268C3.7703 11.8467 3.71198 9.76849 3.57048 7.69275C3.52243 6.99449 3.48128 6.2954 3.43067 5.59715C3.39381 5.09269 3.29686 4.60021 3.12537 4.12234C2.92551 3.56797 2.54903 3.18573 2.02582 2.93435C1.55501 2.70787 1.05409 2.61832 0.539519 2.58133C0.366246 2.56841 0.193865 2.54854 0 2.52963V1.5Z"></path>
<path style="fill:#2D2926;fill:color(display-p3 0.1765 0.1608 0.1490);fill-opacity:1;" fill="#2D2926" d="M27.2067 7.5C28.2476 7.52776 29.2688 7.65185 30.267 7.94441C32.1548 8.49913 33.5683 9.66929 34.575 11.369C35.2972 12.5876 35.7227 13.9071 35.8954 15.3151C36.0859 16.8759 36.0253 18.4193 35.6381 19.9471C34.9134 22.8064 32.5496 25.8212 28.5552 26.3724C27.093 26.5747 25.6403 26.5469 24.2003 26.2136C21.9031 25.6814 20.2554 24.2986 19.1616 22.2031C18.4454 20.8317 18.0942 19.3619 18.0189 17.8186C17.9557 16.526 18.0446 15.25 18.3779 13.9939C19.118 11.2066 21.4442 8.20486 25.4394 7.66403C25.8302 7.6114 26.2237 7.57997 26.6171 7.54891L27.2067 7.5ZM25.1838 9.50866C24.7744 9.9748 24.4941 10.5095 24.2881 11.0894C23.8702 12.2613 23.707 13.4843 23.6224 14.7178C23.4994 16.5113 23.4951 18.3056 23.7284 20.0937C23.8677 21.1562 24.0976 22.1962 24.5189 23.1849C24.7308 23.6831 24.9957 24.1476 25.3581 24.5512C26.3742 25.6858 28.0202 25.5468 28.8919 24.48C29.1627 24.1493 29.3773 23.7873 29.5456 23.3949C29.919 22.5217 30.1045 21.5989 30.2344 20.6623C30.3712 19.6836 30.4194 18.6994 30.454 17.7134L30.4737 17.1215C30.431 16.2717 30.4105 15.4202 30.3404 14.5729C30.2549 13.5373 30.0772 12.5156 29.7379 11.5303C29.4935 10.8221 29.1918 10.1467 28.7081 9.56418C27.6997 8.34983 25.9922 8.58762 25.1838 9.50866Z"></path>
<path style="fill:#2D2926;fill:color(display-p3 0.1765 0.1608 0.1490);fill-opacity:1;" fill="#2D2926" d="M81.6685 7.57919C83.827 7.85304 85.4972 8.88616 86.6393 10.7329C87.3671 11.909 87.7595 13.1967 87.9161 14.5595C87.9584 14.9318 87.9733 15.3076 87.9962 15.6817C88.0022 15.7811 87.9997 15.8814 87.9981 16.0008L87.9971 16.1272H76.6114C76.5929 16.1847 76.5709 16.2213 76.57 16.2589C76.5199 17.7271 76.7003 19.1561 77.3901 20.4788C78.051 21.7448 78.9714 22.7587 80.3389 23.3124C80.9575 23.5626 81.6034 23.7021 82.266 23.7614C83.5331 23.8748 84.7703 23.7571 85.9327 23.2078C86.3481 23.0116 86.737 22.7587 87.1779 22.5085L87.7005 23.1258C87.448 23.4056 87.2263 23.6978 86.9579 23.9401C85.4145 25.3326 83.6281 26.2192 81.5303 26.4312C79.7739 26.6082 78.0527 26.4669 76.431 25.7363C73.631 24.4746 71.8491 22.3655 71.2401 19.3567C70.823 17.292 70.9357 15.2422 71.6854 13.2604C72.4492 11.242 73.733 9.63342 75.6628 8.57752C76.6888 8.01599 77.7984 7.7117 78.96 7.58271C79.8619 7.48245 80.7656 7.46414 81.6685 7.57919ZM79.5752 8.69437C79.1441 8.76844 78.7683 8.9515 78.477 9.26366C78.2359 9.52176 78.0054 9.80252 77.8338 10.1077C77.0716 11.4667 76.7909 12.9457 76.6974 14.5162L76.6802 14.8542L82.3489 14.7504C82.3489 14.5752 82.3533 14.4418 82.348 14.3084C82.3304 13.8708 82.3357 13.4305 82.2846 12.9971C82.2028 12.3048 82.106 11.6125 81.974 10.929C81.8675 10.3745 81.6599 9.84702 81.3149 9.3866C80.8794 8.80591 80.3021 8.57059 79.5752 8.69437Z"></path>
<path style="fill:#2D2926;fill:color(display-p3 0.1765 0.1608 0.1490);fill-opacity:1;" fill="#2D2926" d="M89 20.1209L89.8724 19.8574C89.9697 20.1044 90.0551 20.3252 90.1438 20.5453C90.5468 21.5402 91.0316 22.4853 91.735 23.3002C92.4068 24.0793 93.2135 24.6376 94.2285 24.8367C94.9634 24.982 95.6992 24.9838 96.3941 24.6724C97.5089 24.1724 98.3429 22.9585 97.9887 21.4819C97.835 20.8392 97.4518 20.3445 96.9216 19.9713C96.3736 19.5844 95.771 19.3027 95.1529 19.053C94.5178 18.7974 93.8751 18.5609 93.2434 18.2956C92.5536 18.006 91.8989 17.6486 91.2834 17.2129C90.0653 16.352 89.4968 15.1451 89.4225 13.6667C89.3167 11.5597 90.2301 9.98561 91.8853 8.80561C92.8592 8.11073 93.9578 7.729 95.129 7.59685C97.1615 7.36639 99.1633 7.53857 101.111 8.20649C101.324 8.27952 101.53 8.37081 101.738 8.45605C101.774 8.47081 101.806 8.49947 101.854 8.53163C101.922 10.0221 101.99 11.5153 102.06 13.0379L101.189 13.3032C101.14 13.1649 101.098 13.051 101.058 12.9362C100.748 12.0283 100.36 11.1614 99.7753 10.3978C99.1855 9.62914 98.4573 9.07078 97.5046 8.85773C97.1137 8.76994 96.7159 8.73342 96.3181 8.78299C95.3313 8.90645 94.6791 9.48392 94.394 10.4239C93.9843 11.7718 94.3224 12.8257 95.3911 13.5806C95.6506 13.7632 95.9195 13.9423 96.2054 14.0745C96.9566 14.4215 97.7147 14.7555 98.4803 15.0685C99.4108 15.4494 100.32 15.8668 101.139 16.4659C101.951 17.0608 102.571 17.8095 102.797 18.82C103.212 20.6679 103.034 22.428 101.859 23.9698C101.066 25.0124 99.9862 25.6551 98.7603 26.0455C97.7095 26.3803 96.6272 26.4916 95.5285 26.4995C93.5114 26.5134 91.5412 26.2369 89.6325 25.5551C89.4993 25.5072 89.3679 25.4534 89.2074 25.3916L89 20.1209Z"></path>
<path style="fill:#2D2926;fill:color(display-p3 0.1765 0.1608 0.1490);fill-opacity:1;" fill="#2D2926" d="M47.8083 26.5H37.0191C36.9872 26.1964 37.004 25.8903 37.0081 25.5581C37.2167 25.5261 37.4109 25.4898 37.6069 25.4662C38.4797 25.3608 39.022 24.9122 39.2491 24.0547C39.3408 23.7063 39.3887 23.3422 39.4181 22.9821C39.6115 20.5873 39.6981 18.19 39.5796 15.7895C39.5324 14.8232 39.4551 13.8577 39.3828 12.893C39.3533 12.4993 39.2642 12.1164 39.0885 11.7581C38.8034 11.1771 38.3477 10.8457 37.6935 10.8052C37.474 10.7917 37.2562 10.7664 37.0208 10.7453V10.0354L44.761 8.50327L44.7147 12.4217L44.7593 12.4436C44.8022 12.3626 44.8492 12.2833 44.8879 12.2008C45.3067 11.3179 45.8389 10.5152 46.5882 9.87772C47.2533 9.31191 47.9714 8.82453 48.8316 8.62041C49.897 8.36751 50.9271 8.52602 51.9185 8.97378C51.9437 8.98562 51.963 9.01258 52 9.04624L50.1265 13.7641C49.9003 13.6485 49.7061 13.5465 49.5085 13.4504C48.8333 13.1223 48.1278 12.899 47.3752 12.8467C46.7555 12.8036 46.1492 12.8829 45.5707 13.1122C45.3773 13.189 45.1948 13.3029 45.0241 13.4242C44.8013 13.5827 44.7021 13.7961 44.6811 14.0896C44.5499 15.9623 44.5062 17.8376 44.5835 19.7121C44.6373 21.0208 44.7627 22.326 44.8736 23.6313C44.8946 23.8775 44.9762 24.1255 45.0679 24.3582C45.3429 25.0556 45.8625 25.4223 46.6134 25.4619C47.0035 25.483 47.3929 25.5176 47.8083 25.548L47.8083 26.5Z"></path>
</g>
<defs>
<clipPath id="clip0_2289_952">
<rect transform="translate(0 0.5)" style="fill:white;fill-opacity:1;" fill="white" height="26" width="103"></rect>
</clipPath>
</defs>
</svg>
