<svg xmlns="http://www.w3.org/2000/svg" fill="none" viewBox="0 0 15 15" height="15" width="15">
<path style="fill:#2D2926;fill:color(display-p3 0.1765 0.1608 0.1490);fill-opacity:1;" fill="#2D2926" d="M6.70317 1.05088C7.10332 0.523149 7.89668 0.523148 8.29683 1.05088L9.15562 2.18346C9.37395 2.47141 9.73066 2.61917 10.0887 2.56994L11.4968 2.37634C12.1529 2.28613 12.7139 2.84711 12.6237 3.50323L12.4301 4.91134C12.3808 5.26934 12.5286 5.62605 12.8165 5.84438L13.9491 6.70317C14.4769 7.10332 14.4769 7.89668 13.9491 8.29683L12.8165 9.15562C12.5286 9.37395 12.3808 9.73066 12.4301 10.0887L12.6237 11.4968C12.7139 12.1529 12.1529 12.7139 11.4968 12.6237L10.0887 12.4301C9.73066 12.3808 9.37395 12.5286 9.15562 12.8165L8.29683 13.9491C7.89668 14.4769 7.10332 14.4769 6.70317 13.9491L5.84438 12.8165C5.62605 12.5286 5.26934 12.3808 4.91134 12.4301L3.50323 12.6237C2.84712 12.7139 2.28613 12.1529 2.37634 11.4968L2.56994 10.0887C2.61917 9.73066 2.47142 9.37395 2.18347 9.15562L1.05088 8.29683C0.523149 7.89668 0.523148 7.10332 1.05088 6.70317L2.18346 5.84438C2.47141 5.62605 2.61917 5.26934 2.56994 4.91134L2.37634 3.50323C2.28613 2.84712 2.84711 2.28613 3.50323 2.37634L4.91134 2.56994C5.26934 2.61917 5.62605 2.47142 5.84438 2.18347L6.70317 1.05088Z" opacity="0.5"></path>
<path stroke-linejoin="round" stroke-linecap="round" style="stroke:#FFFAF4;stroke:color(display-p3 1.0000 0.9804 0.9569);stroke-opacity:1;" stroke="#FFFAF4" d="M5.5 7.5L7 9L10 6"></path>
</svg>
