<svg xmlns="http://www.w3.org/2000/svg" fill="none" viewBox="0 0 48 48" height="48" width="48">
<circle style="fill:white;fill-opacity:1;" fill="white" r="24" cy="24" cx="24"></circle>
<g clip-path="url(#clip0_1082_950)">
<mask height="24" width="25" y="12" x="12" maskUnits="userSpaceOnUse" style="mask-type:luminance" id="mask0_1082_950">
<path style="fill:white;fill-opacity:1;" fill="white" d="M12.6191 12H36.6338V36H12.6191V12Z"></path>
</mask>
<g mask="url(#mask0_1082_950)">
<path style="fill:#EF609C;fill:color(display-p3 0.9373 0.3765 0.6118);fill-opacity:1;" fill="#EF609C" d="M24.6192 33.7718C26.2149 33.7709 27.811 33.8042 29.4058 33.7174C30.0698 33.6813 30.7282 33.6173 31.3661 33.4159C31.9293 33.2382 32.4388 32.9691 32.8835 32.5732C33.6117 31.9247 34.0072 31.1006 34.1971 30.1621C34.3791 29.2627 34.3934 28.3476 34.398 27.438C34.4118 24.6967 34.467 21.9548 34.3494 19.2143C34.3293 18.7459 34.2911 18.279 34.194 17.8196C34.0231 17.011 33.7086 16.2765 33.1291 15.6641C32.4891 14.9878 31.6964 14.6169 30.8009 14.4347C29.9015 14.2516 28.9858 14.2356 28.0755 14.2318C25.3328 14.2201 22.5894 14.1631 19.8472 14.2802C19.3734 14.3005 18.9024 14.3439 18.4369 14.4373C17.409 14.6435 16.5368 15.1139 15.8786 15.9467C15.4018 16.55 15.162 17.2523 15.0265 17.9964C14.8759 18.8237 14.8598 19.6637 14.8556 20.4988C14.8416 23.2999 14.7855 26.1017 14.9079 28.9019C14.9318 29.4499 15.0016 29.9929 15.1414 30.5265C15.3994 31.5115 15.9352 32.3038 16.7693 32.8872C17.2801 33.2445 17.8604 33.4419 18.4669 33.5639C19.3764 33.7468 20.3017 33.7465 21.2224 33.766C22.3542 33.7901 23.4869 33.7718 24.6192 33.7718ZM24.616 12.0047C25.449 12.0047 26.2821 11.9922 27.1148 12.0079C28.1362 12.0272 29.1591 12.0259 30.1777 12.1196C31.4047 12.2324 32.5768 12.5311 33.6194 13.2167C34.6675 13.9058 35.4446 14.8267 35.9297 15.9884C36.3267 16.939 36.4958 17.9356 36.5466 18.9584C36.6701 21.4489 36.628 23.9412 36.6226 26.4328C36.6206 27.3639 36.6044 28.2964 36.539 29.2261C36.4686 30.2259 36.2942 31.2039 35.8776 32.1255C35.2021 33.6198 34.1057 34.6817 32.5923 35.3137C31.6741 35.6972 30.7088 35.8584 29.7219 35.9088C27.2102 36.037 24.6965 35.9951 22.1835 35.9871C21.1373 35.9838 20.089 35.9731 19.0459 35.8745C17.7046 35.7478 16.4384 35.3929 15.3389 34.5754C14.1807 33.7142 13.4243 32.5768 13.0368 31.1908C12.8345 30.4674 12.7418 29.7282 12.7043 28.979C12.5796 26.4883 12.6278 23.9961 12.6307 21.5044C12.6318 20.5882 12.6513 19.6708 12.7143 18.7559C12.7934 17.6071 13.0156 16.491 13.5704 15.468C14.2701 14.1781 15.296 13.2409 16.6607 12.6823C17.6049 12.2957 18.5937 12.1365 19.6062 12.0836C21.2753 11.9965 22.9456 12.0019 24.616 12.0047Z" clip-rule="evenodd" fill-rule="evenodd"></path>
</g>
<path style="fill:#EF609C;fill:color(display-p3 0.9373 0.3765 0.6118);fill-opacity:1;" fill="#EF609C" d="M24.2196 28.261C26.3349 28.2651 28.088 26.5349 28.0855 24.4169C28.0828 22.2306 26.3455 20.5489 24.2382 20.544C22.1064 20.5391 20.3651 22.2357 20.3669 24.4057C20.3688 26.5319 22.0614 28.2314 24.2196 28.261ZM18.2217 24.4165C18.2117 21.0975 20.8955 18.4042 24.2167 18.4C27.5395 18.3958 30.2236 21.074 30.229 24.3991C30.2344 27.7092 27.5503 30.3958 24.2336 30.4C20.9172 30.4042 18.2317 27.7314 18.2217 24.4165Z" clip-rule="evenodd" fill-rule="evenodd"></path>
<path style="fill:#EF609C;fill:color(display-p3 0.9373 0.3765 0.6118);fill-opacity:1;" fill="#EF609C" d="M30.2254 15.9999C31.1178 15.999 31.8276 16.7006 31.8299 17.5857C31.8322 18.4824 31.1239 19.199 30.2344 19.1999C29.3436 19.2009 28.628 18.4864 28.6279 17.5962C28.6279 16.7157 29.3433 16.0008 30.2254 15.9999Z" clip-rule="evenodd" fill-rule="evenodd"></path>
</g>
<defs>
<clipPath id="clip0_1082_950">
<rect transform="translate(12 12)" style="fill:white;fill-opacity:1;" fill="white" height="24" width="24.6316"></rect>
</clipPath>
</defs>
</svg>
