<svg xmlns="http://www.w3.org/2000/svg" fill="none" viewBox="0 0 352 68" height="68" width="352">
<g clip-path="url(#clip0_26_2842)">
<path style="fill:#ED5D9C;fill:color(display-p3 0.9294 0.3647 0.6118);fill-opacity:1;" fill="#ED5D9C" d="M318.22 67.564H33.7841C15.1529 67.564 0 52.4111 0 33.7841C0 15.1571 15.1529 0 33.7841 0H318.22C336.847 0 352.004 15.1529 352.004 33.7841C352.004 52.4152 336.851 67.5682 318.22 67.5682V67.564ZM33.7841 1.87898C16.1926 1.87898 1.87898 16.1926 1.87898 33.7841C1.87898 51.3755 16.1926 65.6892 33.7841 65.6892H318.22C335.812 65.6892 350.125 51.3755 350.125 33.7841C350.125 16.1926 335.812 1.87898 318.22 1.87898H33.7841Z"></path>
<path style="fill:#ED5D9C;fill:color(display-p3 0.9294 0.3647 0.6118);fill-opacity:1;" fill="#ED5D9C" d="M222.037 35.4586H204.458V49.6554H199.693V17.8755H204.458V31.2163H222.037V17.8755H226.801V49.6512H222.037V35.4545V35.4586Z"></path>
<path style="fill:#ED5D9C;fill:color(display-p3 0.9294 0.3647 0.6118);fill-opacity:1;" fill="#ED5D9C" d="M242.242 26.0721C249.148 26.0721 253.436 31.4544 253.436 38.5068V39.5549H235.239C235.573 43.459 238.433 46.6992 243.052 46.6992C245.482 46.6992 248.15 45.7472 249.866 43.9851L251.866 46.7952C249.578 49.0375 246.338 50.2275 242.621 50.2275C235.761 50.2275 230.713 45.3672 230.713 38.1269C230.713 31.4544 235.523 26.0721 242.246 26.0721H242.242ZM235.189 36.4566H249.244C249.148 33.4085 247.102 29.5963 242.242 29.5963C237.381 29.5963 235.427 33.3125 235.189 36.4566Z"></path>
<path style="fill:#ED5D9C;fill:color(display-p3 0.9294 0.3647 0.6118);fill-opacity:1;" fill="#ED5D9C" d="M271.4 47.1293C269.592 49.1294 266.97 50.2275 263.871 50.2275C260.059 50.2275 255.871 47.6554 255.871 42.603C255.871 37.5507 260.013 35.0746 263.871 35.0746C266.97 35.0746 269.638 36.0767 271.4 38.1227V34.3105C271.4 31.4502 269.066 29.7383 265.78 29.7383C263.157 29.7383 260.919 30.7404 258.869 32.7864L257.011 29.8301C259.583 27.3039 262.731 26.068 266.443 26.068C271.446 26.068 275.688 28.256 275.688 34.1184V49.6513H271.4V47.1251V47.1293ZM271.4 40.699C270.114 38.9829 267.876 38.0809 265.491 38.0809C262.393 38.0809 260.201 39.9391 260.201 42.6531C260.201 45.3672 262.393 47.2253 265.491 47.2253C267.872 47.2253 270.11 46.3192 271.4 44.6073V40.699Z"></path>
<path style="fill:#ED5D9C;fill:color(display-p3 0.9294 0.3647 0.6118);fill-opacity:1;" fill="#ED5D9C" d="M280.928 17.8755H285.216V49.6512H280.928V17.8755Z"></path>
<path style="fill:#ED5D9C;fill:color(display-p3 0.9294 0.3647 0.6118);fill-opacity:1;" fill="#ED5D9C" d="M291.266 44.5571V30.4104H287.454V26.6441H291.266V20.3558H295.555V26.6441H300.227V30.4104H295.555V43.605C295.555 45.2251 296.319 46.4152 297.797 46.4152C298.799 46.4152 299.701 45.9851 300.131 45.5091L301.229 48.7493C300.323 49.6052 298.991 50.2274 296.749 50.2274C293.129 50.2274 291.271 48.1772 291.271 44.5571H291.266Z"></path>
<path style="fill:#ED5D9C;fill:color(display-p3 0.9294 0.3647 0.6118);fill-opacity:1;" fill="#ED5D9C" d="M318.9 34.8407C318.9 31.0284 316.946 29.8843 313.99 29.8843C311.322 29.8843 308.896 31.5044 307.655 33.2164V49.6554H303.367V17.8755H307.655V29.8843C309.18 28.0262 312.278 26.0721 315.802 26.0721C320.708 26.0721 323.188 28.5482 323.188 33.4085V49.6554H318.9V34.8407Z"></path>
<path style="fill:#ED5D9C;fill:color(display-p3 0.9294 0.3647 0.6118);fill-opacity:1;" fill="#ED5D9C" d="M38.6276 18.8859C47.8012 18.8859 54.4778 25.4247 54.4778 34.5524C54.4778 43.6801 47.8012 50.2231 38.6276 50.2231C29.454 50.2231 22.8232 43.6842 22.8232 34.5524C22.8232 25.4205 29.4999 18.8859 38.6276 18.8859ZM38.6276 24.7483C33.1201 24.7483 29.5792 28.9572 29.5792 34.5566C29.5792 40.1559 33.1159 44.3649 38.6276 44.3649C44.1392 44.3649 47.7177 40.11 47.7177 34.5566C47.7177 29.0031 44.1351 24.7483 38.6276 24.7483Z"></path>
<path style="fill:#ED5D9C;fill:color(display-p3 0.9294 0.3647 0.6118);fill-opacity:1;" fill="#ED5D9C" d="M60.6455 19.5916H74.9926C81.9239 19.5916 85.6986 24.2765 85.6986 29.8675C85.6986 35.4585 81.8738 40.0516 74.9926 40.0516H67.4349V49.6511H60.6455V19.5916ZM74.0823 25.4206H67.4349V34.2142H74.0823C76.7588 34.2142 78.7672 32.4939 78.7672 29.8174C78.7672 27.1409 76.7588 25.4206 74.0823 25.4206Z"></path>
<path style="fill:#ED5D9C;fill:color(display-p3 0.9294 0.3647 0.6118);fill-opacity:1;" fill="#ED5D9C" d="M85.6064 38.0806C85.6064 31.5334 90.1953 25.9883 97.7948 25.9883C105.394 25.9883 110.033 31.5334 110.033 38.0806C110.033 44.6278 105.444 50.223 97.7948 50.223C90.1452 50.223 85.6064 44.6779 85.6064 38.0806ZM103.724 38.0806C103.724 34.4939 101.574 31.3873 97.7948 31.3873C94.0159 31.3873 91.9156 34.4939 91.9156 38.0806C91.9156 41.6674 94.0201 44.8199 97.7948 44.8199C101.569 44.8199 103.724 41.7133 103.724 38.0806Z"></path>
<path style="fill:#ED5D9C;fill:color(display-p3 0.9294 0.3647 0.6118);fill-opacity:1;" fill="#ED5D9C" d="M112.956 42.3856C114.63 43.9639 118.071 45.5423 120.939 45.5423C123.57 45.5423 124.81 44.6362 124.81 43.1998C124.81 41.5755 122.802 40.9993 120.175 40.4732C116.208 39.7091 111.093 38.7529 111.093 33.2537C111.093 29.383 114.488 25.9883 120.559 25.9883C124.48 25.9883 127.587 27.3245 129.879 29.145L127.441 33.3038C126.054 31.8215 123.424 30.6273 120.605 30.6273C118.405 30.6273 116.973 31.4416 116.973 32.7777C116.973 34.2099 118.789 34.736 121.369 35.2622C125.336 36.0263 130.643 37.0785 130.643 42.8157C130.643 47.0204 127.056 50.223 120.651 50.223C116.634 50.223 112.764 48.8827 110.325 46.6363L112.956 42.3814V42.3856Z"></path>
<path style="fill:#ED5D9C;fill:color(display-p3 0.9294 0.3647 0.6118);fill-opacity:1;" fill="#ED5D9C" d="M132.739 26.5604H138.811V49.651H132.739V26.5604ZM132.602 21.9381C132.602 20.1844 134.063 18.7647 135.775 18.7647C137.487 18.7647 138.948 20.1844 138.948 21.9381C138.948 23.6918 137.529 25.1115 135.775 25.1115C134.021 25.1115 132.602 23.6918 132.602 21.9381Z"></path>
<path style="fill:#ED5D9C;fill:color(display-p3 0.9294 0.3647 0.6118);fill-opacity:1;" fill="#ED5D9C" d="M145.09 43.9139V31.8675H141.266V26.5605H145.09V19.5873H151.208V26.5605H155.892V31.8675H151.208V42.2896C151.208 43.726 151.972 44.8241 153.312 44.8241C154.222 44.8241 155.082 44.4901 155.416 44.1561L156.707 48.745C155.801 49.5592 154.172 50.2273 151.642 50.2273C147.387 50.2273 145.095 48.0268 145.095 43.9181L145.09 43.9139Z"></path>
<path style="fill:#ED5D9C;fill:color(display-p3 0.9294 0.3647 0.6118);fill-opacity:1;" fill="#ED5D9C" d="M159.445 26.5604H165.517V49.651H159.445V26.5604ZM159.308 21.9381C159.308 20.1844 160.769 18.7647 162.481 18.7647C164.193 18.7647 165.654 20.1844 165.654 21.9381C165.654 23.6918 164.235 25.1115 162.481 25.1115C160.727 25.1115 159.308 23.6918 159.308 21.9381Z"></path>
<path style="fill:#ED5D9C;fill:color(display-p3 0.9294 0.3647 0.6118);fill-opacity:1;" fill="#ED5D9C" d="M167.634 26.5604H174.135L180.156 42.6236L186.178 26.5604H192.725L183.451 49.651H176.904L167.63 26.5604H167.634Z"></path>
<path style="fill:#ED5D9C;fill:color(display-p3 0.9294 0.3647 0.6118);fill-opacity:1;" fill="#ED5D9C" d="M324.708 17.4036V17.984H323.585V20.9193H322.883V17.984H321.756V17.4036H324.708ZM328.512 20.9193L328.382 18.8525C328.382 18.5811 328.382 18.2512 328.357 17.867H328.307C328.215 18.1677 328.115 18.5936 328.007 18.9151L327.376 20.8692H326.654L326.019 18.865C325.956 18.5936 325.852 18.1802 325.777 17.867H325.739C325.739 18.1927 325.739 18.531 325.714 18.8525L325.585 20.9193H324.913L325.188 17.4036H326.236L326.837 19.1239C326.917 19.3953 326.984 19.6542 327.071 20.0258C327.163 19.7043 327.238 19.4036 327.318 19.1448L327.919 17.4119H328.917L329.188 20.9277L328.524 20.9152L328.512 20.9193Z"></path>
</g>
<defs>
<clipPath id="clip0_26_2842">
<rect style="fill:white;fill-opacity:1;" fill="white" height="67.564" width="352"></rect>
</clipPath>
</defs>
</svg>
