<svg xmlns="http://www.w3.org/2000/svg" fill="none" viewBox="0 0 1624 174" height="174" width="1624">
<g clip-path="url(#clip0_1492_1236)">
<g clip-path="url(#clip1_1492_1236)">
<path style="fill:#2D2926;fill:color(display-p3 0.1765 0.1608 0.1490);fill-opacity:1;" fill="#2D2926" d="M1056.04 95.7101H962.857V170.968H937.602V2.52344H962.857V73.2434H1056.04V2.52344H1081.3V170.968H1056.04V95.7101Z"></path>
<path style="fill:#2D2926;fill:color(display-p3 0.1765 0.1608 0.1490);fill-opacity:1;" fill="#2D2926" d="M1163.15 45.9514C1199.76 45.9514 1222.5 74.4829 1222.5 111.868V117.424H1126.03C1127.8 138.12 1142.97 155.296 1167.45 155.296C1180.33 155.296 1194.47 150.25 1203.57 140.909L1214.17 155.805C1202.04 167.692 1184.87 174 1165.17 174C1128.8 174 1102.04 148.235 1102.04 109.854C1102.04 74.4829 1127.54 45.9514 1163.18 45.9514H1163.15ZM1125.77 101.022H1200.27C1199.76 84.864 1188.92 64.6551 1163.15 64.6551C1137.39 64.6551 1127.03 84.3549 1125.77 101.022Z"></path>
<path style="fill:#2D2926;fill:color(display-p3 0.1765 0.1608 0.1490);fill-opacity:1;" fill="#2D2926" d="M1317.72 157.576C1308.14 168.179 1294.24 174 1277.81 174C1257.6 174 1235.4 160.365 1235.4 133.582C1235.4 106.8 1257.36 93.6737 1277.81 93.6737C1294.24 93.6737 1308.38 98.986 1317.72 109.832V89.6231C1317.72 74.4609 1305.35 65.3857 1287.93 65.3857C1274.03 65.3857 1262.16 70.698 1251.3 81.544L1241.45 65.8727C1255.08 52.4813 1271.77 45.9294 1291.45 45.9294C1317.96 45.9294 1340.45 57.528 1340.45 88.6049V170.946H1317.72V157.554V157.576ZM1317.72 123.489C1310.9 114.392 1299.04 109.611 1286.4 109.611C1269.98 109.611 1258.36 119.461 1258.36 133.848C1258.36 148.236 1269.98 158.085 1286.4 158.085C1299.02 158.085 1310.88 153.282 1317.72 144.207V123.489Z"></path>
<path style="fill:#2D2926;fill:color(display-p3 0.1765 0.1608 0.1490);fill-opacity:1;" fill="#2D2926" d="M1368.23 2.52344H1390.96V170.968H1368.23V2.52344Z"></path>
<path style="fill:#2D2926;fill:color(display-p3 0.1765 0.1608 0.1490);fill-opacity:1;" fill="#2D2926" d="M1423.06 143.941V68.9493H1402.85V48.9839H1423.06V15.6492H1445.79V48.9839H1470.56V68.9493H1445.79V138.895C1445.79 147.483 1449.84 153.791 1457.68 153.791C1462.99 153.791 1467.77 151.511 1470.05 148.988L1475.87 166.164C1471.07 170.702 1464.01 174 1452.12 174C1432.93 174 1423.08 163.132 1423.08 143.941H1423.06Z"></path>
<path style="fill:#2D2926;fill:color(display-p3 0.1765 0.1608 0.1490);fill-opacity:1;" fill="#2D2926" d="M1569.52 92.4341C1569.52 72.2253 1559.17 66.1604 1543.49 66.1604C1529.35 66.1604 1516.49 74.7486 1509.92 83.8238V170.968H1487.18V2.52344H1509.92V66.1825C1518 56.3326 1534.42 45.9736 1553.1 45.9736C1579.11 45.9736 1592.26 59.0994 1592.26 84.8641V170.99H1569.52V92.4563V92.4341Z"></path>
<path style="fill:#2D2926;fill:color(display-p3 0.1765 0.1608 0.1490);fill-opacity:1;" fill="#2D2926" d="M83.7798 7.85791C132.41 7.85791 167.803 42.5207 167.803 90.9069C167.803 139.293 132.41 173.978 83.7798 173.978C35.1499 173.978 0 139.315 0 90.929C0 42.5428 35.3934 7.85791 83.7798 7.85791ZM83.7798 38.9349C54.5841 38.9349 35.8139 61.2465 35.8139 90.929C35.8139 120.612 54.562 142.923 83.7798 142.923C112.998 142.923 131.967 120.368 131.967 90.929C131.967 61.49 112.975 38.9349 83.7798 38.9349Z"></path>
<path style="fill:#2D2926;fill:color(display-p3 0.1765 0.1608 0.1490);fill-opacity:1;" fill="#2D2926" d="M200.496 11.5986H276.551C313.294 11.5986 333.304 36.4336 333.304 66.0719C333.304 95.7101 313.029 120.058 276.551 120.058H236.487V170.946H200.496V11.5986ZM271.726 42.4985H236.487V89.114H271.726C285.914 89.114 296.561 79.9945 296.561 65.8062C296.561 51.618 285.914 42.4985 271.726 42.4985Z"></path>
<path style="fill:#2D2926;fill:color(display-p3 0.1765 0.1608 0.1490);fill-opacity:1;" fill="#2D2926" d="M332.816 109.633C332.816 74.9257 357.142 45.531 397.428 45.531C437.713 45.531 462.304 74.9257 462.304 109.633C462.304 144.34 437.978 174 397.428 174C356.877 174 332.816 144.605 332.816 109.633ZM428.859 109.633C428.859 90.6192 417.459 74.151 397.428 74.151C377.396 74.151 366.262 90.6192 366.262 109.633C366.262 128.646 377.418 145.358 397.428 145.358C417.437 145.358 428.859 128.89 428.859 109.633Z"></path>
<path style="fill:#2D2926;fill:color(display-p3 0.1765 0.1608 0.1490);fill-opacity:1;" fill="#2D2926" d="M477.8 132.431C486.676 140.798 504.915 149.165 520.122 149.165C534.067 149.165 540.641 144.362 540.641 136.748C540.641 128.137 529.994 125.083 516.071 122.294C495.043 118.243 467.928 113.174 467.928 84.023C467.928 63.5042 485.924 45.5088 518.108 45.5088C538.892 45.5088 555.36 52.5919 567.512 62.2425L554.586 84.2886C547.237 76.4308 533.292 70.1003 518.351 70.1003C506.686 70.1003 499.094 74.4166 499.094 81.4996C499.094 89.0918 508.722 91.8808 522.402 94.6697C543.43 98.7203 571.563 104.298 571.563 134.711C571.563 157.001 552.549 173.978 518.595 173.978C497.301 173.978 476.782 166.873 463.855 154.964L477.8 132.409V132.431Z"></path>
<path style="fill:#2D2926;fill:color(display-p3 0.1765 0.1608 0.1490);fill-opacity:1;" fill="#2D2926" d="M582.672 48.5635H614.856V170.968H582.672V48.5635ZM581.941 24.0383C581.941 14.7418 589.689 7.21606 598.764 7.21606C607.839 7.21606 615.586 14.7418 615.586 24.0383C615.586 33.3349 608.06 40.8606 598.764 40.8606C589.467 40.8606 581.941 33.3349 581.941 24.0383Z"></path>
<path style="fill:#2D2926;fill:color(display-p3 0.1765 0.1608 0.1490);fill-opacity:1;" fill="#2D2926" d="M648.17 140.533V76.6743H627.895V48.5413H648.17V11.5986H680.597V48.5634H705.432V76.6965H680.597V131.944C680.597 139.559 684.648 145.38 691.753 145.38C696.578 145.38 701.138 143.609 702.909 141.839L709.749 166.164C704.945 170.481 696.313 174.022 682.899 174.022C660.344 174.022 648.192 162.357 648.192 140.577L648.17 140.533Z"></path>
<path style="fill:#2D2926;fill:color(display-p3 0.1765 0.1608 0.1490);fill-opacity:1;" fill="#2D2926" d="M724.246 48.5635H756.43V170.968H724.246V48.5635ZM723.516 24.0383C723.516 14.7418 731.263 7.21606 740.338 7.21606C749.413 7.21606 757.16 14.7418 757.16 24.0383C757.16 33.3349 749.635 40.8606 740.338 40.8606C731.041 40.8606 723.516 33.3349 723.516 24.0383Z"></path>
<path style="fill:#2D2926;fill:color(display-p3 0.1765 0.1608 0.1490);fill-opacity:1;" fill="#2D2926" d="M767.655 48.5635H802.119L834.037 133.715L865.955 48.5635H900.662L851.501 170.968H816.794L767.633 48.5635H767.655Z"></path>
<path style="fill:#2D2926;fill:color(display-p3 0.1765 0.1608 0.1490);fill-opacity:1;" fill="#2D2926" d="M1600.32 0V3.07671H1594.36V18.6373H1590.64V3.07671H1584.67V0H1600.32ZM1620.48 18.6373L1619.8 7.6807C1619.8 6.24195 1619.8 4.49332 1619.66 2.45694H1619.4C1618.91 4.05063 1618.38 6.30836 1617.8 8.01272L1614.46 18.3717H1610.63L1607.27 7.74711C1606.94 6.30836 1606.38 4.11703 1605.98 2.45694H1605.78C1605.78 4.18344 1605.78 5.97634 1605.65 7.6807L1604.97 18.6373H1601.4L1602.86 0H1608.42L1611.61 9.11945C1612.03 10.5582 1612.38 11.9305 1612.85 13.9005C1613.33 12.1962 1613.73 10.6025 1614.15 9.23012L1617.34 0.0442692H1622.63L1624.07 18.6816L1620.55 18.6152L1620.48 18.6373Z"></path>
</g>
</g>
<defs>
<clipPath id="clip0_1492_1236">
<rect style="fill:white;fill-opacity:1;" fill="white" height="174" width="1624"></rect>
</clipPath>
<clipPath id="clip1_1492_1236">
<rect style="fill:white;fill-opacity:1;" fill="white" height="174" width="1624"></rect>
</clipPath>
</defs>
</svg>
