<?xml version="1.0" encoding="UTF-8"?>
<svg width="126px" height="31px" viewBox="0 0 126 31" version="1.1" xmlns="http://www.w3.org/2000/svg" xmlns:xlink="http://www.w3.org/1999/xlink">
    <title>MENO-Logo</title>
    <g id="Page-1" stroke="none" stroke-width="1" fill="none" fill-rule="evenodd">
        <g id="Group-29" transform="translate(-158, -88)" fill="#FFFFFF" fill-rule="nonzero">
            <g id="MENO_White" transform="translate(158, 88)">
                <g id="Layer_1-2">
                    <path d="M43.6525659,29.1757009 L43.6525659,30.0780421 L30.111975,30.0780421 L30.111975,29.1757009 L32.0062207,29.1757009 L32.0062207,11.7696687 C32.0062207,7.25796234 31.4444789,5.74752153 29.4391912,5.74752153 C28.4123042,5.76027093 27.4096577,6.06160564 26.5455675,6.61716927 C26.6435302,7.50296951 26.6893326,8.3937733 26.6827371,9.28496083 L26.6827371,29.1757009 L28.5508552,29.1757009 L28.5508552,30.0780421 L15.4870917,30.0780421 L15.4870917,29.1757009 L17.3552099,29.1757009 L17.3552099,11.7696687 C17.3552099,7.25796234 16.793468,5.74752153 14.7881803,5.74752153 C13.8148438,5.75719859 12.8622997,6.03060673 12.0317262,6.53870481 L12.0317262,29.2280105 L13.8998444,29.2280105 L13.8998444,30.0780421 L0.326594089,30.0780421 L0.326594089,29.1757009 L2.65847588,29.1757009 L2.65847588,8.04914562 L0,5.23096385 L11.9990668,0 L11.9990668,5.78675376 C15.7810264,2.02699849 18.289269,0.287703012 20.9020217,0.287703012 C24.0765162,0.287703012 25.8531881,2.24931445 26.4606531,6.02214713 C30.3797821,2.09892424 32.9010885,0.287703012 35.5595644,0.287703012 C39.5309485,0.287703012 41.3533435,3.35435557 41.3533435,9.26534472 L41.3533435,29.1757009 L43.6525659,29.1757009 Z" id="Path"></path>
                    <path d="M65.9197509,24.8928492 C63.9601864,28.6002948 60.831415,30.6861417 56.4877136,30.6861417 C49.9035768,30.6861417 44.4886468,25.0105459 44.4886468,16.0329042 C44.4886468,7.58489758 49.060964,0.575406023 56.5334368,0.575406023 C58.4382353,0.510130535 60.2908995,1.20512281 61.6837393,2.50744559 C63.0765791,3.80976837 63.8954615,5.61270578 63.9601864,7.51951053 C63.9601864,7.67643945 63.9601864,7.83336836 63.9601864,7.99029728 C63.9601864,12.7962453 60.9685845,17.0006325 55.3642299,19.6161144 C58.0292377,22.8854668 61.3866249,25.0040072 64.5088644,25.0040072 C64.9674568,25.0041307 65.4241335,24.9447887 65.8674958,24.8274622 L65.9197509,24.8928492 Z M50.2954897,6.02214713 C50.2954897,10.8280952 52.3073093,15.6863528 55.1094865,19.2761018 C56.4158629,17.1967937 56.9253497,14.8755534 56.9253497,11.9265976 C56.905754,6.89179487 54.2146187,2.61548192 52.1897354,2.61548192 C50.9813373,2.61548192 50.2954897,3.87745195 50.2954897,6.02214713 Z" id="Shape"></path>
                    <path d="M95.0519436,29.1757009 L95.0519436,30.0780421 L81.5113527,30.0780421 L81.5113527,29.1757009 L83.3794709,29.1757009 L83.3794709,11.7696687 C83.3794709,7.25796234 82.491135,5.74752153 80.5772936,5.74752153 C79.5844758,5.79368708 78.6199081,6.09303792 77.7751163,6.61716927 L77.7751163,29.1757009 L79.6432345,29.1757009 L79.6432345,30.0780421 L66.1026436,30.0780421 L66.1026436,29.1757009 L68.4410573,29.1757009 L68.4410573,8.04914562 L65.7760495,5.23096385 L77.7751163,0 L77.7751163,5.78675376 C80.8124413,2.51740135 83.5166404,0.287703012 86.6911349,0.287703012 C90.6625191,0.287703012 92.7135299,3.35435557 92.7135299,9.26534472 L92.7135299,29.1757009 L95.0519436,29.1757009 Z" id="Path"></path>
                    <g id="O" transform="translate(95.1564, 0.1242)">
                        <path d="M1.26752253e-05,15.4182687 C-0.0107901073,23.9443654 6.88499448,30.8649106 15.4021943,30.8757547 C23.9193942,30.8865733 30.8327216,23.9835893 30.843559,15.4574926 C30.8543709,6.93139591 23.9585937,0.0108433292 15.4413939,1.38804054e-06 L15.3956707,1.38804054e-06 C11.314224,-0.00173176211 7.39925434,1.61964696 4.51201069,4.50745407 C1.62476704,7.39526117 0.00175737542,11.3129425 1.26752253e-05,15.3986526 L1.26752253e-05,15.3986526 L1.26752253e-05,15.4182687 Z M19.1449709,15.4182687 C19.1521543,17.479406 17.4894852,19.156456 15.4305033,19.1648956 C13.3715214,19.1732717 11.69524,17.5098563 11.6855837,15.448729 C11.6760105,13.3876017 13.3367002,11.7085874 15.3956707,11.6977457 C17.4475398,11.7150853 19.1126597,13.3645512 19.1515027,15.4182687 L19.1449709,15.4182687 Z" id="Shape"></path>
                    </g>
                </g>
                <path d="M124.358966,0.144186047 L124.358966,0.438303694 L123.940535,0.438303694 L123.940535,1.96771546 L123.685554,1.96771546 L123.685554,0.438303694 L123.267123,0.438303694 L123.267123,0.144186047 L124.358966,0.144186047 Z M125.758095,1.96771546 L125.712329,0.889284086 C125.718144,0.719461318 125.718144,0.549302932 125.712329,0.379480164 L125.712329,0.379480164 C125.712329,0.536342909 125.640411,0.752029184 125.601183,0.91869585 L125.372354,1.89908801 L125.104296,1.89908801 L124.868929,0.91869585 C124.868929,0.781440948 124.810087,0.575558596 124.777397,0.408891929 L124.777397,0.408891929 C124.777397,0.575558596 124.777397,0.752029184 124.777397,0.91869585 L124.67279,1.96771546 L124.424346,1.96771546 L124.528954,0.173597811 L124.914695,0.173597811 L125.136986,1.05595075 C125.136986,1.19320565 125.18929,1.32065663 125.22198,1.51673507 L125.22198,1.51673507 L125.313512,1.06575467 L125.535803,0.183401733 L125.90193,0.183401733 L126,1.96771546 L125.758095,1.96771546 Z" id="Shape"></path>
            </g>
        </g>
    </g>
</svg>