<?xml version="1.0" encoding="UTF-8"?>
<svg width="34px" height="17px" viewBox="0 0 34 17" version="1.1" xmlns="http://www.w3.org/2000/svg" xmlns:xlink="http://www.w3.org/1999/xlink">
    <title>opositiv</title>
    <g id="Page-1" stroke="none" stroke-width="1" fill="none" fill-rule="evenodd">
        <g id="ECOM-S287_OPCOM_Test-sliding-cart_Q123-Mobile-V2-Copy" transform="translate(-160, -14)" fill="#4D4D4D" fill-rule="nonzero">
            <g id="Group-739" transform="translate(160, 14)">
                <path d="M8.52355419,0 C13.2061105,0 17.0192046,3.80919551 17.0192046,8.51393612 C17.0192046,13.2190805 13.2061063,17 8.52355419,17 C3.8134987,17 0,13.2190805 0,8.51393612 C0,3.80919551 3.8134987,0 8.52355419,0 Z M8.5235299,6.41340641 C7.34591093,6.41340641 6.42104649,7.36590727 6.42104649,8.51391726 C6.42104649,9.63405509 7.34591497,10.5582798 8.5235299,10.5582798 C9.61742981,10.5582798 10.5422944,9.63405509 10.5422944,8.51391726 C10.5422944,7.36590727 9.61742981,6.41340641 8.5235299,6.41340641 Z" id="Path-532"></path>
                <path d="M29.1253578,11.647742 L33.5919632,11.647742 C33.8172104,11.647742 34,11.4655625 34,11.2405655 L34,5.69521681 C34,5.4702198 33.8172104,5.28763697 33.5919632,5.28763697 L29.1253578,5.28763697 L29.1253578,0.937155765 C29.1253578,0.712158739 28.9429727,0.529979794 28.7177175,0.529979794 L23.3869111,0.529979794 C23.1620643,0.529979794 22.9792712,0.712158739 22.9792712,0.937155765 L22.9792712,5.28763697 L18.5126648,5.28763697 C18.2874177,5.28763697 18.1050289,5.4702198 18.1050289,5.69521681 L18.1050289,11.2405655 C18.1050289,11.4655666 18.2874136,11.647742 18.5126648,11.647742 L22.9792712,11.647742 L22.9792712,16.0349815 C22.9792712,16.2599785 23.1620643,16.4421572 23.3869111,16.4421572 L28.7177175,16.4421572 C28.9429727,16.4421572 29.1253578,16.2599785 29.1253578,16.0349815 L29.1253578,11.647742 Z" id="Path-533"></path>
            </g>
        </g>
    </g>
</svg>