<svg xmlns="http://www.w3.org/2000/svg" fill="none" viewBox="0 0 78 32" height="32" width="78">
<g clip-path="url(#clip0_2289_967)">
<path style="fill:#2D2926;fill:color(display-p3 0.1765 0.1608 0.1490);fill-opacity:1;" fill="#2D2926" d="M8.71751 11.0487H10.2309C11.5985 11.0111 12.0784 10.1923 12.0784 8.1155C12.0784 6.22778 11.41 5.24691 10.2309 5.24691H8.71751V11.0487ZM49.3838 19.0131C49.3838 20.5637 49.7701 21.743 50.8675 21.743C52.0929 21.743 52.8253 20.0961 52.8253 16.2232C52.8253 11.9696 52.1628 10.5107 51.0109 10.4602C49.8958 10.412 49.3257 11.3529 49.3838 13.2912V19.0131ZM70.7071 10.6222C69.5042 10.6164 69.0006 11.9614 68.9235 13.485C68.8987 14.0007 68.8892 14.0242 68.9235 14.4095H72.493C72.5274 14.0242 72.5179 14.0007 72.493 13.485C72.416 11.9602 71.91 10.6164 70.7071 10.6222ZM23.5489 10.5095C22.346 10.5036 21.8033 11.9603 21.7274 13.4838C21.7013 13.9995 21.6919 14.023 21.7274 14.4083H25.2957C25.3313 14.023 25.3218 13.9995 25.2957 13.4838C25.2187 11.9603 24.7518 10.5036 23.5489 10.5095ZM35.1035 16.2056C35.1035 19.2903 35.6629 21.7736 37.0672 21.7926C38.5094 21.8112 39.0297 19.2903 39.0297 16.2056C39.0297 13.1208 38.4715 10.6399 37.0672 10.6185C35.7008 10.6 35.1035 13.1208 35.1035 16.2056ZM23.5821 21.7501C24.561 21.7548 25.0777 20.8444 25.2767 19.6826L29.9804 19.6815C29.7422 18.5197 29.7137 18.2742 29.6888 17.3697L21.7689 17.3709C21.7381 17.7221 21.7701 18.313 21.7973 18.8568C21.8744 20.3781 22.3792 21.7571 23.5821 21.7501ZM70.7415 21.7501C71.7192 21.7548 72.2371 20.8338 72.4373 19.6732H77.7975C77.1244 27.7657 65.8352 27.8291 64.8468 21.4118V25.5901H57.0632V21.366C56.3841 25.4962 54.0021 26.0647 52.9568 26.0624C52.0811 26.06 49.9313 25.3458 49.1373 23.1691L49.2143 25.5396C49.2297 27.0103 50.1778 27.9419 51.1851 28.0746V31.4953L42.1014 31.5V28.0746C42.8646 28.0535 44.0865 27.3122 44.1007 25.6606V19.4595C43.821 21.0194 42.6561 26.06 37.0696 26.06C31.534 26.06 30.2814 20.7375 30.0432 19.9575C29.0086 25.7581 25.1191 26.0765 23.409 26.053C20.3409 26.0166 18.504 23.9233 18.4577 23.8763C16.6126 22.0179 16.257 19.2034 16.3317 16.168C16.3317 15.556 16.4893 14.3707 16.5438 13.7869C14.5588 15.9025 12.7172 15.6382 10.5331 15.7192L8.69736 15.7157V19.1834C8.69736 20.5789 9.21406 21.413 10.7855 21.4247V25.5948H0V21.5116C1.57143 21.4999 2.10827 20.5907 2.10709 19.194V6.83274C2.10709 6.53672 2.03243 4.62315 0.00592544 4.60906V0.5H11.6459C13.8406 0.5 15.4002 1.16135 16.4514 1.98128C18.3914 3.4978 18.7801 6.10208 18.9377 8.03092C21.904 5.4748 28.9292 4.9039 30.106 12.5582C31.374 6.72584 35.7114 6.28534 36.7259 6.28064C38.5474 6.27359 41.6606 7.36605 42.6703 10.3169V6.67651H49.0472V9.01648C49.5165 7.25093 51.0903 6.29121 52.6843 6.28181C54.2225 6.27241 57.3725 7.96749 58.1807 14.4106V5.82956C58.1736 4.59261 57.4116 3.95358 56.1625 3.95945L56.1578 0.536415H63.5788V14.4177C64.2543 8.26821 67.7171 6.30178 70.6313 6.30178C73.5892 6.30061 75.688 7.93695 76.7641 10.0291C78.14 12.7062 78.0404 15.536 77.9587 17.3697L68.9307 17.372C68.8987 17.7233 68.9318 18.3141 68.9579 18.858C69.0338 20.3781 69.5398 21.7571 70.7415 21.7501Z"></path>
</g>
<defs>
<clipPath id="clip0_2289_967">
<rect transform="translate(0 0.5)" style="fill:white;fill-opacity:1;" fill="white" height="31" width="78"></rect>
</clipPath>
</defs>
</svg>
