<svg xmlns="http://www.w3.org/2000/svg" fill="none" viewBox="0 0 224 27" height="27" width="224">
<g clip-path="url(#clip0_2289_972)">
<path style="fill:#2D2926;fill:color(display-p3 0.1765 0.1608 0.1490);fill-opacity:1;" fill="#2D2926" d="M88.084 0.575083C90.6979 0.575083 92.826 2.70764 92.826 5.32697C92.826 7.6839 91.6315 9.62913 89.8762 11.9489C90.399 12.8845 90.8838 13.82 91.3696 14.7185L92.6391 12.7352H97.4182L97.354 12.8304C96.7842 13.6803 95.3572 15.9382 93.9775 18.2731L93.6477 18.8343C95.1411 21.653 96.4479 24.085 97.5681 26.1304H92.6761C92.0414 24.9334 91.5186 23.8856 90.9958 22.875C90.6599 23.3618 90.399 23.7735 90.2491 24.0349C88.5688 26.7294 84.7983 27.2523 82.1844 25.4192C79.5704 23.5862 78.7868 19.844 80.765 17.3378C81.7366 16.0647 83.8267 13.4464 85.3211 11.6124C85.2679 11.5001 85.2161 11.3904 85.1657 11.2831L84.8794 10.6674C83.527 7.72616 83.3419 6.78935 83.3419 5.32697C83.3419 2.70764 85.4701 0.575083 88.084 0.575083ZM23.1137 0.5C24.3462 0.5 25.5037 0.761423 26.5863 1.24819C27.6319 1.73507 28.6025 2.40819 29.3862 3.23145C30.9545 4.91527 31.9261 7.19712 31.9261 9.7042V17.1877C31.9261 20.9298 29.797 24.2222 26.5863 25.6817C25.612 26.1189 24.577 26.4052 23.4812 26.4581L23.1137 26.4669C21.8812 26.4669 20.7237 26.2055 19.6411 25.7187C18.5956 25.232 17.625 24.5589 16.8403 23.7355C15.2719 22.0517 14.3013 19.7699 14.3013 17.2627V9.74222C14.3013 6.00007 16.4295 2.70763 19.6411 1.24819C20.6867 0.761423 21.8812 0.5 23.1137 0.5ZM126.917 0.5C128.149 0.5 129.306 0.761423 130.39 1.24819C131.434 1.73507 132.406 2.40819 133.19 3.23145C134.758 4.91527 135.729 7.19712 135.729 9.7042V17.1877C135.729 20.9298 133.6 24.2222 130.39 25.6817C129.306 26.1675 128.112 26.4669 126.917 26.4669C125.685 26.4669 124.527 26.2055 123.445 25.7187C122.399 25.232 121.427 24.5589 120.644 23.7355C119.075 22.0517 118.105 19.7699 118.105 17.2627V9.74222C118.105 6.00007 120.233 2.70763 123.445 1.24819C124.49 0.761423 125.685 0.5 126.917 0.5ZM107.724 0.53706C108.957 0.53706 110.151 0.799454 111.197 1.28525C112.28 1.73508 113.213 2.44525 113.998 3.26863C115.603 4.95233 116.537 7.23515 116.537 9.74223H112.168C112.168 8.73165 111.87 7.79602 111.384 7.01078C110.898 6.22445 110.226 5.62654 109.443 5.28894C108.957 5.02752 108.397 4.91528 107.799 4.91528C107.201 4.91528 106.642 5.06457 106.119 5.28894C105.633 5.51331 105.148 5.8509 104.738 6.29965C103.916 7.15996 103.393 8.35701 103.393 9.74223V17.2247C103.393 18.2353 103.692 19.1709 104.178 19.9562C104.663 20.7425 105.335 21.3405 106.119 21.678C106.642 21.9394 107.201 22.0517 107.799 22.0517C108.359 22.0517 108.92 21.9394 109.405 21.715C109.89 21.4907 110.338 21.1912 110.749 20.7795C111.533 19.9943 112.056 18.9084 112.168 17.6744L112.168 17.7115H116.5V17.8237C116.276 21.4156 114.147 24.4466 111.048 25.7938C110.039 26.2055 108.882 26.4669 107.724 26.4669C106.493 26.4669 105.297 26.2055 104.252 25.7188C103.169 25.27 102.236 24.5589 101.452 23.7355C99.8465 22.0517 98.9129 19.7699 98.9129 17.2627V9.7794C98.9129 6.00008 101.078 2.70764 104.252 1.28525C105.335 0.799454 106.493 0.53706 107.724 0.53706ZM141.479 0.874651V18.3105C141.479 19.3582 141.89 20.2557 142.562 20.9669C143.235 21.64 144.167 22.0517 145.213 22.0517C146.258 22.0517 147.155 21.64 147.865 20.9669C148.537 20.2937 148.947 19.3582 148.947 18.3105V0.874651H153.316V18.3105C153.316 20.5552 152.42 22.5755 150.927 24.11C149.679 25.4668 147.785 26.3809 145.602 26.4612L145.288 26.4669C143.048 26.4669 141.032 25.5694 139.5 24.072C138.044 22.6136 137.11 20.5552 137.11 18.2725V0.874651H141.479ZM197.041 0.948744C200.177 0.948744 202.941 2.333 204.135 5.02751C204.546 5.88795 204.77 6.86051 204.77 7.87121C204.77 8.88082 204.546 9.85447 204.135 10.7149C203.724 11.5753 203.164 12.3606 202.455 12.9966C202.231 13.184 202.007 13.3713 201.745 13.5586L201.915 13.5753C203.314 13.7467 204.241 14.7125 204.098 16.4393V26.1675H199.729V18.1982C199.729 16.4023 198.72 15.3916 196.928 15.3916H193.493V26.1675H189.124V0.948744H197.041ZM159.701 0.9117L167.692 16.7389V0.9117H172.06V26.1304H167.468L159.365 10.0038V26.1304H154.996V0.9117H159.701ZM65.4562 0.9117L73.447 16.7389V0.9117H77.8152V26.1304H73.2231L65.1204 10.0038V26.1304H60.7512V0.9117H65.4562ZM36.5929 0.9117L40.0655 16.0277L43.4631 0.9117H47.2716L51.118 16.0277L54.5526 0.9117H59.4816L53.0972 26.0934H49.1018L45.1435 10.4153L41.6339 26.0934H37.7874L31.515 0.9117H36.5929ZM208.541 0.9117L213.731 9.74223L219.033 0.9117H224L215.56 14.1195V26.0552H211.192V13.7449L203.201 0.9117H208.541ZM14.0773 0.9117V5.28894H9.18626V26.0552H4.81704V5.28894H0V0.9117H14.0773ZM187.668 0.9117V5.28894H182.852V26.0552H178.482V5.28894H173.591V0.9117H187.668ZM126.879 4.91527C126.245 4.91527 125.685 5.06456 125.199 5.28893C124.676 5.51331 124.228 5.8509 123.818 6.29964C122.996 7.15995 122.473 8.357 122.473 9.74222V17.2247C122.473 18.2353 122.772 19.1709 123.258 19.9561C123.743 20.7425 124.415 21.3035 125.199 21.678C125.722 21.9024 126.283 22.0517 126.879 22.0517C127.477 22.0517 128.037 21.9394 128.56 21.678C129.082 21.4536 129.53 21.1161 129.941 20.6674C130.763 19.807 131.286 18.6099 131.286 17.2247V9.74222C131.286 8.73164 130.987 7.79601 130.502 7.01077C130.016 6.22444 129.344 5.66357 128.56 5.28893C128.037 5.06456 127.477 4.91527 126.879 4.91527ZM23.1505 4.91527C22.5158 4.91527 21.956 5.06456 21.4702 5.28893C20.9474 5.51331 20.4996 5.8509 20.0888 6.29964C19.2671 7.15995 18.7443 8.357 18.7443 9.74222V17.2247C18.7443 18.2353 19.0432 19.1709 19.529 19.9561C20.0138 20.7425 20.6865 21.3035 21.4702 21.678C21.993 21.9024 22.5538 22.0517 23.1505 22.0517C23.7483 22.0517 24.3081 21.9394 24.8308 21.678C25.3536 21.4536 25.8014 21.1161 26.2123 20.6674C27.034 19.807 27.5567 18.6099 27.5567 17.2247V9.74222C27.5567 8.73164 27.2579 7.79601 26.773 7.01077C26.2873 6.22444 25.6155 5.66357 24.8308 5.28893C24.3081 5.06456 23.7483 4.91527 23.1505 4.91527ZM87.1874 15.4286C86.3667 16.5145 85.4331 17.7485 84.2756 19.4323C83.7528 20.1805 83.9387 21.2283 84.6864 21.7522C85.4331 22.276 86.4787 22.0897 87.0015 21.3405C87.7481 20.3308 88.3449 19.4704 88.8307 18.647C88.233 17.4501 87.6732 16.4023 87.1874 15.4286ZM197.489 5.25188H193.605V11.5001H197.526C199.243 11.5001 200.625 10.1159 200.625 8.39502C200.625 6.67318 199.243 5.28893 197.526 5.28893H197.489V5.25188ZM88.0841 4.27921C87.4864 4.27921 86.8516 4.76501 87.0755 5.77571C87.1505 6.26248 87.2255 6.63614 87.9342 8.13264C88.7938 6.89854 89.0917 6.07528 89.0917 5.28895C89.0917 4.72796 88.6439 4.27921 88.0841 4.27921Z"></path>
</g>
<defs>
<clipPath id="clip0_2289_972">
<rect transform="translate(0 0.5)" style="fill:white;fill-opacity:1;" fill="white" height="26" width="224"></rect>
</clipPath>
</defs>
</svg>
