<?xml version="1.0" encoding="UTF-8"?>
<svg width="24px" height="24px" viewBox="0 0 24 24" version="1.1" xmlns="http://www.w3.org/2000/svg" xmlns:xlink="http://www.w3.org/1999/xlink">
    <title>Group 10</title>
    <g id="Page-1" stroke="none" stroke-width="1" fill="none" fill-rule="evenodd">
        <g id="Group-9" transform="translate(-20, -231)">
            <g id="Group-10" transform="translate(20, 231)">
                <circle id="Oval" stroke="#FFFFFF" fill="#A7A7A7" cx="12" cy="12" r="11.5"></circle>
                <g id="Group-5" transform="translate(6, 5)" fill="#FFFFFF">
                    <path d="M6.09249339,14 C3.86954063,13.9832798 1.92103515,13.4198445 0.192368257,12.1099835 C0.0499270784,12.0020134 0.00275864598,11.8904149 0.000699706474,11.7072285 C-0.00753605156,10.9813967 0.0537641929,10.2721869 0.354135391,9.60524344 C0.868963856,8.46204482 1.78004459,7.8226087 2.88564831,7.44383068 C4.16471769,7.00567401 5.48543379,6.95688642 6.81466642,7.02528711 C7.73702453,7.07279985 8.64253677,7.22190845 9.5038286,7.59004635 C10.8870616,8.18123425 11.7621109,9.20528328 11.9680984,10.7920322 C12.0144714,11.1493338 11.9852251,11.5097246 11.9998248,11.8683501 C12.0038959,11.9691615 11.9362785,12.0092703 11.8735744,12.0570772 C10.5019463,13.1023574 8.96812997,13.7081571 7.28738022,13.9172327 C6.85350551,13.9712178 6.41780583,13.9906838 6.09249339,14" id="Fill-1"></path>
                    <path d="M9.17018634,3.20833333 C9.17018634,1.43643559 7.75694784,0 6.0136646,0 C4.27038135,0 2.85714286,1.43643559 2.85714286,3.20833333 C2.85714286,4.98023108 4.27038135,6.41666667 6.0136646,6.41666667 C7.75694784,6.41666667 9.17018634,4.98023108 9.17018634,3.20833333" id="Fill-3"></path>
                </g>
            </g>
        </g>
    </g>
</svg>