<?xml version="1.0" encoding="UTF-8"?>
<svg width="97px" height="31px" viewBox="0 0 97 31" version="1.1" xmlns="http://www.w3.org/2000/svg" xmlns:xlink="http://www.w3.org/1999/xlink">
    <title>MENO-Logo 2</title>
    <g id="Page-1" stroke="none" stroke-width="1" fill="none" fill-rule="evenodd">
        <g id="Group-29" transform="translate(-158, -100)" fill="#FFFFFF" fill-rule="nonzero">
            <g id="Group" transform="translate(158, 100)">
                <path d="M81.949118,30.9880312 C73.5087603,31.2456789 66.4236633,24.8331147 65.9776281,16.2505846 C65.5487482,7.92570211 71.8161141,0.614233817 80.4508974,0.0359579381 C89.0799623,-0.542317941 96.3709217,5.9217758 96.9084512,14.5558355 C97.4402624,23.1269146 90.9041317,30.667403 81.949118,30.9880312 Z M85.180072,15.5234456 C85.1914506,13.4966173 83.5159595,11.7846916 81.5030829,11.7675151 C79.444459,11.7503386 77.740376,13.4164602 77.7231555,15.4719161 C77.711784,17.3785088 79.2042863,19.222121 81.4516173,19.222121 C83.6989483,19.222121 85.1514218,17.3785088 85.1742954,15.5177201 L85.1742954,15.5177201 L85.180072,15.5234456 Z" id="Shape"></path>
                <path d="M48.5136359,13.7313629 C48.5536647,13.9260301 48.7252167,14.0119126 48.8567399,14.1206972 C49.3713959,14.538659 49.9203622,14.8993657 50.5207942,15.1799154 C52.0990724,15.9127799 53.7002243,16.5998403 55.3585602,17.1437632 C56.5422689,17.5273719 57.6916672,18.0083142 58.8582207,18.437727 C60.1562974,18.9129438 61.3056957,19.6801613 62.3350076,20.5905164 C63.9075675,21.9760883 64.7538906,23.7738965 65.1484602,25.8064503 C65.3771962,26.9916296 65.3771962,28.1825344 65.2571098,29.3734392 C65.1827706,30.1463822 64.931161,30.4326574 64.1534587,30.4555594 C63.3871931,30.4841869 62.6209276,30.4555594 61.8546621,30.4441084 C58.9497151,30.4326574 56.0504865,30.4212064 53.1455396,30.4097554 C52.8424644,30.4097554 52.5393892,30.4097554 52.236314,30.3925789 C51.6930661,30.3639513 51.5901349,30.2150882 51.7330949,29.6768909 C51.8245893,29.3505372 51.9389573,29.029909 52.0075781,28.6978297 C52.2820612,27.3809639 52.1676932,26.075549 51.8474629,24.7815852 C51.2470309,22.3711481 50.2005638,20.1553781 48.8796135,18.0655693 C47.2327144,15.449014 45.3342058,13.027126 43.4242603,10.6052379 C42.8524204,9.87809889 42.24627,9.17386193 41.6344013,8.47535047 C41.5143149,8.33221288 41.3599181,8.03448669 41.1540557,8.20052629 C40.9996589,8.32648738 41.2455501,8.54405652 41.3370445,8.70437062 C42.0118157,9.86092238 42.7666444,10.9602191 43.4928811,12.0824178 C45.1340618,14.607365 46.4264201,17.2926263 47.1240648,20.2412607 C47.5071976,21.8615783 47.7359336,23.4990723 47.741652,25.1594684 C47.7473704,26.5851189 47.7530888,28.0107693 47.7530888,29.4364197 C47.7530888,29.5452043 47.7530888,29.6539889 47.741652,29.7570479 C47.7016232,30.2322647 47.598692,30.3467748 47.1355016,30.4212064 C45.7344938,30.6387755 44.2991755,30.4956379 42.8867308,30.4727359 C40.7194574,30.4383829 38.5579023,30.5070889 36.3963473,30.5070889 C35.6586738,30.5070889 35.132581,30.5070889 35.1097074,29.6482634 L35.1097074,1.98835472 C35.1097074,1.70207953 35.1097074,1.41580434 35.132581,1.13525466 C35.1726098,0.7401949 35.2812594,0.654312344 35.6815474,0.637135832 C35.9331569,0.625684825 36.1790481,0.625684825 36.4306577,0.625684825 L56.6280449,0.625684825 C58.6809503,0.625684825 60.5565854,1.16388218 62.2377948,2.37196347 C64.2220795,3.79761391 65.1427418,5.73283418 65.0226554,8.16617327 C64.9254426,10.1300211 64.2563899,11.8533977 62.8325084,13.2389696 C61.7517309,14.2924623 60.407907,14.8421107 58.9668703,15.1684644 C58.1834496,15.345955 57.3828736,15.3974845 56.5880161,15.4833671 C55.6216066,15.5921516 54.6723522,15.3631315 53.7230979,15.2314449 C52.0418884,14.9852482 50.4292998,14.4985804 48.8910503,13.777167 C48.7652455,13.7199119 48.6451591,13.6168528 48.4907623,13.7199119 L48.4907623,13.7199119 L48.5079175,13.7313629 L48.5079175,13.7313629 L48.5136359,13.7313629 Z M41.8688557,1.90819767 C41.2283949,1.90819767 40.5479054,1.89674666 39.8731342,1.90819767 C39.5700591,1.90819767 39.5014383,2.05133526 39.6215247,2.32615944 C39.6443982,2.37768897 39.6729902,2.4177675 39.7015822,2.46357153 C40.8109518,4.27855622 42.0346893,6.00765836 43.5386283,7.51346584 C44.9739466,8.95056729 46.5865353,10.1357466 48.4450151,10.9716701 C49.3656775,11.3839064 50.3263686,11.561397 51.3499621,11.4869655 C52.5050788,11.3953574 53.7345347,10.3361392 53.9118051,9.05362635 C54.0833571,7.78256452 53.8088739,6.61456175 52.979706,5.60114759 C51.9561125,4.34726227 50.6694726,3.49988771 49.1483783,2.99604338 C46.7981161,2.21737487 44.3849515,1.85094263 41.8745741,1.90819767 C41.8745741,1.90819767 41.8688557,1.90819767 41.8688557,1.90819767 Z" id="Shape"></path>
                <path d="M31.7415701,15.5635241 L31.7415701,15.5635241 L31.7415701,1.81658961 C31.7415701,0.757371411 31.6329205,0.64858684 30.5864534,0.64858684 L20.962387,0.64858684 C20.4420126,0.64858684 19.933075,0.69439087 19.4241375,0.757371411 C19.0295679,0.803175441 18.9094815,0.929136524 18.8637343,1.33564729 C18.8408607,1.53031442 18.8351423,1.72498155 18.8408607,1.92537418 C18.8808895,3.08192594 18.7722399,4.2384777 18.7550847,5.39502945 L18.7550847,5.80726572 C18.7436479,6.35691408 18.7550847,6.84930741 18.7722399,7.28444569 C18.8408607,8.60131156 19.0810335,9.90100091 19.4584479,11.1491607 C19.990259,12.9011649 20.7679614,15.5749751 21.4484509,18.0770203 C22.3119292,21.2604004 21.5113533,23.4189153 21.5113533,23.4189153 C21.2197149,24.1575053 20.733651,24.8044872 20.1275006,25.302606 C19.5156319,25.8236269 18.7665215,26.1671571 17.8458592,26.3045692 C16.2790177,26.5335893 14.9695042,26.052647 13.8887267,24.9189973 C13.44841,24.4552315 13.1510532,23.9399361 12.9509092,23.3960133 C12.762202,22.9150709 12.6535524,22.3997756 12.6421156,21.8558528 C12.619242,21.5581266 12.6135236,21.2604004 12.619242,20.9569487 C12.6421156,19.7774949 12.9566276,18.6266686 13.3454788,17.5216464 C14.0259683,15.5749751 14.895165,13.6970099 15.7186146,11.8018682 C16.1474945,10.822807 16.5306273,9.82656936 16.8279841,8.79597868 C17.5199104,6.41416912 17.6514336,3.95792801 17.6800256,1.4959614 C17.685744,0.854704975 17.4627264,0.654312344 16.7822369,0.654312344 C13.048122,0.654312344 9.31400709,0.654312344 5.5741738,0.671488855 L4.74500586,0.671488855 C4.40762029,0.671488855 4.19032111,1.03219559 4.3504363,1.32992179 L4.73356906,2.04560976 C5.5513002,3.55141724 5.40262181,5.49236302 5.37974821,5.73855968 C5.31684582,6.15652145 5.21963302,6.57448323 5.08810984,6.992445 C4.69354027,8.24060482 4.08738992,9.38570557 3.44121077,10.5193553 C2.58345084,12.0194373 1.66850691,13.4851663 0.982298967,15.0768563 C0.982298967,15.0768563 -1.68819362,20.5218104 1.7771565,25.4800966 C5.24822502,30.4383829 9.76004226,30.4269319 9.76004226,30.4269319 L9.76004226,30.4269319 C10.3261638,30.4784614 10.8980038,30.4956379 11.4755621,30.4956379 C17.6399968,30.4956379 24.3991451,30.4956379 30.5578614,30.5070889 C30.7351318,30.5070889 30.9181206,30.5070889 31.0896725,30.4956379 C31.4670869,30.4612849 31.6443573,30.3124218 31.7129781,29.9459896 C31.7530069,29.7226949 31.7475709,29.4822238 31.7475709,29.2532036 L31.7475709,15.5577986 L31.7475709,15.5577986 L31.7415701,15.5635241 Z" id="Path"></path>
            </g>
        </g>
    </g>
</svg>