<svg xmlns="http://www.w3.org/2000/svg" fill="none" viewBox="0 0 130 27" height="27" width="130">
<g clip-path="url(#clip0_2289_962)">
<path style="fill:#2D2926;fill:color(display-p3 0.1765 0.1608 0.1490);fill-opacity:1;" fill="#2D2926" d="M12.9628 26.1372L15.3197 3.52326C15.3817 2.31395 15.6918 2.19302 16.126 2.19302H16.374V0.923256H12.5906V2.19302H12.8387C13.3349 2.19302 13.645 2.55581 13.521 3.52326L12.1565 17.007L10.6059 3.52326C10.4198 2.43488 10.6679 2.19302 11.2882 2.19302H11.3502V0.923256H6.07824V2.19302H6.32634C6.82252 2.19302 6.82252 2.37442 6.94656 3.52326L7.38073 6.96977L6.07824 17.914L4.71374 3.46279C4.52767 2.25349 4.77576 2.13256 5.33397 2.13256H5.39599V0.862791H0V2.13256H0.248092C0.868321 2.13256 0.868321 2.31395 0.930344 3.46279L3.34924 26.0767H6.82252L8.18702 14.407L9.4895 26.0767H12.9628V26.1372ZM35.3531 11.3233C35.3531 9.6907 35.3531 9.20698 36.4074 9.20698C37.0897 9.20698 37.0897 9.44884 37.0897 10.8395V24.3233C37.0897 24.807 36.9036 24.9279 36.6555 24.9279H36.4695V26.1977H41.7414V24.9279H41.4933C41.1212 24.9279 41.0592 24.7465 41.0592 24.2628V10.0535C41.0592 7.69535 40.563 6.84884 38.2061 6.84884C36.9036 6.72791 35.6632 7.51395 35.291 8.72326C35.0429 7.45349 34.3607 6.84884 32.5 6.84884C31.0115 6.84884 30.2672 7.27209 29.6469 8.72326V6.84884L25.0573 7.21163V8.4814H25.2433C25.4914 8.4814 25.7395 8.72326 25.7395 9.38837V24.1419C25.7395 24.7465 25.5534 24.9279 25.2433 24.9279H25.0573V26.1977H30.1431V24.9279H29.9571C29.709 24.9279 29.5849 24.8674 29.5849 24.4442V11.3837C29.5849 9.75116 29.5849 9.26744 30.5153 9.26744C31.1975 9.26744 31.1975 9.5093 31.1975 10.9V24.3837C31.1975 24.8674 31.0115 24.9884 30.7634 24.9884H30.5153V26.2581H35.7252V24.9884H35.6632C35.291 24.9884 35.167 24.807 35.167 24.3233V11.3837H35.3531V11.3233ZM71.8845 26.1372H78.2729V24.8674H77.8387C77.3426 24.8674 77.1565 24.6256 77.1565 23.5372V13.7419H80.5057V23.4767C80.5057 24.5651 80.3197 24.807 79.8235 24.807H79.3273V26.0767H85.6536V24.807H85.1574C84.6613 24.807 84.4752 24.5651 84.4752 23.4767V3.52326C84.4752 2.31395 84.5372 2.19302 85.1574 2.19302H85.6536V0.923256H79.3273V2.19302H79.8235C80.3197 2.19302 80.5057 2.37442 80.5057 3.52326V12.2907H77.0324V3.52326C77.0324 2.31395 77.2185 2.19302 77.8387 2.19302H78.2729V0.923256H71.8845V2.19302H72.3807C72.8769 2.19302 73.063 2.37442 73.063 3.52326V24.1419C73.063 24.6256 72.8769 24.807 72.3807 24.807H71.8845V26.1372ZM118.898 26.1372H123.922V24.8674H123.736C123.364 24.8674 123.364 24.807 123.364 24.3837V11.3233C123.364 9.6907 123.364 9.20698 124.418 9.20698C125.224 9.20698 125.224 9.44884 125.224 10.8395V24.3233C125.224 24.807 125.038 24.9279 124.852 24.9279H124.604V26.1977H130V24.9279H129.752C129.38 24.9279 129.318 24.7465 129.318 24.2628V10.0535C129.318 7.69535 128.698 6.84884 126.403 6.84884C124.852 6.84884 123.984 7.27209 123.364 8.72326V0.5L118.526 0.923256V2.19302H119.022C119.394 2.19302 119.518 2.37442 119.518 3.1V24.1419C119.518 24.7465 119.456 24.9279 119.022 24.9279H118.836V26.1977H118.898V26.1372ZM19.9094 26.4395C24.1269 26.4395 24.7471 22.993 24.7471 16.6442C24.7471 10.2953 24.1269 6.84884 19.9094 6.84884C15.6918 6.84884 15.0716 10.2349 15.0716 16.6442C15.0716 22.9326 15.6918 26.4395 19.9094 26.4395ZM51.417 26.1372H56.5029V24.8674H56.2548C56.0067 24.8674 56.0067 24.807 56.0067 24.3837V11.3233C56.0067 9.6907 56.0067 9.20698 57.0611 9.20698C57.7433 9.20698 57.8674 9.44884 57.8674 10.8395V24.3233C57.8674 24.807 57.6813 24.9279 57.4332 24.9279H57.1851V26.1977H62.5811V24.9279H62.395C62.0229 24.9279 61.9609 24.7465 61.9609 24.2628V10.0535C61.9609 7.69535 61.4647 6.84884 59.0458 6.84884C57.5573 6.84884 56.6269 7.27209 56.1307 8.72326V6.84884L51.1689 7.21163V8.4814H51.6651C51.9132 8.4814 52.1613 8.72326 52.1613 9.38837V24.1419C52.1613 24.7465 51.9752 24.9279 51.6651 24.9279H51.479V26.1372H51.417ZM97.6861 26.5C99.4227 26.5 100.105 25.6535 100.477 24.6256C100.849 26.1372 101.159 26.5 103.144 26.5C105.501 26.5 105.749 25.1698 105.749 22.5093H104.633C104.633 24.4442 104.633 24.6256 104.198 24.6256C103.826 24.6256 103.826 24.4442 103.826 23.3558V10.7791C103.826 8.23953 102.958 6.9093 99.9189 6.9093C97.5 6.9093 95.1431 7.57442 95.2672 10.1744C95.3292 11.3837 95.7634 12.5326 97.0658 12.4721C98.1823 12.4116 98.7405 11.807 98.7405 10.8395C98.6164 9.93256 98.1823 9.08605 97.438 8.54186C97.9342 8.3 98.4924 8.23954 98.9885 8.3C99.8569 8.3 100.043 8.96512 100.043 10.1744V13.7419C95.6393 15.193 94.771 15.7977 94.771 21.1791C94.709 24.9884 95.7634 26.5 97.6861 26.5ZM90.1193 26.5C93.4065 26.5 94.2128 25.593 94.0267 20.2721H92.6622C92.6622 24.5047 92.4761 24.7465 90.9876 24.7465C89.1889 24.7465 89.1889 23.9605 89.1889 16.8256V16.2209H94.4609C94.4609 8.96512 93.5926 6.9093 90.1193 6.9093C86.8941 6.9093 85.2815 8.84419 85.2815 16.7651C85.2815 24.3837 86.584 26.5 90.1193 26.5ZM46.8273 26.4395C50.0525 26.4395 50.9208 25.5326 50.7968 20.2116H49.4323C49.4323 24.4442 49.2462 24.686 47.6956 24.686C45.7109 24.686 45.8969 23.9 45.8969 16.7651V16.1605H50.9828C50.9828 8.90465 50.3006 6.84884 46.8273 6.84884C43.6021 6.84884 41.9895 8.78372 41.9895 16.7047C41.9895 24.3837 43.292 26.4395 46.8273 26.4395ZM105.997 26.1372H111.269V24.8674H110.835C110.463 24.8674 110.401 24.686 110.401 24.2023V0.5L105.439 0.923256V2.19302H105.935C106.307 2.19302 106.369 2.37442 106.369 2.85814V24.3233C106.369 24.807 106.369 24.9279 106.121 24.9279H105.873V26.1977H105.997V26.1372ZM68.0391 26.4395C70.458 26.4395 71.6985 24.9279 71.6985 22.5698C71.6985 17.0674 66.6746 13.9837 66.6746 10.0535C66.6746 8.84419 67.1088 8.54186 67.9771 8.54186C69.2796 8.54186 69.4656 9.02558 69.6517 10.9L69.8378 12.6535H71.3263V6.96977H70.2099C70.1479 7.63488 69.9618 7.87674 69.9618 7.81628C69.2796 7.0907 68.2872 6.72791 67.2948 6.78837C65.1861 6.78837 63.3254 7.69535 63.3254 10.7791C63.3254 15.6163 68.3492 19.2442 68.3492 22.8721C68.3492 24.5047 67.9771 24.7465 66.7987 24.7465C65.6823 24.7465 65.3101 24.2628 65.124 21.9047L65.062 20.2721H63.5115V26.1977H64.8139C64.876 25.5326 65.1861 25.1093 65.3101 25.3512C65.6202 25.714 66.1784 26.4395 68.0391 26.4395ZM112.137 22.207C112.137 25.2302 112.572 26.4395 115.673 26.4395C117.844 26.4395 118.34 25.593 118.34 23.2349V20.0302H117.037V23.4163C117.037 24.5047 116.975 24.686 116.541 24.686C116.107 24.686 116.045 24.5047 116.045 23.5977V8.4814H118.464V7.03023H116.045V2.19302H114.68C113.75 6.48605 112.882 7.03023 111.579 7.03023H111.207V8.4814H112.075V22.2674H112.137V22.207ZM19.9094 24.7465C18.979 24.7465 18.979 24.2628 18.979 16.6442C18.979 8.96512 18.979 8.4814 19.9094 8.4814C20.7777 8.4814 20.7777 8.96512 20.7777 16.5837C20.7777 24.2023 20.7777 24.7465 19.9094 24.7465ZM62.7672 7.81628C66.0544 5.45814 66.7366 3.58372 65.6202 2.01163C65.124 1.10465 63.6975 0.5 62.7672 1.34651C61.5267 2.25349 61.8989 3.94651 64.0697 4.97442C63.6355 5.39767 62.7672 6.30465 61.9609 7.03023L62.7672 7.81628ZM99.2987 24.0814C98.4924 24.0814 98.4924 23.2349 98.4924 20.6953C98.4924 16.0395 98.4924 15.4349 100.043 14.5884V22.5093C100.105 23.7791 99.9189 24.0814 99.2987 24.0814ZM45.8969 14.7093C45.959 8.72326 46.083 8.36047 46.9513 8.36047C47.8197 8.36047 47.7576 8.72326 47.7576 14.7093H45.8969ZM89.1889 14.7093C89.251 8.72326 89.375 8.36047 90.2433 8.36047C91.1116 8.36047 90.9256 8.72326 90.9256 14.7093H89.1889Z"></path>
</g>
<defs>
<clipPath id="clip0_2289_962">
<rect transform="translate(0 0.5)" style="fill:white;fill-opacity:1;" fill="white" height="26" width="130"></rect>
</clipPath>
</defs>
</svg>
